<svg width="375" height="812" viewBox="0 0 375 812" fill="none" xmlns="http://www.w3.org/2000/svg">
<rect width="375" height="812" rx="30" fill="white"/>
<g clip-path="url(#clip0)">
<path d="M45 693.5C20.7463 706.137 9.8479 701.986 1 650.5V619H375.5V628.5C368.792 644.205 360.86 650.968 339.5 659.5C328.921 648.096 321.74 645.584 308 644C285.283 645.662 275.181 655.54 258 676C250.446 661.068 243.615 653.651 228.5 641.5C214.939 631.414 206.091 629.495 189.5 628.5C164.91 630.412 151.713 634.02 129 644C101.836 657.177 81.777 669.834 45 693.5Z" fill="white" stroke="white"/>
<g opacity="0.9" filter="url(#filter0_i)">
<rect x="33" y="737" width="309" height="39" rx="19.5" fill="#E7E7E7"/>
</g>
<path d="M53.668 760C53.54 760 53.428 759.956 53.332 759.868C53.244 759.772 53.2 759.66 53.2 759.532V751.096C53.2 750.96 53.244 750.848 53.332 750.76C53.428 750.672 53.54 750.628 53.668 750.628C53.86 750.628 54 750.708 54.088 750.868L58.132 758.908H57.724L61.696 750.868C61.792 750.708 61.932 750.628 62.116 750.628C62.244 750.628 62.352 750.672 62.44 750.76C62.528 750.848 62.572 750.96 62.572 751.096V759.532C62.572 759.66 62.528 759.772 62.44 759.868C62.352 759.956 62.244 760 62.116 760C61.98 760 61.864 759.956 61.768 759.868C61.68 759.772 61.636 759.66 61.636 759.532V752.308L61.84 752.32L58.3 759.556C58.212 759.708 58.076 759.784 57.892 759.784C57.692 759.784 57.548 759.688 57.46 759.496L53.896 752.368L54.136 752.308V759.532C54.136 759.66 54.088 759.772 53.992 759.868C53.904 759.956 53.796 760 53.668 760ZM67.6533 760.06C67.0053 760.06 66.4293 759.92 65.9253 759.64C65.4293 759.352 65.0373 758.956 64.7493 758.452C64.4693 757.948 64.3293 757.372 64.3293 756.724C64.3293 756.068 64.4613 755.492 64.7253 754.996C64.9973 754.492 65.3693 754.096 65.8413 753.808C66.3133 753.52 66.8573 753.376 67.4733 753.376C68.0813 753.376 68.6093 753.516 69.0573 753.796C69.5133 754.068 69.8653 754.448 70.1133 754.936C70.3613 755.424 70.4853 755.98 70.4853 756.604C70.4853 756.732 70.4453 756.836 70.3653 756.916C70.2853 756.988 70.1813 757.024 70.0533 757.024H64.9533V756.256H70.1493L69.6333 756.628C69.6413 756.164 69.5573 755.748 69.3813 755.38C69.2053 755.012 68.9533 754.724 68.6253 754.516C68.3053 754.308 67.9213 754.204 67.4733 754.204C67.0173 754.204 66.6173 754.312 66.2733 754.528C65.9293 754.744 65.6613 755.044 65.4693 755.428C65.2853 755.804 65.1933 756.236 65.1933 756.724C65.1933 757.212 65.2973 757.644 65.5053 758.02C65.7213 758.396 66.0133 758.692 66.3813 758.908C66.7493 759.124 67.1733 759.232 67.6533 759.232C67.9413 759.232 68.2293 759.184 68.5173 759.088C68.8133 758.984 69.0493 758.856 69.2253 758.704C69.3133 758.632 69.4133 758.596 69.5253 758.596C69.6373 758.588 69.7333 758.616 69.8133 758.68C69.9173 758.776 69.9693 758.88 69.9693 758.992C69.9773 759.104 69.9333 759.2 69.8373 759.28C69.5733 759.504 69.2373 759.692 68.8293 759.844C68.4213 759.988 68.0293 760.06 67.6533 760.06ZM74.1604 760.06C73.6884 760.06 73.2204 759.98 72.7564 759.82C72.2924 759.66 71.9164 759.42 71.6284 759.1C71.5404 759.004 71.5044 758.896 71.5204 758.776C71.5364 758.656 71.5964 758.552 71.7004 758.464C71.8124 758.384 71.9284 758.352 72.0484 758.368C72.1684 758.384 72.2684 758.436 72.3484 758.524C72.5404 758.748 72.7924 758.92 73.1044 759.04C73.4244 759.16 73.7764 759.22 74.1604 759.22C74.7524 759.22 75.1804 759.12 75.4444 758.92C75.7084 758.712 75.8444 758.464 75.8524 758.176C75.8524 757.888 75.7164 757.652 75.4444 757.468C75.1724 757.276 74.7244 757.128 74.1004 757.024C73.2924 756.896 72.7004 756.672 72.3244 756.352C71.9484 756.032 71.7604 755.652 71.7604 755.212C71.7604 754.804 71.8684 754.464 72.0844 754.192C72.3004 753.92 72.5884 753.716 72.9484 753.58C73.3084 753.444 73.7044 753.376 74.1364 753.376C74.6724 753.376 75.1324 753.468 75.5164 753.652C75.9084 753.836 76.2244 754.084 76.4644 754.396C76.5444 754.5 76.5764 754.608 76.5604 754.72C76.5444 754.832 76.4804 754.924 76.3684 754.996C76.2724 755.052 76.1604 755.072 76.0324 755.056C75.9124 755.032 75.8084 754.972 75.7204 754.876C75.5204 754.644 75.2884 754.476 75.0244 754.372C74.7604 754.26 74.4564 754.204 74.1124 754.204C73.6724 754.204 73.3204 754.296 73.0564 754.48C72.7924 754.656 72.6604 754.88 72.6604 755.152C72.6604 755.336 72.7084 755.496 72.8044 755.632C72.9084 755.768 73.0804 755.888 73.3204 755.992C73.5684 756.096 73.9124 756.184 74.3524 756.256C74.9524 756.352 75.4244 756.496 75.7684 756.688C76.1204 756.872 76.3684 757.092 76.5124 757.348C76.6644 757.596 76.7404 757.868 76.7404 758.164C76.7404 758.54 76.6284 758.872 76.4044 759.16C76.1884 759.44 75.8844 759.66 75.4924 759.82C75.1084 759.98 74.6644 760.06 74.1604 760.06ZM80.4492 760.06C79.9772 760.06 79.5092 759.98 79.0452 759.82C78.5812 759.66 78.2052 759.42 77.9172 759.1C77.8292 759.004 77.7932 758.896 77.8092 758.776C77.8252 758.656 77.8852 758.552 77.9892 758.464C78.1012 758.384 78.2172 758.352 78.3372 758.368C78.4572 758.384 78.5572 758.436 78.6372 758.524C78.8292 758.748 79.0812 758.92 79.3932 759.04C79.7132 759.16 80.0652 759.22 80.4492 759.22C81.0412 759.22 81.4692 759.12 81.7332 758.92C81.9972 758.712 82.1332 758.464 82.1412 758.176C82.1412 757.888 82.0052 757.652 81.7332 757.468C81.4612 757.276 81.0132 757.128 80.3892 757.024C79.5812 756.896 78.9892 756.672 78.6132 756.352C78.2372 756.032 78.0492 755.652 78.0492 755.212C78.0492 754.804 78.1572 754.464 78.3732 754.192C78.5892 753.92 78.8772 753.716 79.2372 753.58C79.5972 753.444 79.9932 753.376 80.4252 753.376C80.9612 753.376 81.4212 753.468 81.8052 753.652C82.1972 753.836 82.5132 754.084 82.7532 754.396C82.8332 754.5 82.8652 754.608 82.8492 754.72C82.8332 754.832 82.7692 754.924 82.6572 754.996C82.5612 755.052 82.4492 755.072 82.3212 755.056C82.2012 755.032 82.0972 754.972 82.0092 754.876C81.8092 754.644 81.5772 754.476 81.3132 754.372C81.0492 754.26 80.7452 754.204 80.4012 754.204C79.9612 754.204 79.6092 754.296 79.3452 754.48C79.0812 754.656 78.9492 754.88 78.9492 755.152C78.9492 755.336 78.9972 755.496 79.0932 755.632C79.1972 755.768 79.3692 755.888 79.6092 755.992C79.8572 756.096 80.2012 756.184 80.6412 756.256C81.2412 756.352 81.7132 756.496 82.0572 756.688C82.4092 756.872 82.6572 757.092 82.8012 757.348C82.9532 757.596 83.0292 757.868 83.0292 758.164C83.0292 758.54 82.9172 758.872 82.6932 759.16C82.4772 759.44 82.1732 759.66 81.7812 759.82C81.3972 759.98 80.9532 760.06 80.4492 760.06ZM87.3379 760.06C86.7219 760.06 86.1699 759.916 85.6819 759.628C85.1939 759.332 84.8059 758.932 84.5179 758.428C84.2379 757.924 84.0979 757.356 84.0979 756.724C84.0979 756.084 84.2419 755.512 84.5299 755.008C84.8259 754.504 85.2259 754.108 85.7299 753.82C86.2339 753.524 86.8019 753.376 87.4339 753.376C88.0659 753.376 88.6299 753.524 89.1259 753.82C89.6299 754.108 90.0259 754.504 90.3139 755.008C90.6099 755.512 90.7619 756.084 90.7699 756.724L90.3979 757.012C90.3979 757.588 90.2619 758.108 89.9899 758.572C89.7259 759.028 89.3619 759.392 88.8979 759.664C88.4419 759.928 87.9219 760.06 87.3379 760.06ZM87.4339 759.22C87.8979 759.22 88.3099 759.112 88.6699 758.896C89.0379 758.68 89.3259 758.384 89.5339 758.008C89.7499 757.624 89.8579 757.196 89.8579 756.724C89.8579 756.244 89.7499 755.816 89.5339 755.44C89.3259 755.064 89.0379 754.768 88.6699 754.552C88.3099 754.328 87.8979 754.216 87.4339 754.216C86.9779 754.216 86.5659 754.328 86.1979 754.552C85.8299 754.768 85.5379 755.064 85.3219 755.44C85.1059 755.816 84.9979 756.244 84.9979 756.724C84.9979 757.196 85.1059 757.624 85.3219 758.008C85.5379 758.384 85.8299 758.68 86.1979 758.896C86.5659 759.112 86.9779 759.22 87.4339 759.22ZM90.3019 760C90.1659 760 90.0539 759.96 89.9659 759.88C89.8779 759.792 89.8339 759.68 89.8339 759.544V757.492L90.0619 756.544L90.7699 756.724V759.544C90.7699 759.68 90.7259 759.792 90.6379 759.88C90.5499 759.96 90.4379 760 90.3019 760ZM95.279 760.06C94.647 760.06 94.087 759.92 93.599 759.64C93.111 759.352 92.727 758.956 92.447 758.452C92.175 757.948 92.039 757.372 92.039 756.724C92.039 756.068 92.183 755.488 92.471 754.984C92.759 754.48 93.155 754.088 93.659 753.808C94.163 753.52 94.735 753.376 95.375 753.376C96.023 753.376 96.595 753.52 97.091 753.808C97.595 754.088 97.987 754.48 98.267 754.984C98.555 755.488 98.703 756.068 98.711 756.724L98.171 757.012C98.171 757.604 98.047 758.132 97.799 758.596C97.551 759.052 97.207 759.412 96.767 759.676C96.335 759.932 95.839 760.06 95.279 760.06ZM95.399 762.592C94.767 762.592 94.211 762.472 93.731 762.232C93.251 762 92.855 761.68 92.543 761.272C92.455 761.176 92.415 761.072 92.423 760.96C92.439 760.848 92.499 760.756 92.603 760.684C92.707 760.612 92.823 760.588 92.951 760.612C93.079 760.636 93.179 760.696 93.251 760.792C93.483 761.08 93.779 761.312 94.139 761.488C94.507 761.664 94.931 761.752 95.411 761.752C95.859 761.752 96.263 761.644 96.623 761.428C96.983 761.212 97.267 760.908 97.475 760.516C97.691 760.124 97.799 759.664 97.799 759.136V757.312L98.147 756.616L98.711 756.724V759.172C98.711 759.82 98.567 760.4 98.279 760.912C97.991 761.432 97.599 761.84 97.103 762.136C96.607 762.44 96.039 762.592 95.399 762.592ZM95.375 759.22C95.847 759.22 96.263 759.116 96.623 758.908C96.991 758.692 97.279 758.396 97.487 758.02C97.695 757.644 97.799 757.212 97.799 756.724C97.799 756.236 97.695 755.804 97.487 755.428C97.279 755.044 96.991 754.748 96.623 754.54C96.263 754.324 95.847 754.216 95.375 754.216C94.903 754.216 94.483 754.324 94.115 754.54C93.747 754.748 93.459 755.044 93.251 755.428C93.043 755.804 92.939 756.236 92.939 756.724C92.939 757.212 93.043 757.644 93.251 758.02C93.459 758.396 93.747 758.692 94.115 758.908C94.483 759.116 94.903 759.22 95.375 759.22ZM103.304 760.06C102.656 760.06 102.08 759.92 101.576 759.64C101.08 759.352 100.688 758.956 100.4 758.452C100.12 757.948 99.9801 757.372 99.9801 756.724C99.9801 756.068 100.112 755.492 100.376 754.996C100.648 754.492 101.02 754.096 101.492 753.808C101.964 753.52 102.508 753.376 103.124 753.376C103.732 753.376 104.26 753.516 104.708 753.796C105.164 754.068 105.516 754.448 105.764 754.936C106.012 755.424 106.136 755.98 106.136 756.604C106.136 756.732 106.096 756.836 106.016 756.916C105.936 756.988 105.832 757.024 105.704 757.024H100.604V756.256H105.8L105.284 756.628C105.292 756.164 105.208 755.748 105.032 755.38C104.856 755.012 104.604 754.724 104.276 754.516C103.956 754.308 103.572 754.204 103.124 754.204C102.668 754.204 102.268 754.312 101.924 754.528C101.58 754.744 101.312 755.044 101.12 755.428C100.936 755.804 100.844 756.236 100.844 756.724C100.844 757.212 100.948 757.644 101.156 758.02C101.372 758.396 101.664 758.692 102.032 758.908C102.4 759.124 102.824 759.232 103.304 759.232C103.592 759.232 103.88 759.184 104.168 759.088C104.464 758.984 104.7 758.856 104.876 758.704C104.964 758.632 105.064 758.596 105.176 758.596C105.288 758.588 105.384 758.616 105.464 758.68C105.568 758.776 105.62 758.88 105.62 758.992C105.628 759.104 105.584 759.2 105.488 759.28C105.224 759.504 104.888 759.692 104.48 759.844C104.072 759.988 103.68 760.06 103.304 760.06ZM107.735 760.192C107.543 760.192 107.379 760.124 107.243 759.988C107.107 759.852 107.039 759.688 107.039 759.496C107.039 759.296 107.107 759.128 107.243 758.992C107.387 758.856 107.551 758.788 107.735 758.788C107.927 758.788 108.091 758.86 108.227 759.004C108.363 759.14 108.431 759.304 108.431 759.496C108.431 759.68 108.363 759.844 108.227 759.988C108.099 760.124 107.935 760.192 107.735 760.192ZM110.145 760.192C109.953 760.192 109.789 760.124 109.653 759.988C109.517 759.852 109.449 759.688 109.449 759.496C109.449 759.296 109.517 759.128 109.653 758.992C109.797 758.856 109.961 758.788 110.145 758.788C110.337 758.788 110.501 758.86 110.637 759.004C110.773 759.14 110.841 759.304 110.841 759.496C110.841 759.68 110.773 759.844 110.637 759.988C110.509 760.124 110.345 760.192 110.145 760.192ZM112.555 760.192C112.363 760.192 112.199 760.124 112.063 759.988C111.927 759.852 111.859 759.688 111.859 759.496C111.859 759.296 111.927 759.128 112.063 758.992C112.207 758.856 112.371 758.788 112.555 758.788C112.747 758.788 112.911 758.86 113.047 759.004C113.183 759.14 113.251 759.304 113.251 759.496C113.251 759.68 113.183 759.844 113.047 759.988C112.919 760.124 112.755 760.192 112.555 760.192Z" fill="#565656"/>
</g>
<rect x="73" y="105" width="267" height="95" rx="25" fill="#E7E7E7"/>
<path d="M365 234C333.368 212.596 314.829 202.369 278 192.434L329.63 152C355.198 183.607 360.05 201.663 365 234Z" fill="#E7E7E7" stroke="#E7E7E7"/>
<rect width="267" height="95" rx="25" transform="matrix(-1 0 0 1 300 228)" fill="#C6C6C6"/>
<path d="M8 357C39.6324 335.596 58.1706 325.369 95 315.434L43.3705 275C17.8021 306.607 12.9501 324.663 8 357Z" fill="#C6C6C6" stroke="#C6C6C6"/>
<g filter="url(#filter1_f)">
<path d="M146.389 160C146.139 160 145.934 159.919 145.773 159.758C145.611 159.597 145.531 159.391 145.531 159.142V143.676C145.531 143.427 145.611 143.221 145.773 143.06C145.934 142.899 146.139 142.818 146.389 142.818C146.638 142.818 146.843 142.899 147.005 143.06C147.166 143.221 147.247 143.427 147.247 143.676V150.54H157.983V143.676C157.983 143.427 158.063 143.221 158.225 143.06C158.386 142.899 158.591 142.818 158.841 142.818C159.09 142.818 159.295 142.899 159.457 143.06C159.618 143.221 159.699 143.427 159.699 143.676V159.142C159.699 159.391 159.618 159.597 159.457 159.758C159.295 159.919 159.09 160 158.841 160C158.591 160 158.386 159.919 158.225 159.758C158.063 159.597 157.983 159.391 157.983 159.142V152.08H147.247V159.142C147.247 159.391 147.166 159.597 147.005 159.758C146.843 159.919 146.638 160 146.389 160ZM168.999 160.11C167.811 160.11 166.755 159.853 165.831 159.34C164.922 158.812 164.203 158.086 163.675 157.162C163.162 156.238 162.905 155.182 162.905 153.994C162.905 152.791 163.147 151.735 163.631 150.826C164.13 149.902 164.812 149.176 165.677 148.648C166.542 148.12 167.54 147.856 168.669 147.856C169.784 147.856 170.752 148.113 171.573 148.626C172.409 149.125 173.054 149.821 173.509 150.716C173.964 151.611 174.191 152.63 174.191 153.774C174.191 154.009 174.118 154.199 173.971 154.346C173.824 154.478 173.634 154.544 173.399 154.544H164.049V153.136H173.575L172.629 153.818C172.644 152.967 172.49 152.205 172.167 151.53C171.844 150.855 171.382 150.327 170.781 149.946C170.194 149.565 169.49 149.374 168.669 149.374C167.833 149.374 167.1 149.572 166.469 149.968C165.838 150.364 165.347 150.914 164.995 151.618C164.658 152.307 164.489 153.099 164.489 153.994C164.489 154.889 164.68 155.681 165.061 156.37C165.457 157.059 165.992 157.602 166.667 157.998C167.342 158.394 168.119 158.592 168.999 158.592C169.527 158.592 170.055 158.504 170.583 158.328C171.126 158.137 171.558 157.903 171.881 157.624C172.042 157.492 172.226 157.426 172.431 157.426C172.636 157.411 172.812 157.463 172.959 157.58C173.15 157.756 173.245 157.947 173.245 158.152C173.26 158.357 173.179 158.533 173.003 158.68C172.519 159.091 171.903 159.435 171.155 159.714C170.407 159.978 169.688 160.11 168.999 160.11ZM179.323 160C178.736 160 178.208 159.839 177.739 159.516C177.284 159.193 176.925 158.746 176.661 158.174C176.411 157.602 176.287 156.942 176.287 156.194V143.654C176.287 143.405 176.36 143.207 176.507 143.06C176.668 142.899 176.873 142.818 177.123 142.818C177.372 142.818 177.57 142.899 177.717 143.06C177.878 143.207 177.959 143.405 177.959 143.654V156.194C177.959 156.825 178.083 157.338 178.333 157.734C178.597 158.13 178.927 158.328 179.323 158.328H179.873C180.093 158.328 180.269 158.409 180.401 158.57C180.533 158.717 180.599 158.915 180.599 159.164C180.599 159.413 180.503 159.619 180.313 159.78C180.137 159.927 179.902 160 179.609 160H179.323ZM185.202 160C184.615 160 184.087 159.839 183.618 159.516C183.163 159.193 182.804 158.746 182.54 158.174C182.29 157.602 182.166 156.942 182.166 156.194V143.654C182.166 143.405 182.239 143.207 182.386 143.06C182.547 142.899 182.752 142.818 183.002 142.818C183.251 142.818 183.449 142.899 183.596 143.06C183.757 143.207 183.838 143.405 183.838 143.654V156.194C183.838 156.825 183.962 157.338 184.212 157.734C184.476 158.13 184.806 158.328 185.202 158.328H185.752C185.972 158.328 186.148 158.409 186.28 158.57C186.412 158.717 186.478 158.915 186.478 159.164C186.478 159.413 186.382 159.619 186.192 159.78C186.016 159.927 185.781 160 185.488 160H185.202ZM193.297 160.11C192.123 160.11 191.075 159.846 190.151 159.318C189.227 158.79 188.501 158.064 187.973 157.14C187.445 156.216 187.181 155.167 187.181 153.994C187.181 152.806 187.445 151.75 187.973 150.826C188.501 149.902 189.227 149.176 190.151 148.648C191.075 148.12 192.123 147.856 193.297 147.856C194.47 147.856 195.511 148.12 196.421 148.648C197.345 149.176 198.071 149.902 198.599 150.826C199.127 151.75 199.398 152.806 199.413 153.994C199.413 155.167 199.141 156.216 198.599 157.14C198.071 158.064 197.345 158.79 196.421 159.318C195.511 159.846 194.47 160.11 193.297 160.11ZM193.297 158.57C194.147 158.57 194.91 158.372 195.585 157.976C196.259 157.58 196.787 157.037 197.169 156.348C197.55 155.659 197.741 154.874 197.741 153.994C197.741 153.114 197.55 152.329 197.169 151.64C196.787 150.936 196.259 150.386 195.585 149.99C194.91 149.594 194.147 149.396 193.297 149.396C192.446 149.396 191.683 149.594 191.009 149.99C190.334 150.386 189.799 150.936 189.403 151.64C189.021 152.329 188.831 153.114 188.831 153.994C188.831 154.874 189.021 155.659 189.403 156.348C189.799 157.037 190.334 157.58 191.009 157.976C191.683 158.372 192.446 158.57 193.297 158.57ZM213.201 160C212.423 160 211.727 159.817 211.111 159.45C210.509 159.083 210.033 158.585 209.681 157.954C209.329 157.309 209.153 156.575 209.153 155.754V144.996C209.153 144.747 209.226 144.541 209.373 144.38C209.534 144.219 209.739 144.138 209.989 144.138C210.238 144.138 210.443 144.219 210.605 144.38C210.766 144.541 210.847 144.747 210.847 144.996V155.754C210.847 156.502 211.067 157.118 211.507 157.602C211.947 158.071 212.511 158.306 213.201 158.306H213.795C214.029 158.306 214.22 158.387 214.367 158.548C214.513 158.709 214.587 158.915 214.587 159.164C214.587 159.413 214.499 159.619 214.323 159.78C214.147 159.927 213.927 160 213.663 160H213.201ZM207.723 149.88C207.503 149.88 207.319 149.814 207.173 149.682C207.026 149.535 206.953 149.359 206.953 149.154C206.953 148.934 207.026 148.758 207.173 148.626C207.319 148.479 207.503 148.406 207.723 148.406H213.333C213.553 148.406 213.736 148.479 213.883 148.626C214.029 148.758 214.103 148.934 214.103 149.154C214.103 149.359 214.029 149.535 213.883 149.682C213.736 149.814 213.553 149.88 213.333 149.88H207.723ZM227.332 160C227.083 160 226.878 159.919 226.716 159.758C226.555 159.597 226.474 159.399 226.474 159.164V153.444C226.474 152.535 226.298 151.787 225.946 151.2C225.609 150.613 225.14 150.173 224.538 149.88C223.952 149.587 223.284 149.44 222.536 149.44C221.818 149.44 221.165 149.579 220.578 149.858C220.006 150.137 219.552 150.518 219.214 151.002C218.877 151.486 218.708 152.036 218.708 152.652H217.498C217.528 151.728 217.777 150.907 218.246 150.188C218.716 149.455 219.339 148.883 220.116 148.472C220.894 148.047 221.759 147.834 222.712 147.834C223.754 147.834 224.685 148.054 225.506 148.494C226.328 148.919 226.973 149.55 227.442 150.386C227.926 151.222 228.168 152.241 228.168 153.444V159.164C228.168 159.399 228.088 159.597 227.926 159.758C227.765 159.919 227.567 160 227.332 160ZM217.872 160C217.608 160 217.396 159.927 217.234 159.78C217.088 159.619 217.014 159.413 217.014 159.164V148.824C217.014 148.56 217.088 148.355 217.234 148.208C217.396 148.047 217.608 147.966 217.872 147.966C218.122 147.966 218.32 148.047 218.466 148.208C218.628 148.355 218.708 148.56 218.708 148.824V159.164C218.708 159.413 218.628 159.619 218.466 159.78C218.32 159.927 218.122 160 217.872 160ZM217.872 155.094C217.608 155.094 217.396 155.013 217.234 154.852C217.088 154.691 217.014 154.485 217.014 154.236V143.676C217.014 143.412 217.088 143.207 217.234 143.06C217.396 142.899 217.608 142.818 217.872 142.818C218.122 142.818 218.32 142.899 218.466 143.06C218.628 143.207 218.708 143.412 218.708 143.676V154.236C218.708 154.485 218.628 154.691 218.466 154.852C218.32 155.013 218.122 155.094 217.872 155.094ZM237.029 160.11C235.841 160.11 234.785 159.853 233.861 159.34C232.952 158.812 232.233 158.086 231.705 157.162C231.192 156.238 230.935 155.182 230.935 153.994C230.935 152.791 231.177 151.735 231.661 150.826C232.16 149.902 232.842 149.176 233.707 148.648C234.572 148.12 235.57 147.856 236.699 147.856C237.814 147.856 238.782 148.113 239.603 148.626C240.439 149.125 241.084 149.821 241.539 150.716C241.994 151.611 242.221 152.63 242.221 153.774C242.221 154.009 242.148 154.199 242.001 154.346C241.854 154.478 241.664 154.544 241.429 154.544H232.079V153.136H241.605L240.659 153.818C240.674 152.967 240.52 152.205 240.197 151.53C239.874 150.855 239.412 150.327 238.811 149.946C238.224 149.565 237.52 149.374 236.699 149.374C235.863 149.374 235.13 149.572 234.499 149.968C233.868 150.364 233.377 150.914 233.025 151.618C232.688 152.307 232.519 153.099 232.519 153.994C232.519 154.889 232.71 155.681 233.091 156.37C233.487 157.059 234.022 157.602 234.697 157.998C235.372 158.394 236.149 158.592 237.029 158.592C237.557 158.592 238.085 158.504 238.613 158.328C239.156 158.137 239.588 157.903 239.911 157.624C240.072 157.492 240.256 157.426 240.461 157.426C240.666 157.411 240.842 157.463 240.989 157.58C241.18 157.756 241.275 157.947 241.275 158.152C241.29 158.357 241.209 158.533 241.033 158.68C240.549 159.091 239.933 159.435 239.185 159.714C238.437 159.978 237.718 160.11 237.029 160.11ZM245.461 152.586C245.505 151.677 245.739 150.863 246.165 150.144C246.605 149.425 247.169 148.861 247.859 148.45C248.563 148.039 249.34 147.834 250.191 147.834C250.865 147.834 251.386 147.929 251.753 148.12C252.119 148.311 252.259 148.589 252.171 148.956C252.112 149.176 252.009 149.323 251.863 149.396C251.731 149.469 251.562 149.499 251.357 149.484C251.166 149.469 250.946 149.455 250.697 149.44C249.875 149.367 249.142 149.455 248.497 149.704C247.866 149.939 247.36 150.305 246.979 150.804C246.612 151.303 246.429 151.897 246.429 152.586H245.461ZM245.593 160C245.329 160 245.123 159.927 244.977 159.78C244.83 159.633 244.757 159.428 244.757 159.164V148.802C244.757 148.538 244.83 148.333 244.977 148.186C245.123 148.039 245.329 147.966 245.593 147.966C245.857 147.966 246.062 148.039 246.209 148.186C246.355 148.333 246.429 148.538 246.429 148.802V159.164C246.429 159.428 246.355 159.633 246.209 159.78C246.062 159.927 245.857 160 245.593 160ZM259.078 160.11C257.89 160.11 256.834 159.853 255.91 159.34C255.001 158.812 254.282 158.086 253.754 157.162C253.241 156.238 252.984 155.182 252.984 153.994C252.984 152.791 253.226 151.735 253.71 150.826C254.209 149.902 254.891 149.176 255.756 148.648C256.621 148.12 257.619 147.856 258.748 147.856C259.863 147.856 260.831 148.113 261.652 148.626C262.488 149.125 263.133 149.821 263.588 150.716C264.043 151.611 264.27 152.63 264.27 153.774C264.27 154.009 264.197 154.199 264.05 154.346C263.903 154.478 263.713 154.544 263.478 154.544H254.128V153.136H263.654L262.708 153.818C262.723 152.967 262.569 152.205 262.246 151.53C261.923 150.855 261.461 150.327 260.86 149.946C260.273 149.565 259.569 149.374 258.748 149.374C257.912 149.374 257.179 149.572 256.548 149.968C255.917 150.364 255.426 150.914 255.074 151.618C254.737 152.307 254.568 153.099 254.568 153.994C254.568 154.889 254.759 155.681 255.14 156.37C255.536 157.059 256.071 157.602 256.746 157.998C257.421 158.394 258.198 158.592 259.078 158.592C259.606 158.592 260.134 158.504 260.662 158.328C261.205 158.137 261.637 157.903 261.96 157.624C262.121 157.492 262.305 157.426 262.51 157.426C262.715 157.411 262.891 157.463 263.038 157.58C263.229 157.756 263.324 157.947 263.324 158.152C263.339 158.357 263.258 158.533 263.082 158.68C262.598 159.091 261.982 159.435 261.234 159.714C260.486 159.978 259.767 160.11 259.078 160.11ZM267.202 156.106C266.967 156.106 266.762 156.025 266.586 155.864C266.424 155.688 266.344 155.483 266.344 155.248V143.676C266.344 143.427 266.424 143.221 266.586 143.06C266.762 142.884 266.967 142.796 267.202 142.796C267.451 142.796 267.656 142.884 267.818 143.06C267.979 143.221 268.06 143.427 268.06 143.676V155.248C268.06 155.483 267.972 155.688 267.796 155.864C267.62 156.025 267.422 156.106 267.202 156.106ZM267.202 160C266.85 160 266.549 159.875 266.3 159.626C266.05 159.377 265.926 159.076 265.926 158.724C265.926 158.357 266.05 158.049 266.3 157.8C266.549 157.551 266.85 157.426 267.202 157.426C267.554 157.426 267.854 157.558 268.104 157.822C268.353 158.071 268.478 158.372 268.478 158.724C268.478 159.076 268.353 159.377 268.104 159.626C267.854 159.875 267.554 160 267.202 160Z" fill="black"/>
</g>
<g filter="url(#filter2_f)">
<path d="M139.151 270C138.901 270 138.696 269.919 138.535 269.758C138.373 269.597 138.293 269.391 138.293 269.142V253.676C138.293 253.427 138.373 253.221 138.535 253.06C138.696 252.899 138.901 252.818 139.151 252.818C139.4 252.818 139.605 252.899 139.767 253.06C139.928 253.221 140.009 253.427 140.009 253.676V260.54H150.745V253.676C150.745 253.427 150.825 253.221 150.987 253.06C151.148 252.899 151.353 252.818 151.603 252.818C151.852 252.818 152.057 252.899 152.219 253.06C152.38 253.221 152.461 253.427 152.461 253.676V269.142C152.461 269.391 152.38 269.597 152.219 269.758C152.057 269.919 151.852 270 151.603 270C151.353 270 151.148 269.919 150.987 269.758C150.825 269.597 150.745 269.391 150.745 269.142V262.08H140.009V269.142C140.009 269.391 139.928 269.597 139.767 269.758C139.605 269.919 139.4 270 139.151 270ZM161.761 270.11C160.573 270.11 159.517 269.853 158.593 269.34C157.684 268.812 156.965 268.086 156.437 267.162C155.924 266.238 155.667 265.182 155.667 263.994C155.667 262.791 155.909 261.735 156.393 260.826C156.892 259.902 157.574 259.176 158.439 258.648C159.304 258.12 160.302 257.856 161.431 257.856C162.546 257.856 163.514 258.113 164.335 258.626C165.171 259.125 165.816 259.821 166.271 260.716C166.726 261.611 166.953 262.63 166.953 263.774C166.953 264.009 166.88 264.199 166.733 264.346C166.586 264.478 166.396 264.544 166.161 264.544H156.811V263.136H166.337L165.391 263.818C165.406 262.967 165.252 262.205 164.929 261.53C164.606 260.855 164.144 260.327 163.543 259.946C162.956 259.565 162.252 259.374 161.431 259.374C160.595 259.374 159.862 259.572 159.231 259.968C158.6 260.364 158.109 260.914 157.757 261.618C157.42 262.307 157.251 263.099 157.251 263.994C157.251 264.889 157.442 265.681 157.823 266.37C158.219 267.059 158.754 267.602 159.429 267.998C160.104 268.394 160.881 268.592 161.761 268.592C162.289 268.592 162.817 268.504 163.345 268.328C163.888 268.137 164.32 267.903 164.643 267.624C164.804 267.492 164.988 267.426 165.193 267.426C165.398 267.411 165.574 267.463 165.721 267.58C165.912 267.756 166.007 267.947 166.007 268.152C166.022 268.357 165.941 268.533 165.765 268.68C165.281 269.091 164.665 269.435 163.917 269.714C163.169 269.978 162.45 270.11 161.761 270.11ZM172.085 270C171.498 270 170.97 269.839 170.501 269.516C170.046 269.193 169.687 268.746 169.423 268.174C169.173 267.602 169.049 266.942 169.049 266.194V253.654C169.049 253.405 169.122 253.207 169.269 253.06C169.43 252.899 169.635 252.818 169.885 252.818C170.134 252.818 170.332 252.899 170.479 253.06C170.64 253.207 170.721 253.405 170.721 253.654V266.194C170.721 266.825 170.845 267.338 171.095 267.734C171.359 268.13 171.689 268.328 172.085 268.328H172.635C172.855 268.328 173.031 268.409 173.163 268.57C173.295 268.717 173.361 268.915 173.361 269.164C173.361 269.413 173.265 269.619 173.075 269.78C172.899 269.927 172.664 270 172.371 270H172.085ZM177.964 270C177.377 270 176.849 269.839 176.38 269.516C175.925 269.193 175.566 268.746 175.302 268.174C175.052 267.602 174.928 266.942 174.928 266.194V253.654C174.928 253.405 175.001 253.207 175.148 253.06C175.309 252.899 175.514 252.818 175.764 252.818C176.013 252.818 176.211 252.899 176.358 253.06C176.519 253.207 176.6 253.405 176.6 253.654V266.194C176.6 266.825 176.724 267.338 176.974 267.734C177.238 268.13 177.568 268.328 177.964 268.328H178.514C178.734 268.328 178.91 268.409 179.042 268.57C179.174 268.717 179.24 268.915 179.24 269.164C179.24 269.413 179.144 269.619 178.954 269.78C178.778 269.927 178.543 270 178.25 270H177.964ZM186.059 270.11C184.885 270.11 183.837 269.846 182.913 269.318C181.989 268.79 181.263 268.064 180.735 267.14C180.207 266.216 179.943 265.167 179.943 263.994C179.943 262.806 180.207 261.75 180.735 260.826C181.263 259.902 181.989 259.176 182.913 258.648C183.837 258.12 184.885 257.856 186.059 257.856C187.232 257.856 188.273 258.12 189.183 258.648C190.107 259.176 190.833 259.902 191.361 260.826C191.889 261.75 192.16 262.806 192.175 263.994C192.175 265.167 191.903 266.216 191.361 267.14C190.833 268.064 190.107 268.79 189.183 269.318C188.273 269.846 187.232 270.11 186.059 270.11ZM186.059 268.57C186.909 268.57 187.672 268.372 188.347 267.976C189.021 267.58 189.549 267.037 189.931 266.348C190.312 265.659 190.503 264.874 190.503 263.994C190.503 263.114 190.312 262.329 189.931 261.64C189.549 260.936 189.021 260.386 188.347 259.99C187.672 259.594 186.909 259.396 186.059 259.396C185.208 259.396 184.445 259.594 183.771 259.99C183.096 260.386 182.561 260.936 182.165 261.64C181.783 262.329 181.593 263.114 181.593 263.994C181.593 264.874 181.783 265.659 182.165 266.348C182.561 267.037 183.096 267.58 183.771 267.976C184.445 268.372 185.208 268.57 186.059 268.57ZM195.535 270.352C195.183 270.352 194.883 270.227 194.633 269.978C194.384 269.729 194.259 269.428 194.259 269.076C194.259 268.709 194.384 268.401 194.633 268.152C194.897 267.903 195.198 267.778 195.535 267.778C195.887 267.778 196.188 267.91 196.437 268.174C196.687 268.423 196.811 268.724 196.811 269.076C196.811 269.413 196.687 269.714 196.437 269.978C196.203 270.227 195.902 270.352 195.535 270.352Z" fill="black"/>
</g>
<g filter="url(#filter3_f)">
<path d="M98.3816 190C97.7896 190 97.2816 189.812 96.8576 189.436C96.4336 189.06 96.1096 188.524 95.8856 187.828C95.6696 187.124 95.5616 186.28 95.5616 185.296C95.5616 184.328 95.6696 183.492 95.8856 182.788C96.1096 182.084 96.4336 181.544 96.8576 181.168C97.2816 180.792 97.7896 180.604 98.3816 180.604C98.9896 180.604 99.5016 180.796 99.9176 181.18C100.342 181.556 100.662 182.096 100.878 182.8C101.102 183.504 101.214 184.336 101.214 185.296C101.214 186.272 101.102 187.112 100.878 187.816C100.662 188.512 100.342 189.052 99.9176 189.436C99.5016 189.812 98.9896 190 98.3816 190ZM98.3816 189.064C98.8136 189.064 99.1696 188.904 99.4496 188.584C99.7296 188.256 99.9376 187.808 100.074 187.24C100.21 186.672 100.278 186.024 100.278 185.296C100.278 184.576 100.206 183.936 100.062 183.376C99.9256 182.808 99.7176 182.36 99.4376 182.032C99.1576 181.704 98.8056 181.54 98.3816 181.54C97.9576 181.54 97.6056 181.704 97.3256 182.032C97.0536 182.352 96.8456 182.796 96.7016 183.364C96.5656 183.932 96.4976 184.576 96.4976 185.296C96.4976 186.032 96.5656 186.684 96.7016 187.252C96.8456 187.812 97.0536 188.256 97.3256 188.584C97.6056 188.904 97.9576 189.064 98.3816 189.064ZM107.013 190C106.893 190 106.789 189.956 106.701 189.868C106.613 189.78 106.569 189.668 106.569 189.532V187.756H102.273C102.145 187.756 102.037 187.716 101.949 187.636C101.869 187.548 101.821 187.448 101.805 187.336C101.797 187.224 101.829 187.12 101.901 187.024L106.653 180.808C106.693 180.752 106.741 180.708 106.797 180.676C106.861 180.636 106.941 180.616 107.037 180.616C107.165 180.616 107.269 180.664 107.349 180.76C107.437 180.848 107.481 180.96 107.481 181.096V186.916H108.429C108.557 186.916 108.665 186.948 108.753 187.012C108.841 187.076 108.885 187.188 108.885 187.348C108.885 187.452 108.841 187.548 108.753 187.636C108.665 187.716 108.557 187.756 108.429 187.756H107.481V189.532C107.481 189.668 107.437 189.78 107.349 189.868C107.261 189.956 107.149 190 107.013 190ZM102.777 187.276L102.609 186.916H106.569V181.768L106.809 182.02L102.777 187.276ZM110.307 184.912C110.115 184.912 109.947 184.848 109.803 184.72C109.667 184.584 109.599 184.416 109.599 184.216C109.599 184.016 109.667 183.848 109.803 183.712C109.939 183.576 110.107 183.508 110.307 183.508C110.499 183.508 110.659 183.58 110.787 183.724C110.923 183.86 110.991 184.024 110.991 184.216C110.991 184.408 110.923 184.572 110.787 184.708C110.659 184.844 110.499 184.912 110.307 184.912ZM110.331 190.192C110.139 190.192 109.975 190.124 109.839 189.988C109.703 189.852 109.635 189.688 109.635 189.496C109.635 189.296 109.703 189.128 109.839 188.992C109.983 188.856 110.147 188.788 110.331 188.788C110.523 188.788 110.687 188.86 110.823 189.004C110.959 189.14 111.027 189.304 111.027 189.496C111.027 189.68 110.959 189.844 110.823 189.988C110.695 190.124 110.531 190.192 110.331 190.192ZM112.71 190C112.582 190 112.47 189.956 112.374 189.868C112.286 189.78 112.242 189.668 112.242 189.532C112.242 189.412 112.286 189.304 112.374 189.208L116.01 184.912C116.21 184.696 116.37 184.456 116.49 184.192C116.61 183.92 116.67 183.668 116.67 183.436C116.67 183.06 116.594 182.728 116.442 182.44C116.298 182.152 116.09 181.928 115.818 181.768C115.554 181.6 115.25 181.516 114.906 181.516C114.57 181.516 114.262 181.604 113.982 181.78C113.71 181.948 113.494 182.176 113.334 182.464C113.182 182.752 113.106 183.076 113.106 183.436C113.106 183.564 113.062 183.672 112.974 183.76C112.886 183.848 112.774 183.892 112.638 183.892C112.51 183.892 112.398 183.848 112.302 183.76C112.214 183.672 112.17 183.564 112.17 183.436C112.17 182.9 112.29 182.42 112.53 181.996C112.77 181.572 113.094 181.236 113.502 180.988C113.918 180.74 114.386 180.616 114.906 180.616C115.426 180.616 115.886 180.736 116.286 180.976C116.694 181.216 117.01 181.548 117.234 181.972C117.466 182.396 117.582 182.884 117.582 183.436C117.582 183.7 117.538 183.952 117.45 184.192C117.37 184.432 117.258 184.664 117.114 184.888C116.97 185.104 116.814 185.308 116.646 185.5L113.574 189.064H117.33C117.458 189.064 117.566 189.112 117.654 189.208C117.75 189.304 117.798 189.412 117.798 189.532C117.798 189.668 117.75 189.78 117.654 189.868C117.566 189.956 117.458 190 117.33 190H112.71ZM121.603 190C121.011 190 120.503 189.812 120.079 189.436C119.655 189.06 119.331 188.524 119.107 187.828C118.891 187.124 118.783 186.28 118.783 185.296C118.783 184.328 118.891 183.492 119.107 182.788C119.331 182.084 119.655 181.544 120.079 181.168C120.503 180.792 121.011 180.604 121.603 180.604C122.211 180.604 122.723 180.796 123.139 181.18C123.563 181.556 123.883 182.096 124.099 182.8C124.323 183.504 124.435 184.336 124.435 185.296C124.435 186.272 124.323 187.112 124.099 187.816C123.883 188.512 123.563 189.052 123.139 189.436C122.723 189.812 122.211 190 121.603 190ZM121.603 189.064C122.035 189.064 122.391 188.904 122.671 188.584C122.951 188.256 123.159 187.808 123.295 187.24C123.431 186.672 123.499 186.024 123.499 185.296C123.499 184.576 123.427 183.936 123.283 183.376C123.147 182.808 122.939 182.36 122.659 182.032C122.379 181.704 122.027 181.54 121.603 181.54C121.179 181.54 120.827 181.704 120.547 182.032C120.275 182.352 120.067 182.796 119.923 183.364C119.787 183.932 119.719 184.576 119.719 185.296C119.719 186.032 119.787 186.684 119.923 187.252C120.067 187.812 120.275 188.256 120.547 188.584C120.827 188.904 121.179 189.064 121.603 189.064Z" fill="black"/>
</g>
<g filter="url(#filter4_f)">
<path d="M249.358 317C248.766 317 248.258 316.812 247.834 316.436C247.41 316.06 247.086 315.524 246.862 314.828C246.646 314.124 246.538 313.28 246.538 312.296C246.538 311.328 246.646 310.492 246.862 309.788C247.086 309.084 247.41 308.544 247.834 308.168C248.258 307.792 248.766 307.604 249.358 307.604C249.966 307.604 250.478 307.796 250.894 308.18C251.318 308.556 251.638 309.096 251.854 309.8C252.078 310.504 252.19 311.336 252.19 312.296C252.19 313.272 252.078 314.112 251.854 314.816C251.638 315.512 251.318 316.052 250.894 316.436C250.478 316.812 249.966 317 249.358 317ZM249.358 316.064C249.79 316.064 250.146 315.904 250.426 315.584C250.706 315.256 250.914 314.808 251.05 314.24C251.186 313.672 251.254 313.024 251.254 312.296C251.254 311.576 251.182 310.936 251.038 310.376C250.902 309.808 250.694 309.36 250.414 309.032C250.134 308.704 249.782 308.54 249.358 308.54C248.934 308.54 248.582 308.704 248.302 309.032C248.03 309.352 247.822 309.796 247.678 310.364C247.542 310.932 247.474 311.576 247.474 312.296C247.474 313.032 247.542 313.684 247.678 314.252C247.822 314.812 248.03 315.256 248.302 315.584C248.582 315.904 248.934 316.064 249.358 316.064ZM257.99 317C257.87 317 257.766 316.956 257.678 316.868C257.59 316.78 257.546 316.668 257.546 316.532V314.756H253.25C253.122 314.756 253.014 314.716 252.926 314.636C252.846 314.548 252.798 314.448 252.782 314.336C252.774 314.224 252.806 314.12 252.878 314.024L257.63 307.808C257.67 307.752 257.718 307.708 257.774 307.676C257.838 307.636 257.918 307.616 258.014 307.616C258.142 307.616 258.246 307.664 258.326 307.76C258.414 307.848 258.458 307.96 258.458 308.096V313.916H259.406C259.534 313.916 259.642 313.948 259.73 314.012C259.818 314.076 259.862 314.188 259.862 314.348C259.862 314.452 259.818 314.548 259.73 314.636C259.642 314.716 259.534 314.756 259.406 314.756H258.458V316.532C258.458 316.668 258.414 316.78 258.326 316.868C258.238 316.956 258.126 317 257.99 317ZM253.754 314.276L253.586 313.916H257.546V308.768L257.786 309.02L253.754 314.276ZM261.283 311.912C261.091 311.912 260.923 311.848 260.779 311.72C260.643 311.584 260.575 311.416 260.575 311.216C260.575 311.016 260.643 310.848 260.779 310.712C260.915 310.576 261.083 310.508 261.283 310.508C261.475 310.508 261.635 310.58 261.763 310.724C261.899 310.86 261.967 311.024 261.967 311.216C261.967 311.408 261.899 311.572 261.763 311.708C261.635 311.844 261.475 311.912 261.283 311.912ZM261.307 317.192C261.115 317.192 260.951 317.124 260.815 316.988C260.679 316.852 260.611 316.688 260.611 316.496C260.611 316.296 260.679 316.128 260.815 315.992C260.959 315.856 261.123 315.788 261.307 315.788C261.499 315.788 261.663 315.86 261.799 316.004C261.935 316.14 262.003 316.304 262.003 316.496C262.003 316.68 261.935 316.844 261.799 316.988C261.671 317.124 261.507 317.192 261.307 317.192ZM265.967 317.06C265.407 317.06 264.903 316.94 264.455 316.7C264.015 316.452 263.667 316.116 263.411 315.692C263.155 315.268 263.027 314.788 263.027 314.252C263.027 314.116 263.067 314 263.147 313.904C263.227 313.808 263.335 313.76 263.471 313.76C263.607 313.76 263.715 313.808 263.795 313.904C263.875 314 263.915 314.116 263.915 314.252C263.915 314.62 264.003 314.952 264.179 315.248C264.355 315.536 264.595 315.768 264.899 315.944C265.211 316.112 265.555 316.196 265.931 316.196C266.555 316.196 267.043 316.024 267.395 315.68C267.747 315.328 267.923 314.876 267.923 314.324C267.923 313.932 267.839 313.592 267.671 313.304C267.503 313.008 267.275 312.78 266.987 312.62C266.699 312.452 266.375 312.368 266.015 312.368C265.887 312.368 265.779 312.324 265.691 312.236C265.603 312.148 265.559 312.036 265.559 311.9C265.559 311.772 265.603 311.664 265.691 311.576C265.779 311.488 265.887 311.444 266.015 311.444C266.295 311.444 266.551 311.376 266.783 311.24C267.023 311.096 267.215 310.908 267.359 310.676C267.503 310.444 267.575 310.188 267.575 309.908C267.575 309.484 267.431 309.132 267.143 308.852C266.855 308.564 266.471 308.42 265.991 308.42C265.655 308.42 265.355 308.488 265.091 308.624C264.827 308.752 264.619 308.928 264.467 309.152C264.323 309.368 264.251 309.616 264.251 309.896C264.251 310.032 264.207 310.148 264.119 310.244C264.039 310.332 263.935 310.376 263.807 310.376C263.671 310.376 263.563 310.332 263.483 310.244C263.403 310.148 263.363 310.036 263.363 309.908C263.363 309.468 263.475 309.072 263.699 308.72C263.931 308.36 264.243 308.08 264.635 307.88C265.027 307.672 265.479 307.568 265.991 307.568C266.455 307.568 266.871 307.672 267.239 307.88C267.615 308.08 267.911 308.36 268.127 308.72C268.351 309.072 268.463 309.468 268.463 309.908C268.463 310.18 268.395 310.444 268.259 310.7C268.131 310.956 267.959 311.188 267.743 311.396C267.527 311.596 267.291 311.752 267.035 311.864C267.443 311.984 267.783 312.168 268.055 312.416C268.327 312.664 268.527 312.956 268.655 313.292C268.783 313.62 268.847 313.964 268.847 314.324C268.847 314.852 268.719 315.324 268.463 315.74C268.215 316.148 267.871 316.472 267.431 316.712C266.991 316.944 266.503 317.06 265.967 317.06ZM272.626 317C272.034 317 271.526 316.812 271.102 316.436C270.678 316.06 270.354 315.524 270.13 314.828C269.914 314.124 269.806 313.28 269.806 312.296C269.806 311.328 269.914 310.492 270.13 309.788C270.354 309.084 270.678 308.544 271.102 308.168C271.526 307.792 272.034 307.604 272.626 307.604C273.234 307.604 273.746 307.796 274.162 308.18C274.586 308.556 274.906 309.096 275.122 309.8C275.346 310.504 275.458 311.336 275.458 312.296C275.458 313.272 275.346 314.112 275.122 314.816C274.906 315.512 274.586 316.052 274.162 316.436C273.746 316.812 273.234 317 272.626 317ZM272.626 316.064C273.058 316.064 273.414 315.904 273.694 315.584C273.974 315.256 274.182 314.808 274.318 314.24C274.454 313.672 274.522 313.024 274.522 312.296C274.522 311.576 274.45 310.936 274.306 310.376C274.17 309.808 273.962 309.36 273.682 309.032C273.402 308.704 273.05 308.54 272.626 308.54C272.202 308.54 271.85 308.704 271.57 309.032C271.298 309.352 271.09 309.796 270.946 310.364C270.81 310.932 270.742 311.576 270.742 312.296C270.742 313.032 270.81 313.684 270.946 314.252C271.09 314.812 271.298 315.256 271.57 315.584C271.85 315.904 272.202 316.064 272.626 316.064Z" fill="black"/>
</g>
<g clip-path="url(#clip1)">
<path d="M136.179 32C135.987 32 135.819 31.934 135.675 31.802C135.543 31.658 135.477 31.49 135.477 31.298V18.644C135.477 18.44 135.543 18.272 135.675 18.14C135.819 18.008 135.987 17.942 136.179 17.942C136.467 17.942 136.677 18.062 136.809 18.302L142.875 30.362H142.263L148.221 18.302C148.365 18.062 148.575 17.942 148.851 17.942C149.043 17.942 149.205 18.008 149.337 18.14C149.469 18.272 149.535 18.44 149.535 18.644V31.298C149.535 31.49 149.469 31.658 149.337 31.802C149.205 31.934 149.043 32 148.851 32C148.647 32 148.473 31.934 148.329 31.802C148.197 31.658 148.131 31.49 148.131 31.298V20.462L148.437 20.48L143.127 31.334C142.995 31.562 142.791 31.676 142.515 31.676C142.215 31.676 141.999 31.532 141.867 31.244L136.521 20.552L136.881 20.462V31.298C136.881 31.49 136.809 31.658 136.665 31.802C136.533 31.934 136.371 32 136.179 32ZM157.031 32.09C156.107 32.09 155.279 31.874 154.547 31.442C153.815 30.998 153.233 30.398 152.801 29.642C152.381 28.886 152.171 28.034 152.171 27.086C152.171 26.126 152.387 25.268 152.819 24.512C153.263 23.756 153.863 23.162 154.619 22.73C155.375 22.286 156.227 22.064 157.175 22.064C158.123 22.064 158.969 22.286 159.713 22.73C160.469 23.162 161.063 23.756 161.495 24.512C161.939 25.268 162.167 26.126 162.179 27.086L161.621 27.518C161.621 28.382 161.417 29.162 161.009 29.858C160.613 30.542 160.067 31.088 159.371 31.496C158.687 31.892 157.907 32.09 157.031 32.09ZM157.175 30.83C157.871 30.83 158.489 30.668 159.029 30.344C159.581 30.02 160.013 29.576 160.325 29.012C160.649 28.436 160.811 27.794 160.811 27.086C160.811 26.366 160.649 25.724 160.325 25.16C160.013 24.596 159.581 24.152 159.029 23.828C158.489 23.492 157.871 23.324 157.175 23.324C156.491 23.324 155.873 23.492 155.321 23.828C154.769 24.152 154.331 24.596 154.007 25.16C153.683 25.724 153.521 26.366 153.521 27.086C153.521 27.794 153.683 28.436 154.007 29.012C154.331 29.576 154.769 30.02 155.321 30.344C155.873 30.668 156.491 30.83 157.175 30.83ZM161.477 32C161.273 32 161.105 31.94 160.973 31.82C160.841 31.688 160.775 31.52 160.775 31.316V28.238L161.117 26.816L162.179 27.086V31.316C162.179 31.52 162.113 31.688 161.981 31.82C161.849 31.94 161.681 32 161.477 32ZM171.481 32C171.337 32 171.217 31.976 171.121 31.928C171.037 31.88 170.947 31.796 170.851 31.676L167.737 27.716L167.197 27.248L164.065 23.27C163.933 23.114 163.867 22.952 163.867 22.784C163.879 22.616 163.939 22.472 164.047 22.352C164.155 22.22 164.311 22.154 164.515 22.154C164.719 22.154 164.893 22.226 165.037 22.37L168.061 26.24L168.547 26.636L171.895 30.92C172.051 31.112 172.117 31.292 172.093 31.46C172.069 31.628 171.991 31.76 171.859 31.856C171.739 31.952 171.613 32 171.481 32ZM164.353 32C164.161 32 164.005 31.94 163.885 31.82C163.777 31.7 163.717 31.556 163.705 31.388C163.705 31.22 163.771 31.058 163.903 30.902L167.215 26.762L167.989 27.788L164.839 31.784C164.731 31.928 164.569 32 164.353 32ZM168.565 27.32L167.683 26.42L170.797 22.478C170.881 22.358 170.971 22.274 171.067 22.226C171.175 22.178 171.283 22.154 171.391 22.154C171.595 22.154 171.751 22.22 171.859 22.352C171.967 22.472 172.015 22.622 172.003 22.802C172.003 22.97 171.943 23.132 171.823 23.288L168.565 27.32ZM180.081 32C179.889 32 179.721 31.934 179.577 31.802C179.445 31.658 179.379 31.49 179.379 31.298V18.644C179.379 18.44 179.445 18.272 179.577 18.14C179.721 18.008 179.889 17.942 180.081 17.942C180.369 17.942 180.579 18.062 180.711 18.302L186.777 30.362H186.165L192.123 18.302C192.267 18.062 192.477 17.942 192.753 17.942C192.945 17.942 193.107 18.008 193.239 18.14C193.371 18.272 193.437 18.44 193.437 18.644V31.298C193.437 31.49 193.371 31.658 193.239 31.802C193.107 31.934 192.945 32 192.753 32C192.549 32 192.375 31.934 192.231 31.802C192.099 31.658 192.033 31.49 192.033 31.298V20.462L192.339 20.48L187.029 31.334C186.897 31.562 186.693 31.676 186.417 31.676C186.117 31.676 185.901 31.532 185.769 31.244L180.423 20.552L180.783 20.462V31.298C180.783 31.49 180.711 31.658 180.567 31.802C180.435 31.934 180.273 32 180.081 32ZM200.879 32.108C200.027 32.108 199.265 31.934 198.593 31.586C197.921 31.226 197.387 30.704 196.991 30.02C196.607 29.336 196.415 28.502 196.415 27.518V22.838C196.415 22.646 196.481 22.484 196.613 22.352C196.745 22.22 196.907 22.154 197.099 22.154C197.303 22.154 197.471 22.22 197.603 22.352C197.735 22.484 197.801 22.646 197.801 22.838V27.518C197.801 28.262 197.939 28.874 198.215 29.354C198.503 29.834 198.887 30.194 199.367 30.434C199.859 30.674 200.411 30.794 201.023 30.794C201.611 30.794 202.139 30.68 202.607 30.452C203.087 30.224 203.465 29.912 203.741 29.516C204.017 29.12 204.155 28.67 204.155 28.166H205.145C205.109 28.922 204.899 29.6 204.515 30.2C204.143 30.788 203.639 31.256 203.003 31.604C202.367 31.94 201.659 32.108 200.879 32.108ZM204.839 32C204.635 32 204.467 31.94 204.335 31.82C204.215 31.688 204.155 31.514 204.155 31.298V22.838C204.155 22.634 204.215 22.472 204.335 22.352C204.467 22.22 204.635 22.154 204.839 22.154C205.043 22.154 205.211 22.22 205.343 22.352C205.475 22.472 205.541 22.634 205.541 22.838V31.298C205.541 31.514 205.475 31.688 205.343 31.82C205.211 31.94 205.043 32 204.839 32ZM211.945 32.09C211.237 32.09 210.535 31.97 209.839 31.73C209.143 31.49 208.579 31.13 208.147 30.65C208.015 30.506 207.961 30.344 207.985 30.164C208.009 29.984 208.099 29.828 208.255 29.696C208.423 29.576 208.597 29.528 208.777 29.552C208.957 29.576 209.107 29.654 209.227 29.786C209.515 30.122 209.893 30.38 210.361 30.56C210.841 30.74 211.369 30.83 211.945 30.83C212.833 30.83 213.475 30.68 213.871 30.38C214.267 30.068 214.471 29.696 214.483 29.264C214.483 28.832 214.279 28.478 213.871 28.202C213.463 27.914 212.791 27.692 211.855 27.536C210.643 27.344 209.755 27.008 209.191 26.528C208.627 26.048 208.345 25.478 208.345 24.818C208.345 24.206 208.507 23.696 208.831 23.288C209.155 22.88 209.587 22.574 210.127 22.37C210.667 22.166 211.261 22.064 211.909 22.064C212.713 22.064 213.403 22.202 213.979 22.478C214.567 22.754 215.041 23.126 215.401 23.594C215.521 23.75 215.569 23.912 215.545 24.08C215.521 24.248 215.425 24.386 215.257 24.494C215.113 24.578 214.945 24.608 214.753 24.584C214.573 24.548 214.417 24.458 214.285 24.314C213.985 23.966 213.637 23.714 213.241 23.558C212.845 23.39 212.389 23.306 211.873 23.306C211.213 23.306 210.685 23.444 210.289 23.72C209.893 23.984 209.695 24.32 209.695 24.728C209.695 25.004 209.767 25.244 209.911 25.448C210.067 25.652 210.325 25.832 210.685 25.988C211.057 26.144 211.573 26.276 212.233 26.384C213.133 26.528 213.841 26.744 214.357 27.032C214.885 27.308 215.257 27.638 215.473 28.022C215.701 28.394 215.815 28.802 215.815 29.246C215.815 29.81 215.647 30.308 215.311 30.74C214.987 31.16 214.531 31.49 213.943 31.73C213.367 31.97 212.701 32.09 211.945 32.09ZM221.792 32C221.156 32 220.586 31.85 220.082 31.55C219.59 31.25 219.2 30.842 218.912 30.326C218.624 29.798 218.48 29.198 218.48 28.526V19.724C218.48 19.52 218.54 19.352 218.66 19.22C218.792 19.088 218.96 19.022 219.164 19.022C219.368 19.022 219.536 19.088 219.668 19.22C219.8 19.352 219.866 19.52 219.866 19.724V28.526C219.866 29.138 220.046 29.642 220.406 30.038C220.766 30.422 221.228 30.614 221.792 30.614H222.278C222.47 30.614 222.626 30.68 222.746 30.812C222.866 30.944 222.926 31.112 222.926 31.316C222.926 31.52 222.854 31.688 222.71 31.82C222.566 31.94 222.386 32 222.17 32H221.792ZM217.31 23.72C217.13 23.72 216.98 23.666 216.86 23.558C216.74 23.438 216.68 23.294 216.68 23.126C216.68 22.946 216.74 22.802 216.86 22.694C216.98 22.574 217.13 22.514 217.31 22.514H221.9C222.08 22.514 222.23 22.574 222.35 22.694C222.47 22.802 222.53 22.946 222.53 23.126C222.53 23.294 222.47 23.438 222.35 23.558C222.23 23.666 222.08 23.72 221.9 23.72H217.31ZM229.376 32.09C228.404 32.09 227.54 31.88 226.784 31.46C226.04 31.028 225.452 30.434 225.02 29.678C224.6 28.922 224.39 28.058 224.39 27.086C224.39 26.102 224.588 25.238 224.984 24.494C225.392 23.738 225.95 23.144 226.658 22.712C227.366 22.28 228.182 22.064 229.106 22.064C230.018 22.064 230.81 22.274 231.482 22.694C232.166 23.102 232.694 23.672 233.066 24.404C233.438 25.136 233.624 25.97 233.624 26.906C233.624 27.098 233.564 27.254 233.444 27.374C233.324 27.482 233.168 27.536 232.976 27.536H225.326V26.384H233.12L232.346 26.942C232.358 26.246 232.232 25.622 231.968 25.07C231.704 24.518 231.326 24.086 230.834 23.774C230.354 23.462 229.778 23.306 229.106 23.306C228.422 23.306 227.822 23.468 227.306 23.792C226.79 24.116 226.388 24.566 226.1 25.142C225.824 25.706 225.686 26.354 225.686 27.086C225.686 27.818 225.842 28.466 226.154 29.03C226.478 29.594 226.916 30.038 227.468 30.362C228.02 30.686 228.656 30.848 229.376 30.848C229.808 30.848 230.24 30.776 230.672 30.632C231.116 30.476 231.47 30.284 231.734 30.056C231.866 29.948 232.016 29.894 232.184 29.894C232.352 29.882 232.496 29.924 232.616 30.02C232.772 30.164 232.85 30.32 232.85 30.488C232.862 30.656 232.796 30.8 232.652 30.92C232.256 31.256 231.752 31.538 231.14 31.766C230.528 31.982 229.94 32.09 229.376 32.09ZM236.275 25.934C236.311 25.19 236.503 24.524 236.851 23.936C237.211 23.348 237.673 22.886 238.237 22.55C238.813 22.214 239.449 22.046 240.145 22.046C240.697 22.046 241.123 22.124 241.423 22.28C241.723 22.436 241.837 22.664 241.765 22.964C241.717 23.144 241.633 23.264 241.513 23.324C241.405 23.384 241.267 23.408 241.099 23.396C240.943 23.384 240.763 23.372 240.559 23.36C239.887 23.3 239.287 23.372 238.759 23.576C238.243 23.768 237.829 24.068 237.517 24.476C237.217 24.884 237.067 25.37 237.067 25.934H236.275ZM236.383 32C236.167 32 235.999 31.94 235.879 31.82C235.759 31.7 235.699 31.532 235.699 31.316V22.838C235.699 22.622 235.759 22.454 235.879 22.334C235.999 22.214 236.167 22.154 236.383 22.154C236.599 22.154 236.767 22.214 236.887 22.334C237.007 22.454 237.067 22.622 237.067 22.838V31.316C237.067 31.532 237.007 31.7 236.887 31.82C236.767 31.94 236.599 32 236.383 32Z" fill="#2D2D2D"/>
<g opacity="0.4" filter="url(#filter5_d)">
<rect x="-18" y="-23" width="412" height="85" fill="#E7E7E7"/>
</g>
<path d="M157.265 50C157.065 50 156.921 49.9 156.833 49.7L153.269 41.36C153.181 41.136 153.173 40.96 153.245 40.832C153.325 40.696 153.461 40.628 153.653 40.628C153.853 40.628 153.997 40.728 154.085 40.928L157.397 48.848H157.133L160.433 40.952C160.481 40.832 160.541 40.748 160.613 40.7C160.685 40.652 160.781 40.628 160.901 40.628C161.085 40.628 161.209 40.7 161.273 40.844C161.337 40.98 161.333 41.136 161.261 41.312L157.685 49.7C157.637 49.812 157.577 49.892 157.505 49.94C157.433 49.98 157.353 50 157.265 50ZM163.106 50C162.962 50 162.846 49.96 162.758 49.88C162.678 49.792 162.638 49.676 162.638 49.532V43.904C162.638 43.76 162.678 43.648 162.758 43.568C162.846 43.48 162.962 43.436 163.106 43.436C163.242 43.436 163.35 43.48 163.43 43.568C163.518 43.648 163.562 43.76 163.562 43.904V49.532C163.562 49.676 163.518 49.792 163.43 49.88C163.35 49.96 163.242 50 163.106 50ZM163.094 42.188C162.918 42.188 162.766 42.124 162.638 41.996C162.51 41.868 162.446 41.712 162.446 41.528C162.446 41.328 162.51 41.172 162.638 41.06C162.774 40.94 162.93 40.88 163.106 40.88C163.274 40.88 163.422 40.94 163.55 41.06C163.686 41.172 163.754 41.328 163.754 41.528C163.754 41.712 163.69 41.868 163.562 41.996C163.434 42.124 163.278 42.188 163.094 42.188ZM168.711 50.06C168.063 50.06 167.487 49.92 166.983 49.64C166.487 49.352 166.095 48.956 165.807 48.452C165.527 47.948 165.387 47.372 165.387 46.724C165.387 46.068 165.519 45.492 165.783 44.996C166.055 44.492 166.427 44.096 166.899 43.808C167.371 43.52 167.915 43.376 168.531 43.376C169.139 43.376 169.667 43.516 170.115 43.796C170.571 44.068 170.923 44.448 171.171 44.936C171.419 45.424 171.543 45.98 171.543 46.604C171.543 46.732 171.503 46.836 171.423 46.916C171.343 46.988 171.239 47.024 171.111 47.024H166.011V46.256H171.207L170.691 46.628C170.699 46.164 170.615 45.748 170.439 45.38C170.263 45.012 170.011 44.724 169.683 44.516C169.363 44.308 168.979 44.204 168.531 44.204C168.075 44.204 167.675 44.312 167.331 44.528C166.987 44.744 166.719 45.044 166.527 45.428C166.343 45.804 166.251 46.236 166.251 46.724C166.251 47.212 166.355 47.644 166.563 48.02C166.779 48.396 167.071 48.692 167.439 48.908C167.807 49.124 168.231 49.232 168.711 49.232C168.999 49.232 169.287 49.184 169.575 49.088C169.871 48.984 170.107 48.856 170.283 48.704C170.371 48.632 170.471 48.596 170.583 48.596C170.695 48.588 170.791 48.616 170.871 48.68C170.975 48.776 171.027 48.88 171.027 48.992C171.035 49.104 170.991 49.2 170.895 49.28C170.631 49.504 170.295 49.692 169.887 49.844C169.479 49.988 169.087 50.06 168.711 50.06ZM174.18 50C174.076 50 173.984 49.972 173.904 49.916C173.824 49.86 173.768 49.788 173.736 49.7L171.864 44.084C171.816 43.884 171.82 43.728 171.876 43.616C171.932 43.496 172.044 43.436 172.212 43.436C172.316 43.436 172.408 43.464 172.488 43.52C172.568 43.576 172.628 43.664 172.668 43.784L174.336 48.884H174.072L175.62 43.796C175.652 43.692 175.704 43.608 175.776 43.544C175.856 43.472 175.956 43.436 176.076 43.436C176.196 43.436 176.292 43.468 176.364 43.532C176.444 43.596 176.5 43.684 176.532 43.796L178.008 48.764H177.804L179.436 43.784C179.516 43.552 179.664 43.436 179.88 43.436C180.056 43.436 180.176 43.504 180.24 43.64C180.304 43.768 180.304 43.916 180.24 44.084L178.368 49.7C178.336 49.788 178.28 49.86 178.2 49.916C178.128 49.972 178.04 50 177.936 50C177.832 50 177.736 49.972 177.648 49.916C177.568 49.86 177.516 49.788 177.492 49.7L175.98 44.684H176.124L174.612 49.7C174.58 49.796 174.524 49.872 174.444 49.928C174.364 49.976 174.276 50 174.18 50ZM185.198 52.808C185.054 52.808 184.938 52.764 184.85 52.676C184.77 52.596 184.73 52.484 184.73 52.34V46.676C184.738 46.052 184.886 45.492 185.174 44.996C185.47 44.492 185.866 44.096 186.362 43.808C186.866 43.52 187.43 43.376 188.054 43.376C188.694 43.376 189.266 43.524 189.77 43.82C190.274 44.108 190.67 44.504 190.958 45.008C191.254 45.512 191.402 46.084 191.402 46.724C191.402 47.356 191.258 47.924 190.97 48.428C190.69 48.932 190.306 49.332 189.818 49.628C189.33 49.916 188.778 50.06 188.162 50.06C187.626 50.06 187.138 49.948 186.698 49.724C186.266 49.492 185.918 49.188 185.654 48.812V52.34C185.654 52.484 185.61 52.596 185.522 52.676C185.442 52.764 185.334 52.808 185.198 52.808ZM188.054 49.22C188.518 49.22 188.934 49.112 189.302 48.896C189.67 48.68 189.958 48.384 190.166 48.008C190.382 47.624 190.49 47.196 190.49 46.724C190.49 46.244 190.382 45.816 190.166 45.44C189.958 45.064 189.67 44.768 189.302 44.552C188.934 44.328 188.518 44.216 188.054 44.216C187.598 44.216 187.186 44.328 186.818 44.552C186.45 44.768 186.162 45.064 185.954 45.44C185.746 45.816 185.642 46.244 185.642 46.724C185.642 47.196 185.746 47.624 185.954 48.008C186.162 48.384 186.45 48.68 186.818 48.896C187.186 49.112 187.598 49.22 188.054 49.22ZM193.419 45.956C193.443 45.46 193.571 45.016 193.803 44.624C194.043 44.232 194.351 43.924 194.727 43.7C195.111 43.476 195.535 43.364 195.999 43.364C196.367 43.364 196.651 43.416 196.851 43.52C197.051 43.624 197.127 43.776 197.079 43.976C197.047 44.096 196.991 44.176 196.911 44.216C196.839 44.256 196.747 44.272 196.635 44.264C196.531 44.256 196.411 44.248 196.275 44.24C195.827 44.2 195.427 44.248 195.075 44.384C194.731 44.512 194.455 44.712 194.247 44.984C194.047 45.256 193.947 45.58 193.947 45.956H193.419ZM193.491 50C193.347 50 193.235 49.96 193.155 49.88C193.075 49.8 193.035 49.688 193.035 49.544V43.892C193.035 43.748 193.075 43.636 193.155 43.556C193.235 43.476 193.347 43.436 193.491 43.436C193.635 43.436 193.747 43.476 193.827 43.556C193.907 43.636 193.947 43.748 193.947 43.892V49.544C193.947 49.688 193.907 49.8 193.827 49.88C193.747 49.96 193.635 50 193.491 50ZM200.858 50.06C200.218 50.06 199.646 49.916 199.142 49.628C198.638 49.34 198.242 48.944 197.954 48.44C197.666 47.936 197.522 47.364 197.522 46.724C197.522 46.076 197.666 45.5 197.954 44.996C198.242 44.492 198.638 44.096 199.142 43.808C199.646 43.52 200.218 43.376 200.858 43.376C201.498 43.376 202.066 43.52 202.562 43.808C203.066 44.096 203.462 44.492 203.75 44.996C204.038 45.5 204.186 46.076 204.194 46.724C204.194 47.364 204.046 47.936 203.75 48.44C203.462 48.944 203.066 49.34 202.562 49.628C202.066 49.916 201.498 50.06 200.858 50.06ZM200.858 49.22C201.322 49.22 201.738 49.112 202.106 48.896C202.474 48.68 202.762 48.384 202.97 48.008C203.178 47.632 203.282 47.204 203.282 46.724C203.282 46.244 203.178 45.816 202.97 45.44C202.762 45.056 202.474 44.756 202.106 44.54C201.738 44.324 201.322 44.216 200.858 44.216C200.394 44.216 199.978 44.324 199.61 44.54C199.242 44.756 198.95 45.056 198.734 45.44C198.526 45.816 198.422 46.244 198.422 46.724C198.422 47.204 198.526 47.632 198.734 48.008C198.95 48.384 199.242 48.68 199.61 48.896C199.978 49.112 200.394 49.22 200.858 49.22ZM206.639 50C206.511 50 206.403 49.956 206.315 49.868C206.227 49.78 206.183 49.668 206.183 49.532V43.376C206.183 42.84 206.275 42.364 206.459 41.948C206.651 41.532 206.955 41.204 207.371 40.964C207.787 40.716 208.343 40.592 209.039 40.592C209.359 40.592 209.663 40.628 209.951 40.7C210.239 40.772 210.471 40.876 210.647 41.012C210.831 41.14 210.923 41.3 210.923 41.492C210.923 41.836 210.727 42.008 210.335 42.008C210.199 42.008 210.075 41.976 209.963 41.912C209.851 41.84 209.735 41.76 209.615 41.672C209.503 41.576 209.379 41.496 209.243 41.432C209.107 41.36 208.943 41.324 208.751 41.324C208.431 41.324 208.147 41.388 207.899 41.516C207.651 41.644 207.455 41.86 207.311 42.164C207.175 42.46 207.107 42.864 207.107 43.376V49.532C207.107 49.668 207.063 49.78 206.975 49.868C206.887 49.956 206.775 50 206.639 50ZM205.415 44.48C205.287 44.48 205.183 44.444 205.103 44.372C205.031 44.292 204.995 44.196 204.995 44.084C204.995 43.964 205.031 43.868 205.103 43.796C205.183 43.716 205.287 43.676 205.415 43.676H208.559C208.679 43.676 208.779 43.716 208.859 43.796C208.939 43.868 208.979 43.964 208.979 44.084C208.979 44.196 208.939 44.292 208.859 44.372C208.779 44.444 208.679 44.48 208.559 44.48H205.415ZM210.359 50C210.215 50 210.099 49.96 210.011 49.88C209.931 49.792 209.891 49.676 209.891 49.532V43.904C209.891 43.76 209.931 43.648 210.011 43.568C210.099 43.48 210.215 43.436 210.359 43.436C210.495 43.436 210.603 43.48 210.683 43.568C210.771 43.648 210.815 43.76 210.815 43.904V49.532C210.815 49.676 210.771 49.792 210.683 49.88C210.603 49.96 210.495 50 210.359 50ZM214.325 50C214.005 50 213.717 49.912 213.461 49.736C213.213 49.56 213.017 49.316 212.873 49.004C212.737 48.692 212.669 48.332 212.669 47.924V41.084C212.669 40.948 212.709 40.84 212.789 40.76C212.877 40.672 212.989 40.628 213.125 40.628C213.261 40.628 213.369 40.672 213.449 40.76C213.537 40.84 213.581 40.948 213.581 41.084V47.924C213.581 48.268 213.649 48.548 213.785 48.764C213.929 48.98 214.109 49.088 214.325 49.088H214.625C214.745 49.088 214.841 49.132 214.913 49.22C214.985 49.3 215.021 49.408 215.021 49.544C215.021 49.68 214.969 49.792 214.865 49.88C214.769 49.96 214.641 50 214.481 50H214.325ZM218.728 50.06C218.08 50.06 217.504 49.92 217 49.64C216.504 49.352 216.112 48.956 215.824 48.452C215.544 47.948 215.404 47.372 215.404 46.724C215.404 46.068 215.536 45.492 215.8 44.996C216.072 44.492 216.444 44.096 216.916 43.808C217.388 43.52 217.932 43.376 218.548 43.376C219.156 43.376 219.684 43.516 220.132 43.796C220.588 44.068 220.94 44.448 221.188 44.936C221.436 45.424 221.56 45.98 221.56 46.604C221.56 46.732 221.52 46.836 221.44 46.916C221.36 46.988 221.256 47.024 221.128 47.024H216.028V46.256H221.224L220.708 46.628C220.716 46.164 220.632 45.748 220.456 45.38C220.28 45.012 220.028 44.724 219.7 44.516C219.38 44.308 218.996 44.204 218.548 44.204C218.092 44.204 217.692 44.312 217.348 44.528C217.004 44.744 216.736 45.044 216.544 45.428C216.36 45.804 216.268 46.236 216.268 46.724C216.268 47.212 216.372 47.644 216.58 48.02C216.796 48.396 217.088 48.692 217.456 48.908C217.824 49.124 218.248 49.232 218.728 49.232C219.016 49.232 219.304 49.184 219.592 49.088C219.888 48.984 220.124 48.856 220.3 48.704C220.388 48.632 220.488 48.596 220.6 48.596C220.712 48.588 220.808 48.616 220.888 48.68C220.992 48.776 221.044 48.88 221.044 48.992C221.052 49.104 221.008 49.2 220.912 49.28C220.648 49.504 220.312 49.692 219.904 49.844C219.496 49.988 219.104 50.06 218.728 50.06Z" fill="#7F7F7F"/>
<path fill-rule="evenodd" clip-rule="evenodd" d="M42.625 21.125C41.7275 21.125 41 20.3975 41 19.5C41 18.6025 41.7275 17.875 42.625 17.875H63.375C64.2725 17.875 65 18.6025 65 19.5C65 20.3975 64.2725 21.125 63.375 21.125H42.625ZM41 26C41 26.8975 41.7275 27.625 42.625 27.625H63.375C64.2725 27.625 65 26.8975 65 26C65 25.1025 64.2725 24.375 63.375 24.375H42.625C41.7275 24.375 41 25.1025 41 26ZM41 32.5C41 33.3975 41.7275 34.125 42.625 34.125H63.375C64.2725 34.125 65 33.3975 65 32.5C65 31.6025 64.2725 30.875 63.375 30.875H42.625C41.7275 30.875 41 31.6025 41 32.5Z" fill="black" fill-opacity="0.54"/>
</g>
<defs>
<filter id="filter0_i" x="33" y="737" width="309" height="43" filterUnits="userSpaceOnUse" color-interpolation-filters="sRGB">
<feFlood flood-opacity="0" result="BackgroundImageFix"/>
<feBlend mode="normal" in="SourceGraphic" in2="BackgroundImageFix" result="shape"/>
<feColorMatrix in="SourceAlpha" type="matrix" values="0 0 0 0 0 0 0 0 0 0 0 0 0 0 0 0 0 0 127 0" result="hardAlpha"/>
<feOffset dy="4"/>
<feGaussianBlur stdDeviation="2"/>
<feComposite in2="hardAlpha" operator="arithmetic" k2="-1" k3="1"/>
<feColorMatrix type="matrix" values="0 0 0 0 0 0 0 0 0 0 0 0 0 0 0 0 0 0 0.25 0"/>
<feBlend mode="normal" in2="shape" result="effect1_innerShadow"/>
</filter>
<filter id="filter1_f" x="141.531" y="138.796" width="130.947" height="25.314" filterUnits="userSpaceOnUse" color-interpolation-filters="sRGB">
<feFlood flood-opacity="0" result="BackgroundImageFix"/>
<feBlend mode="normal" in="SourceGraphic" in2="BackgroundImageFix" result="shape"/>
<feGaussianBlur stdDeviation="2" result="effect1_foregroundBlur"/>
</filter>
<filter id="filter2_f" x="134.292" y="248.818" width="66.5188" height="25.534" filterUnits="userSpaceOnUse" color-interpolation-filters="sRGB">
<feFlood flood-opacity="0" result="BackgroundImageFix"/>
<feBlend mode="normal" in="SourceGraphic" in2="BackgroundImageFix" result="shape"/>
<feGaussianBlur stdDeviation="2" result="effect1_foregroundBlur"/>
</filter>
<filter id="filter3_f" x="91.5615" y="176.604" width="36.8734" height="17.588" filterUnits="userSpaceOnUse" color-interpolation-filters="sRGB">
<feFlood flood-opacity="0" result="BackgroundImageFix"/>
<feBlend mode="normal" in="SourceGraphic" in2="BackgroundImageFix" result="shape"/>
<feGaussianBlur stdDeviation="2" result="effect1_foregroundBlur"/>
</filter>
<filter id="filter4_f" x="242.538" y="303.568" width="36.9203" height="17.624" filterUnits="userSpaceOnUse" color-interpolation-filters="sRGB">
<feFlood flood-opacity="0" result="BackgroundImageFix"/>
<feBlend mode="normal" in="SourceGraphic" in2="BackgroundImageFix" result="shape"/>
<feGaussianBlur stdDeviation="2" result="effect1_foregroundBlur"/>
</filter>
<filter id="filter5_d" x="-22" y="-23" width="420" height="93" filterUnits="userSpaceOnUse" color-interpolation-filters="sRGB">
<feFlood flood-opacity="0" result="BackgroundImageFix"/>
<feColorMatrix in="SourceAlpha" type="matrix" values="0 0 0 0 0 0 0 0 0 0 0 0 0 0 0 0 0 0 127 0"/>
<feOffset dy="4"/>
<feGaussianBlur stdDeviation="2"/>
<feColorMatrix type="matrix" values="0 0 0 0 0 0 0 0 0 0 0 0 0 0 0 0 0 0 0.25 0"/>
<feBlend mode="normal" in2="BackgroundImageFix" result="effect1_dropShadow"/>
<feBlend mode="normal" in="SourceGraphic" in2="effect1_dropShadow" result="shape"/>
</filter>
<clipPath id="clip0">
<rect width="375" height="812" fill="white"/>
</clipPath>
<clipPath id="clip1">
<rect width="375" height="83" rx="30" fill="white"/>
</clipPath>
</defs>
</svg>
