<?xml version="1.0" encoding="utf-8"?>
<!-- Generator: Adobe Illustrator 15.0.2, SVG Export Plug-In . SVG Version: 6.00 Build 0)  -->
<!DOCTYPE svg PUBLIC "-//W3C//DTD SVG 1.1//EN" "http://www.w3.org/Graphics/SVG/1.1/DTD/svg11.dtd">
<svg version="1.1" id="Layer_1" xmlns="http://www.w3.org/2000/svg" xmlns:xlink="http://www.w3.org/1999/xlink" x="0px" y="0px"
	 width="650px" height="240px" viewBox="0 0 650 240" enable-background="new 0 0 650 240" xml:space="preserve">
<path fill="#000200" d="M0,0h424.46c-25.19,5.38-51.55,3.25-76.56,9.92C333.94,13.2,321.84,24,319.6,38.6
	c-3.909,28.28,0.28,57-2.619,85.38c0.55,16.58-0.2,35.97,12.189,48.85c14.6,12.359,34.87,11.93,52.86,13.99
	c36.13,1.689,72.25,3.74,108.39,5.699c32.5,1.61,65.061,5.49,97.6,3.551c17.5-1.381,35.16-13.36,35.681-32.41
	c3.069-42.34,0.39-85.15,1.33-127.67c1.26-12.85-3.311-25.07-9.53-35.99H650v212.02c-13.33,3.33-24.38,14.2-38.98,12.011
	c-20.529,3.36-39.72-6.22-60.02-5.12c-14.3-0.78-28.04,3.97-41.7,7.48c-14.17-0.641-28.359-0.471-42.54-0.141
	c-5.8-0.71-11.649-1.1-17.399-2.12c-0.061-0.569-0.19-1.71-0.25-2.271c-0.11-0.939-0.33-1.829-0.681-2.689
	c-2.13-7.3-9.77-11.6-17.22-8.8c-6.09,2.3-12.47-1.39-18.59,0.771c-10.96,2.079-21.89,4.989-31.87,10.069
	c-16.99,7.76-35.72,8.76-54.04,9.979c-0.39,0.021-1.15,0.061-1.54,0.08c-6,0.271-12.01,0.641-18.01,0.681
	c-9.51-20.9-17.53-42.431-25.81-63.83c5.16-3.64,10.68-6.771,15.68-10.64c4.96-3.391,8.44-8.32,11.99-13.061
	c11.69-12.65,1.32-29.08-4.709-41.61c-1.7-13.83-14.01-22.28-27.19-21.9c-9.98-8.85-12.75-23.99-17.97-36.14
	c-3.19-7.18-11.4-7.98-17.93-9.99c-4.12-0.57-8.23-1.04-12.33-1.73c-0.92-0.46-1.85-0.92-2.78-1.37c-1.5-1.17-3.46-1.05-5.18-0.56
	c-5.75-0.1-11.48,0.29-17.18,0.94c-2.34,0.16-4.63,0.65-6.94,1.02c-3.86-0.06-7.71-0.06-11.56-0.02c-5.15-0.47-10.06,1.01-15,2.12
	c-6.42-0.6-13.32,1.97-16.55,7.75c-0.72,1.82-1.11,3.74-1.53,5.64c-1.66,2.19-3.46,4.26-5.19,6.4c-6.19,4.811-14.25-9.28-21.78-1.93
	c-3.98,6.71-6.72,14.34-11.05,21.08c-2.53,10.32-0.59,21.33-1.19,31.89c-1.12,6.87,3.46,13.57,1.07,20.28
	c-20.36,2.59-43.49,0.03-60.34,13.979c-3.16,1.67-4.28,5.45-3.69,8.811c1.99,7.91,4.08,15.84,5.08,23.95l0.06,0.819
	c1.76,23.09,13.57,43.67,18.17,66.15H0V0z"/>
<path fill="#0A0C08" d="M424.46,0h41.99c-23.01,3.7-46.38,4.02-69.49,6.92c-20.81,2.46-44.39,1.51-61.729,15.32
	c-9.32,7.78-13.08,19.979-13.141,31.78c-0.229,26.66-0.05,53.33-0.08,80c-0.06,13.021,2.51,27.15,12.76,36.2
	c17.11,13.181,39.91,11.65,60.24,13.841c50.84,2.97,101.57,5.34,152.45,8.34c16.34,0.13,34.01,3.6,49.39-3.61
	c4.74-1.931,10.181-4,12.49-8.99l0.98-0.09c6.08,2.149,2.989-5.819,3.89-9.45c5.63-6.83,4.43-16.08,5.6-24.279
	c0.32-36.95,0.33-73.911-0.01-110.86c-1.18-6.43-0.22-14.59-5.62-19.4c-0.08-2.67-0.25-8.01-0.33-10.68
	c-2.949,0.11-5.67,0.5-8.55,0.66c-1.689-0.41-3.43-0.51-5.149-0.41c-2.69-1.56-5.19-3.4-7.641-5.29h22.99
	c6.22,10.92,10.79,23.14,9.53,35.99c-0.94,42.52,1.739,85.33-1.33,127.67c-0.521,19.05-18.181,31.029-35.681,32.41
	c-32.539,1.939-65.1-1.94-97.6-3.551c-36.14-1.959-72.26-4.01-108.39-5.699c-17.99-2.061-38.261-1.631-52.86-13.99
	c-12.39-12.88-11.64-32.27-12.189-48.85c2.899-28.38-1.29-57.101,2.619-85.38C321.84,24,333.94,13.2,347.9,9.92
	C372.91,3.25,399.27,5.38,424.46,0z"/>
<path fill="#121411" d="M466.45,0h26C451.81,5.59,410.68,6.9,369.99,12.05c-19.23,2.04-40.851,12.98-43.811,34.06
	c-3.46,27.13-2.01,54.58-1.989,81.85c0.729,12.681,1.239,27.399,10.979,36.87c8.8,8.96,21.08,13.77,33.51,14.54
	c60.53,5.29,121.38,6.79,182,10.979c14.34,1.391,29.301,1.271,43.04-3.569c5.561-1.7,9.38-7.58,15.62-6.98
	c-2.31,4.99-7.75,7.06-12.49,8.99c-15.38,7.21-33.05,3.74-49.39,3.61c-50.88-3-101.61-5.37-152.45-8.34
	c-20.33-2.19-43.13-0.66-60.24-13.841c-10.25-9.05-12.819-23.18-12.76-36.2c0.03-26.669-0.149-53.339,0.08-80
	c0.061-11.8,3.82-24,13.141-31.78C352.57,8.43,376.15,9.38,396.96,6.92C420.07,4.02,443.44,3.7,466.45,0z"/>
<path fill="#1B1D1A" d="M492.45,0h30.99c-47.07,6.38-94.681,8.2-141.91,13.45c-13.84,1.97-29.91,3.06-39.75,14.32l-0.71,0.32
	c-11.98,5.93-12.66,22-13.45,33.59c-0.7,26.36-1.75,52.92,0.61,79.23c1.67,8.06,3.43,19.34,12,22.91l0.67,0.31
	c8.97,11.2,24.89,11.95,38.13,13.78c51.979,3.29,104.01,5.66,156,8.8c19.189,0.62,39.21,4.07,57.63-3.08
	c2.42-0.8,4.02-2.87,5.63-4.729c0.49-0.041,1.46-0.11,1.95-0.15c1.58,0.07,3.16,0.12,4.76,0.17c1.77,0.189,3.55,0.45,5.32,0.79
	l-0.98,0.09c-6.24-0.6-10.06,5.28-15.62,6.98c-13.739,4.84-28.7,4.96-43.04,3.569c-60.62-4.189-121.47-5.689-182-10.979
	c-12.43-0.771-24.71-5.58-33.51-14.54c-9.74-9.471-10.25-24.189-10.979-36.87c-0.021-27.27-1.471-54.72,1.989-81.85
	c2.96-21.08,24.58-32.02,43.811-34.06C410.68,6.9,451.81,5.59,492.45,0z"/>
<path fill="#272926" d="M523.44,0h28C494.57,7.27,437.1,10.08,380.05,16.1c-10.76,2.08-24.6,1.86-32.16,11.04
	c-1.97,0.67-4.06,0.71-6.109,0.63c9.84-11.26,25.91-12.35,39.75-14.32C428.76,8.2,476.37,6.38,523.44,0z"/>
<path fill="#323432" d="M551.44,0h41.069c2.45,1.89,4.95,3.73,7.641,5.29c-4.15,0.4-8.29,0.67-12.431,0.85
	c-25.13-7.05-51.26-0.33-76.72,0.8c-43.45,4.01-86.99,7.27-130.42,11.62c-9.48,1.61-19.8,2.39-27.82,8.21
	c-1.63,0.14-3.25,0.23-4.87,0.37c7.561-9.18,21.4-8.96,32.16-11.04C437.1,10.08,494.57,7.27,551.44,0z"/>
<path fill="#444543" d="M511,6.94c25.46-1.13,51.59-7.85,76.72-0.8l0.721,0.41c-3.46,0.24-6.811,0.5-10.24,0.69
	c-35.11-3.15-70.12,4.479-105.2,5.84c-32.83,3.67-65.91,5.01-98.65,9.34c-3.229,0.92-6.3,2.3-9.39,3.59
	c-4.07,0.29-8.14,0.56-12.2,0.76c8.021-5.82,18.34-6.6,27.82-8.21C424.01,14.21,467.55,10.95,511,6.94z"/>
<path fill="#70726F" d="M600.15,5.29c1.72-0.1,3.46,0,5.149,0.41c-0.04,1.74-0.1,5.23-0.13,6.98c-0.17,3.49-0.24,6.99-0.38,10.48
	c-3.04-3.62-5.26-8.05-9.38-10.63c-0.7-0.62-1.42-1.24-2.13-1.84c-1.45-1.57-2.811-3.31-4.84-4.14l-0.721-0.41
	C591.86,5.96,596,5.69,600.15,5.29z"/>
<path fill="#454644" d="M605.3,5.7c2.88-0.16,5.601-0.55,8.55-0.66c0.08,2.67,0.25,8.01,0.33,10.68
	c-0.149,4.17-0.279,8.35-0.39,12.53c-2.521-5.14-2.66-12.89-8.62-15.57C605.2,10.93,605.26,7.44,605.3,5.7z"/>
<path fill="#565855" d="M473,13.08c35.08-1.36,70.09-8.99,105.2-5.84c-4.84,0.5-9.681,0.55-14.47,1.34
	C497.85,14.34,431.94,19.7,366.12,26.06l-1.16-0.05c3.09-1.29,6.16-2.67,9.39-3.59C407.09,18.09,440.17,16.75,473,13.08z"/>
<path fill="#878886" d="M578.2,7.24c3.43-0.19,6.78-0.45,10.24-0.69c2.029,0.83,3.39,2.57,4.84,4.14
	c-4.61,0.76-9.261,1.36-13.92,1.31c-4.57-3.05-10.4-2.62-15.63-3.42C568.52,7.79,573.36,7.74,578.2,7.24z"/>
<path fill="#A0A29F" d="M366.12,26.06C431.94,19.7,497.85,14.34,563.73,8.58c5.229,0.8,11.06,0.37,15.63,3.42
	C505.2,19,431,25.66,356.77,31.79C359.86,29.86,363.32,28.45,366.12,26.06z"/>
<path fill="#FDFFFB" d="M579.36,12c4.659,0.05,9.31-0.55,13.92-1.31c0.71,0.6,1.43,1.22,2.13,1.84c-0.19,2.74-0.29,5.479-0.28,8.22
	c0.021,1.75,0.061,5.23,0.09,6.98c-0.39,43.17-0.29,86.35-0.069,129.52c0.01,1.76,0.01,5.26,0.02,7.02
	c0.03,1.771,0.1,5.311,0.13,7.08c0.12,4.87-5.92,2.01-9.05,2.42c-75.8-4.399-151.6-8.989-227.43-12.8
	c-4.62-1.35-13.59,1.54-10.99-6.729c0-3.34,0.16-6.66,0.02-9.99c0.21-32.16,0.29-64.34,0-96.51c0-3.04,0.051-6.08-0.08-9.12
	c-2.479-7.26,4.811-5.81,9-6.83C431,25.66,505.2,19,579.36,12z"/>
<path fill="#8A8C89" d="M595.41,12.53c4.12,2.58,6.34,7.01,9.38,10.63l0.47,0.65c-0.689,44.64,0.08,89.3-0.39,133.95
	c-2.96,4.641-4.4,10.91-9.57,13.59c-0.03-1.77-0.1-5.31-0.13-7.08c5.811-5.31,5.84-14.05,6.71-21.279
	c0.13-34.94,0.38-69.91-0.13-104.84c-1.53-5.87-1.48-13.22-6.62-17.4C595.12,18.01,595.22,15.27,595.41,12.53z"/>
<path fill="#555754" d="M605.17,12.68c5.96,2.68,6.1,10.43,8.62,15.57c0.34,42.48,0.36,84.99-0.01,127.48
	c-2.49,5.59-2.55,13.359-8.63,16.619c-0.08-3.369-0.131-6.709,0.01-10.069c5.34-9.091,4.689-20.14,4.88-30.28
	c-0.24-27.82,0.32-55.64-0.34-83.45c-0.3-8.15,1.34-18-4.44-24.74l-0.47-0.65C604.93,19.67,605,16.17,605.17,12.68z"/>
<path fill="#181917" d="M614.18,15.72c5.4,4.811,4.44,12.97,5.62,19.4c0.34,36.95,0.33,73.91,0.01,110.86
	c-1.17,8.199,0.03,17.449-5.6,24.279c-0.13-4.85-0.24-9.689-0.43-14.529c0.37-42.49,0.35-85,0.01-127.48
	C613.9,24.07,614.03,19.89,614.18,15.72z"/>
<path fill="#979896" d="M595.13,20.75c5.14,4.18,5.09,11.53,6.62,17.4c0.51,34.93,0.26,69.9,0.13,104.84
	c-0.87,7.229-0.899,15.97-6.71,21.279c-0.01-1.76-0.01-5.26-0.02-7.02c3.949-5.54,3.8-12.73,3.88-19.23
	c-0.09-31.68,0.06-63.359-0.07-95.04c0.24-5.33-1.22-10.6-3.74-15.25C595.19,25.98,595.15,22.5,595.13,20.75z"/>
<path fill="#646663" d="M605.26,23.81c5.78,6.74,4.141,16.59,4.44,24.74c0.66,27.81,0.1,55.63,0.34,83.45
	c-0.19,10.141,0.46,21.189-4.88,30.28c-0.11-1.511-0.2-3.011-0.29-4.521C605.34,113.11,604.57,68.45,605.26,23.81z"/>
<path fill="#818380" d="M352.76,26.77c4.061-0.2,8.13-0.47,12.2-0.76l1.16,0.05c-2.8,2.39-6.26,3.8-9.351,5.73
	c-4.189,1.02-11.479-0.43-9,6.83c-2.5,2.28-4.479,5.03-6.609,7.63c-0.12-1.84-0.28-3.67-0.391-5.51c0.091-1.99,0.11-3.99,0.101-5.98
	c0.04-1.979-0.05-3.97-0.14-5.95l0.34-0.72l0.71-0.32c2.05,0.08,4.14,0.04,6.109-0.63C349.51,27,351.13,26.91,352.76,26.77z"/>
<path fill="#242623" d="M327.62,61.68c0.79-11.59,1.47-27.66,13.45-33.59l-0.34,0.72C326.97,47.54,330.52,72.28,330,94
	c0.82,19.15-2.57,39.311,4.36,57.71c1.55,4.24,4.899,7.63,5.87,12.11c-8.57-3.57-10.33-14.851-12-22.91
	C325.87,114.6,326.92,88.04,327.62,61.68z"/>
<path fill="#A4A6A3" d="M595.22,27.73c2.521,4.65,3.98,9.92,3.74,15.25c0.13,31.68-0.02,63.36,0.07,95.04
	c-0.08,6.5,0.069,13.69-3.88,19.23C594.93,114.08,594.83,70.9,595.22,27.73z"/>
<path fill="#323432" d="M330,94c0.52-21.72-3.03-46.46,10.73-65.19c0.09,1.98,0.18,3.97,0.14,5.95c-4.08,7.44-6.53,15.75-6.75,24.25
	c-0.33,23.34-0.01,46.67-0.14,70.01c-0.301,9.791,1.77,19.791,6.869,28.23c0.011,1.72,0.03,5.16,0.051,6.88l-0.67-0.31
	c-0.971-4.48-4.32-7.87-5.87-12.11C327.43,133.311,330.82,113.15,330,94z"/>
<path fill="#9EA09D" d="M203.75,32.06c5.7-0.65,11.43-1.04,17.18-0.94c1.35,1.5,3.48,1.25,5.18,0.56c0.93,0.45,1.86,0.91,2.78,1.37
	c2.5,4.45,6.35,8.07,8.36,12.81c-9.49-2.63-18.37-7.29-28.09-9.17C206.99,35.51,203.72,35.18,203.75,32.06z"/>
<path fill="#474946" d="M220.93,31.12c1.72-0.49,3.68-0.61,5.18,0.56C224.41,32.37,222.28,32.62,220.93,31.12z"/>
<path fill="#575956" d="M196.81,33.08c2.31-0.37,4.6-0.86,6.94-1.02c-0.03,3.12,3.24,3.45,5.41,4.63
	c4.01,15.01,20.68,19.34,30.73,29.54c1.32,1.33,2.72,2.58,4.11,3.85c2.86,6.97-5.64,14.41-0.01,20.91
	c4.9,7.74,15.02,5.92,22.84,5.08c7.3,17.03,15.32,34.77,12.86,53.88c-0.22,2.14-0.44,4.319,0.28,6.39c-0.81,1.53-1.56,3.08-2.2,4.68
	c-1.34-3.239-2.58-6.529-3.99-9.739c3.17-16.03,0.11-35.87-15.34-44.74c-10.63-9.25-27.99-11.39-32.8-26.2
	C216.31,64.4,208.59,47.39,196.81,33.08z"/>
<path fill="#454744" d="M170.25,35.18c4.94-1.11,9.85-2.59,15-2.12c-9.17,14.12-6.49,31.89-2.84,47.4
	c2.24,8.44,1.38,18.65,7.87,25.26c19.05,3.36,39.75,0.48,57.65,9.37c10.63,8.721,22.08,19.73,24.09,33.99
	c-6.71-9.141-9.18-23.21-21.15-27c-16.32,0.66-32.81-1.061-48.26-6.65c-5.55-1.51-8.79-7.01-14.27-8.77
	c-11.82-2.33-24.98,1.42-36.34-1.86c3.09-18.54,9.8-36.36,15.43-54.29C171.63,45.51,161.2,35.51,170.25,35.18z"/>
<path fill="#4D4F4C" d="M185.25,33.06c3.85-0.04,7.7-0.04,11.56,0.02c11.78,14.31,19.5,31.32,28.83,47.26
	c4.81,14.81,22.17,16.95,32.8,26.2c15.45,8.87,18.51,28.71,15.34,44.74c-0.61-0.72-1.2-1.45-1.76-2.2
	c-2.01-14.26-13.46-25.27-24.09-33.99c-17.9-8.89-38.6-6.01-57.65-9.37c-6.49-6.61-5.63-16.82-7.87-25.26
	C178.76,64.95,176.08,47.18,185.25,33.06z"/>
<path fill="#B8BAB7" d="M228.89,33.05c4.1,0.69,8.21,1.16,12.33,1.73c-8.01-2.26-5.01,7.33-1.52,10.5
	c5.44,5.79,16.46,8.49,14.41,18.65c0.2,4.09,19.62,3.6,9.14,5.41c-3.85,5.4,0.16,10.33,6.4,10.97c6.54,0.94,6.97,9.3,12.39,11.72
	c2.63,0.78,4.73,2.45,6.12,4.82c-1.41,0.08-2.81,0.15-4.21,0.22c-3.58-3.94-9.56-4.08-14.33-2.52c-4.59,2.04-6.36-4.3-9.44-6.56
	c-3.62-5.36-7.68-10.39-11.91-15.271c-3.28-2.99,2.85-6.25,2.38-9.439c-3.26-6.07-7.8-11.4-12.47-16.43
	c-0.23-0.25-0.69-0.74-0.93-0.99C235.24,41.12,231.39,37.5,228.89,33.05z"/>
<path fill="#3C3E3B" d="M153.7,42.93c3.23-5.78,10.13-8.35,16.55-7.75c-9.05,0.33,1.38,10.33-2.82,15.33
	C161.8,68.44,155.09,86.26,152,104.8c11.36,3.28,24.52-0.47,36.34,1.86c5.48,1.76,8.72,7.26,14.27,8.77
	c15.45,5.589,31.94,7.31,48.26,6.65c11.97,3.79,14.44,17.859,21.15,27c0.56,0.75,1.15,1.48,1.76,2.2c1.41,3.21,2.65,6.5,3.99,9.739
	c1.03,2.44,2.21,4.83,3.58,7.101c8.28,21.399,16.3,42.93,25.81,63.83c1.109,2.649,2.12,5.34,3.09,8.05h-22.04
	c1.16-6.7,1.16-14.41-3.1-20.09c-14.69-23.061-26.91-48.15-45.8-68.2c-8.34-6.79-17.22-14.851-28.38-16.05
	c2.85-3.99,3.93-11.15,10.47-10.24c0.63,0.74,8.64-1.609,4.21-2.98c-15.04,0.11-28.61-9.449-43.65-6.649
	c-9.23,0.75-18.31-2.02-27.32-3.43c-10.94-5.85-7.12-19.95-6.02-29.76C150.57,69.38,159.56,56.25,153.7,42.93z"/>
<path fill="#D8DAD6" d="M239.7,45.28c-3.49-3.17-6.49-12.76,1.52-10.5c6.53,2.01,14.74,2.81,17.93,9.99
	c5.22,12.15,7.99,27.29,17.97,36.14c2.7,3.17,3.57,7.29,4.92,11.12c-5.42-2.42-5.85-10.78-12.39-11.72
	c-6.24-0.64-10.25-5.57-6.4-10.97c10.48-1.81-8.94-1.32-9.14-5.41C256.16,53.77,245.14,51.07,239.7,45.28z"/>
<path fill="#414240" d="M334.12,59.01c0.22-8.5,2.67-16.81,6.75-24.25c0.01,1.99-0.01,3.99-0.101,5.98
	C333.99,59.75,336.41,80.24,336,100c0.44,17.04-1.91,35.08,4.83,51.25c0.06,2,0.04,4,0.02,6c-5.1-8.439-7.17-18.439-6.869-28.23
	C334.11,105.68,333.79,82.35,334.12,59.01z"/>
<path fill="#828481" d="M209.16,36.69c9.72,1.88,18.6,6.54,28.09,9.17c0.24,0.25,0.7,0.74,0.93,0.99
	c-0.62,6.56,1.05,12.92,1.71,19.38C229.84,56.03,213.17,51.7,209.16,36.69z"/>
<path fill="#999A98" d="M341.16,46.25c2.13-2.6,4.109-5.35,6.609-7.63c0.131,3.04,0.08,6.08,0.08,9.12
	c-4.13,5.84-3.39,13.5-3.859,20.24c-0.021,20.01,0.02,40.03-0.021,60.04c-0.27,5.61,0.66,11.511,3.88,16.23
	c0.141,3.33-0.02,6.65-0.02,9.99c-2.271-2.45-4.51-4.94-6.73-7.41c-0.119-3.85-0.279-7.7-0.47-11.54
	c0.67-25.83,0.48-51.69,0.101-77.53C340.88,53.93,341.02,50.09,341.16,46.25z"/>
<path fill="#4F514E" d="M336,100c0.41-19.76-2.01-40.25,4.77-59.26c0.11,1.84,0.271,3.67,0.391,5.51
	c-0.141,3.84-0.28,7.68-0.43,11.51c-1.211,25.79-1.171,51.76-0.101,77.53c0.19,3.84,0.351,7.69,0.47,11.54
	c-0.09,1.47-0.18,2.95-0.27,4.42C334.09,135.08,336.44,117.04,336,100z"/>
<path fill="#333532" d="M152.17,48.57c0.42-1.9,0.81-3.82,1.53-5.64c5.86,13.32-3.13,26.45-5.08,39.67
	c-1.1,9.81-4.92,23.91,6.02,29.76c9.01,1.41,18.09,4.18,27.32,3.43c15.04-2.8,28.61,6.76,43.65,6.649
	c4.43,1.371-3.58,3.721-4.21,2.98c-6.54-0.91-7.62,6.25-10.47,10.24c11.16,1.199,20.04,9.26,28.38,16.05
	c18.89,20.05,31.11,45.14,45.8,68.2c4.26,5.68,4.26,13.39,3.1,20.09h-2.07c1.72-7.2,0.21-14.98-4.19-20.939
	c-12.88-20.92-24.51-42.801-40.22-61.791c-9.16-9.75-20.5-17.89-33.81-20.43c0.22-5.4,6.3-8.34,7.12-13.66
	c-20.38-7.43-42.34-3.68-63.21-8.03c-10.34-5.15-5.99-19.08-6.85-28.17C144.46,73.67,154.07,61.57,152.17,48.57z"/>
<path fill="#A2A4A1" d="M238.18,46.85c4.67,5.03,9.21,10.36,12.47,16.43c0.47,3.189-5.66,6.45-2.38,9.439
	c4.23,4.88,8.29,9.91,11.91,15.271c-8.32-2.35-12.92-10.81-16.18-17.91c-1.39-1.27-2.79-2.52-4.11-3.85
	C239.23,59.77,237.56,53.41,238.18,46.85z"/>
<path fill="#A6A8A5" d="M343.99,67.98c0.47-6.74-0.271-14.4,3.859-20.24c0.29,32.17,0.21,64.35,0,96.51
	c-3.22-4.72-4.149-10.62-3.88-16.23C344.01,108.01,343.97,87.99,343.99,67.98z"/>
<path fill="#2C2D2B" d="M146.98,54.97c1.73-2.14,3.53-4.21,5.19-6.4c1.9,13-7.71,25.1-7.19,38.41c0.86,9.09-3.49,23.02,6.85,28.17
	c20.87,4.35,42.83,0.6,63.21,8.03c-0.82,5.32-6.9,8.26-7.12,13.66c13.31,2.54,24.65,10.68,33.81,20.43
	c15.71,18.99,27.34,40.871,40.22,61.791c4.4,5.959,5.91,13.739,4.19,20.939h-24.12c-8.33-19.92-14.69-40.75-25.52-59.6
	c-8.57-13.17-12.2-30.87-26.77-39.141c-16.78-8.85-36.53-5.66-54.73-6.27c-34.05-3.01-67.36,13.199-101.31,5.279
	c16.85-13.949,39.98-11.39,60.34-13.979c4.22,0.58,8.5,0.899,12.63-0.479c0.7-9.03,1.99-18.13,5.73-26.451
	C134.8,83.64,144.2,70.63,146.98,54.97z"/>
<path fill="#0A0C08" d="M125.2,53.04c7.53-7.35,15.59,6.74,21.78,1.93c-2.78,15.66-12.18,28.67-14.59,44.39
	c-3.74,8.32-5.03,17.42-5.73,26.451c-4.13,1.379-8.41,1.06-12.63,0.479c2.39-6.71-2.19-13.41-1.07-20.28
	c0.6-10.56-1.34-21.57,1.19-31.89C118.48,67.38,121.22,59.75,125.2,53.04z"/>
<path fill="#686A67" d="M340.63,135.29c-1.07-25.77-1.11-51.74,0.101-77.53C341.11,83.6,341.3,109.46,340.63,135.29z"/>
<path fill="#828481" d="M244,70.08c3.26,7.1,7.86,15.56,16.18,17.91c3.08,2.26,4.85,8.6,9.44,6.56c4.77-1.56,10.75-1.42,14.33,2.52
	c6.73,8.85,7.68,19.59,9.82,30.1c0.09,1.88,0.13,3.76,0.13,5.641c-0.42,9.549-7.45,17.289-13.93,23.529
	c-0.72-2.07-0.5-4.25-0.28-6.39c2.46-19.11-5.56-36.85-12.86-53.88c-7.82,0.84-17.94,2.66-22.84-5.08
	C238.36,84.49,246.86,77.05,244,70.08z"/>
<path fill="#E1E3DF" d="M277.12,80.91c13.18-0.38,25.49,8.07,27.19,21.9c6.03,12.53,16.4,28.959,4.709,41.61
	c-4.029-7.87-6.359-16.24-10.859-24.62c-3.69-7.49-5.53-15.87-10-22.95c-1.39-2.37-3.49-4.04-6.12-4.82
	C280.69,88.2,279.82,84.08,277.12,80.91 M293.03,95.95c0.55,9.8,7.48,17.76,10.24,27.04c5.33-2.37-0.49-6.93-0.62-10.8
	C299.28,107.29,298.44,98.23,293.03,95.95z"/>
<path fill="#C2C3C0" d="M293.03,95.95c5.41,2.28,6.25,11.34,9.62,16.24c0.13,3.87,5.95,8.43,0.62,10.8
	C300.51,113.71,293.58,105.75,293.03,95.95z"/>
<path fill="#A4A6A3" d="M283.95,97.07c1.4-0.07,2.8-0.14,4.21-0.22c4.47,7.08,6.31,15.46,10,22.95c-0.07,2.22,2.46,8.101-1.69,5.61
	c-2.17-1.54-3.14-1.01-2.7,1.76C291.63,116.66,290.68,105.92,283.95,97.07z"/>
<path fill="#BCBEBB" d="M298.16,119.8c4.5,8.38,6.83,16.75,10.859,24.62c-3.549,4.74-7.029,9.67-11.99,13.061
	c-2.62-7.961-2.08-16.44-3.13-24.67c0-1.881-0.04-3.761-0.13-5.641c-0.44-2.77,0.53-3.3,2.7-1.76
	C300.62,127.9,298.09,122.02,298.16,119.8z"/>
<path fill="#A0A29F" d="M279.97,156.34c6.48-6.24,13.51-13.98,13.93-23.529c1.05,8.229,0.51,16.709,3.13,24.67
	c-5,3.869-10.52,7-15.68,10.64c-1.37-2.271-2.55-4.66-3.58-7.101C278.41,159.42,279.16,157.87,279.97,156.34z"/>
<path fill="#222321" d="M53.69,140.27c33.95,7.92,67.26-8.289,101.31-5.279c18.2,0.609,37.95-2.58,54.73,6.27
	c14.57,8.271,18.2,25.971,26.77,39.141c10.83,18.85,17.19,39.68,25.52,59.6h-7.7c-3.53-15.41-13.73-27.53-21.18-41.13
	c-10.1-11.431-8.12-29.21-19.43-39.57c-8.45-3.2-16.45-8.92-25.73-9.17c-45.9-2.521-92.31-1.79-137.98-1.05
	C49.41,145.72,50.53,141.939,53.69,140.27z"/>
<path fill="#818280" d="M341.1,146.83c2.221,2.47,4.46,4.96,6.73,7.41c-2.6,8.27,6.37,5.38,10.99,6.729
	c1.109,1.29,2.22,2.591,3.37,3.851c-2.841,0.13-5.671,0.27-8.49,0.42c-1.641-0.131-3.28-0.21-4.91-0.311
	c-2.63-0.359-5.26-0.59-7.89-0.8c-0.021-1.72-0.04-5.16-0.051-6.88c0.021-2,0.04-4-0.02-6C340.92,149.78,341.01,148.3,341.1,146.83z
	"/>
<path fill="#1B1C1A" d="M50,149.08c45.67-0.74,92.08-1.471,137.98,1.05c9.28,0.25,17.28,5.97,25.73,9.17
	c11.31,10.36,9.33,28.14,19.43,39.57c7.45,13.6,17.65,25.72,21.18,41.13h-2.92c-6.6-19.07-24.26-31.08-34.35-48.03
	c-3.23-6.3-9.94-9.71-15.8-13.11c-8.18-3.539-14.92-10.329-24.36-10.6c-8.66-0.729-16.64-7.83-25.51-3.89
	c-26.01,6.95-53.12-0.771-79.29,3.81c-6.06,0-10.99,5.61-17.01,4.851C54.08,164.92,51.99,156.99,50,149.08z"/>
<path fill="#454744" d="M605.15,172.35c6.08-3.26,6.14-11.029,8.63-16.619c0.189,4.84,0.3,9.68,0.43,14.529
	c-0.9,3.631,2.19,11.6-3.89,9.45c-1.771-0.34-3.551-0.601-5.32-0.79C605.04,177.27,605.11,173.99,605.15,172.35z"/>
<path fill="#767875" d="M595.3,171.35c5.17-2.68,6.61-8.949,9.57-13.59c0.09,1.51,0.18,3.01,0.29,4.521
	c-0.141,3.36-0.09,6.7-0.01,10.069c-0.04,1.641-0.11,4.92-0.15,6.57c-1.6-0.05-3.18-0.1-4.76-0.17c-5.3-0.689-10.65-0.77-15.96-0.54
	c-1.83-0.04-5.511-0.11-7.351-0.149l0.141-0.92c3.489,0.319,6.37-1.601,9.18-3.371C589.38,173.359,595.42,176.22,595.3,171.35z"/>
<path fill="#A0A2A0" d="M358.82,160.97c75.83,3.811,151.63,8.4,227.43,12.8c-2.81,1.771-5.69,3.69-9.18,3.371
	c-69.49-2.791-138.891-8.041-208.36-10.931c-2.16-0.54-4.33-1.04-6.52-1.39C361.04,163.561,359.93,162.26,358.82,160.97z"/>
<path fill="#141613" d="M151.38,164.37c8.87-3.94,16.85,3.16,25.51,3.89c9.44,0.271,16.18,7.061,24.36,10.6
	c5.86,3.4,12.57,6.811,15.8,13.11c10.09,16.95,27.75,28.96,34.35,48.03h-15.21c-1.2-13.41-13.88-25.5-27.64-25.439
	c-9.51,0.989-18.97-0.69-28.45,0.35c-5.27-0.44-4.18-7.07-5.57-10.53c-10.92-21.149-35.18-32.989-58.53-31.43
	c-10.04,0.63-20.93-2.11-30.2,2.96c-9.19,5.65-22.07,10.42-22.25,23.37c-5.66-7.351-2.63-18.261-8.41-25.431l-0.06-0.819
	c6.02,0.76,10.95-4.851,17.01-4.851C98.26,163.6,125.37,171.32,151.38,164.37z"/>
<path fill="#282A27" d="M340.9,164.13c2.63,0.21,5.26,0.44,7.89,0.8c3.55,6.26,12.13,6.18,18.08,8.211
	c29.66,4.35,59.77,3.579,89.59,6.329c38.21,1.29,76.33,5.15,114.55,5.5c9.58,0.21,18-5.189,27.28-6.069
	c-1.61,1.859-3.21,3.93-5.63,4.729c-18.42,7.15-38.44,3.7-57.63,3.08c-51.99-3.14-104.021-5.51-156-8.8
	C365.79,176.08,349.87,175.33,340.9,164.13z"/>
<path fill="#383A37" d="M348.79,164.93c1.63,0.101,3.27,0.18,4.91,0.311c9.58,5.34,21.09,5.82,31.76,7.18
	c48.14,2.4,96.25,5.561,144.41,7.84c17.95-0.26,37.36,5.771,54.41-2.05c5.31-0.229,10.66-0.149,15.96,0.54
	c-0.49,0.04-1.46,0.109-1.95,0.15c-9.28,0.88-17.7,6.279-27.28,6.069c-38.22-0.35-76.34-4.21-114.55-5.5
	c-29.82-2.75-59.93-1.979-89.59-6.329C360.92,171.109,352.34,171.189,348.79,164.93z"/>
<path fill="#494B49" d="M353.7,165.24c2.819-0.15,5.649-0.29,8.49-0.42c2.189,0.35,4.359,0.85,6.52,1.39
	c4.8,2.58,10.44,2.55,15.74,3.21c43.189,2.61,86.41,4.54,129.58,7.37c20.979,0.13,41.939,3.95,62.899,1.271
	c1.84,0.039,5.521,0.109,7.351,0.149c-17.05,7.82-36.46,1.79-54.41,2.05c-48.16-2.279-96.271-5.439-144.41-7.84
	C374.79,171.061,363.28,170.58,353.7,165.24z"/>
<path fill="#5B5D5A" d="M368.71,166.21c69.47,2.89,138.87,8.14,208.36,10.931l-0.141,0.92c-20.96,2.68-41.92-1.141-62.899-1.271
	c-43.17-2.83-86.391-4.76-129.58-7.37C379.15,168.76,373.51,168.79,368.71,166.21z"/>
<path fill="#10120F" d="M85.8,175.91c9.27-5.07,20.16-2.33,30.2-2.96c23.35-1.56,47.61,10.28,58.53,31.43
	c1.39,3.46,0.3,10.09,5.57,10.53c9.48-1.04,18.94,0.64,28.45-0.35c13.76-0.061,26.44,12.029,27.64,25.439H73.31
	c-4.6-22.48-16.41-43.061-18.17-66.15c5.78,7.17,2.75,18.08,8.41,25.431C63.73,186.33,76.61,181.561,85.8,175.91z"/>
<path fill="#A8AAA7" d="M412.62,211.141c6.12-2.16,12.5,1.529,18.59-0.771c7.45-2.8,15.09,1.5,17.22,8.8
	C438.71,208.52,422.25,220.7,412.62,211.141z"/>
<path fill="#7E7F7D" d="M380.75,221.21c9.98-5.08,20.91-7.99,31.87-10.069c9.63,9.56,26.09-2.621,35.81,8.029
	c0.351,0.86,0.57,1.75,0.681,2.689c-2.341,4.25-8.11,0.98-7.851-3.189c-3.83-0.72-7.779-1.67-11.71-1.25
	c-5.83,2.52-10.35-3.529-16.109-1.93c-9.11,4.43-19.54,4.31-29.23,6.88C383.04,222,381.89,221.609,380.75,221.21z"/>
<path fill="#535552" d="M611.02,224.03c14.601,2.189,25.65-8.681,38.98-12.011v1.761c-13.56,3.819-25.15,14.06-39.98,12.28
	c-14.8,0.18-29.689-0.811-43.89-5.211c-18.37-2.63-37,1.44-54.57,6.641c-17.71,0.24-35.77,2.09-53.35-0.74
	c-1.81-1.87-9.32,1.34-8.85-2.62c5.75,1.021,11.6,1.41,17.399,2.12c14.11,1.09,28.45,1.35,42.54,0.141
	c13.66-3.511,27.4-8.261,41.7-7.48C571.3,217.811,590.49,227.391,611.02,224.03z"/>
<path fill="#2E302E" d="M610.02,226.061c14.83,1.779,26.421-8.461,39.98-12.28v1.97c-8.81,2.91-16.78,8.07-25.64,10.66
	c-17.4,0.43-35.46,2.73-52.41-2.35c-21.15-6.19-42.49,0.83-63.04,5.76c-18.53,0.84-37.9,0.07-55.851-0.9
	c-4.54,3.63-10.92,1.721-16.329,1.85c6.989-2.109,14.17-3.649,21.479-4.02c17.58,2.83,35.64,0.98,53.35,0.74
	c17.57-5.2,36.2-9.271,54.57-6.641C580.33,225.25,595.22,226.24,610.02,226.061z"/>
<path fill="#393B38" d="M413.44,215.49c5.76-1.6,10.279,4.449,16.109,1.93c3.931-0.42,7.88,0.53,11.71,1.25
	c-0.26,4.17,5.51,7.439,7.851,3.189c0.06,0.561,0.189,1.701,0.25,2.271c-0.471,3.96,7.04,0.75,8.85,2.62
	c-7.31,0.37-14.49,1.91-21.479,4.02c-2.86,0.141-5.641,0.271-8.45,0.53c-8.19,1.38-15.66-3-20.54-9.149
	c-14.851,1.399-29.721,4.51-43.021,11.609c-13.859,2.68-28.399,0.83-42.479,1.061c-3.25-2.04,0.81-3.461,2.93-3.551
	c0.39-0.02,1.15-0.06,1.54-0.08c18.06,5.67,39.93-1.029,57.5-8.819C393.9,219.8,404.33,219.92,413.44,215.49 M414.96,222.061
	c-0.62,5.81,6.47,3.51,9.3,1.33c4.58,6.069,11.5,3.909,17.69,2.409c0.71-3.37-4.2-1.45-6.23-2.62
	C429.17,220.48,421.8,222.54,414.96,222.061z"/>
<path fill="#010301" d="M624.36,226.41c8.859-2.59,16.83-7.75,25.64-10.66V240H346.54c10.21-2.02,21,0.641,30.86-3.51
	c8.09-2.311,12.55-11.68,21.59-11.44c4.359-1.33,1.14,5.41,2.05,7.94c1.5,2.74,4.19,5.26,7.79,4.33
	c12.97,1.279,26.11,0.93,39.07-0.48c3.84-0.43,4.54-4.83,5.159-7.92c17.95,0.971,37.32,1.74,55.851,0.9
	c20.55-4.93,41.89-11.95,63.04-5.76C588.9,229.141,606.96,226.84,624.36,226.41z"/>
<path fill="#676966" d="M326.71,231.189c18.32-1.22,37.05-2.22,54.04-9.979c1.14,0.399,2.29,0.79,3.46,1.16
	C366.64,230.16,344.77,236.859,326.71,231.189z"/>
<path fill="#2A2B29" d="M364.72,233.76c13.3-7.1,28.17-10.21,43.021-11.609c4.88,6.149,12.35,10.529,20.54,9.149
	c-8.471,3.45-18.4,3.91-27.24,1.69c-0.91-2.53,2.31-9.271-2.05-7.94c-9.04-0.239-13.5,9.13-21.59,11.44
	c-9.86,4.15-20.65,1.49-30.86,3.51h-36.29c-0.97-2.71-1.98-5.4-3.09-8.05c6-0.04,12.01-0.41,18.01-0.681
	c-2.12,0.09-6.18,1.511-2.93,3.551C336.32,234.59,350.86,236.439,364.72,233.76z"/>
<path fill="#292A28" d="M414.96,222.061c6.84,0.479,14.21-1.58,20.76,1.119c2.03,1.17,6.94-0.75,6.23,2.62
	c-6.19,1.5-13.11,3.66-17.69-2.409C421.43,225.57,414.34,227.87,414.96,222.061z"/>
<path fill="#282A27" d="M466.76,226.25c14.181-0.33,28.37-0.5,42.54,0.141C495.21,227.6,480.87,227.34,466.76,226.25z"/>
<path fill="#1C1E1B" d="M436.73,230.77c5.409-0.129,11.789,1.78,16.329-1.85c-0.619,3.09-1.319,7.49-5.159,7.92
	c-12.96,1.41-26.101,1.76-39.07,0.48c-3.6,0.93-6.29-1.59-7.79-4.33c8.84,2.22,18.77,1.76,27.24-1.69
	C431.09,231.04,433.87,230.91,436.73,230.77z"/>
</svg>
