<?xml version="1.0" encoding="UTF-8" ?>
<!DOCTYPE svg PUBLIC "-//W3C//DTD SVG 1.1//EN" "http://www.w3.org/Graphics/SVG/1.1/DTD/svg11.dtd">
<svg width="638pt" height="800pt" viewBox="0 0 638 800" version="1.1" xmlns="http://www.w3.org/2000/svg">
<path fill="#000000" opacity="1.00" d=" M 263.02 8.48 C 272.01 7.43 280.88 5.02 289.99 5.36 C 305.34 5.42 320.69 5.39 336.04 5.38 C 341.41 5.30 346.70 6.38 352.07 6.40 C 358.76 6.45 365.26 8.34 371.57 10.41 C 381.58 13.52 392.06 15.60 401.35 20.64 C 406.86 23.78 413.11 25.28 418.65 28.37 C 423.77 31.25 429.35 33.35 434.00 37.02 C 438.47 40.47 443.69 42.69 448.52 45.54 C 453.27 48.31 456.46 52.97 460.97 56.06 C 464.71 58.57 467.93 61.73 470.90 65.10 C 474.03 68.66 478.17 71.12 481.44 74.54 C 489.61 83.40 496.37 93.52 501.71 104.32 C 504.43 109.82 508.26 114.82 509.91 120.82 C 512.04 129.10 515.57 136.96 517.42 145.33 C 519.01 152.75 522.42 159.65 523.77 167.13 C 525.52 177.11 526.01 187.35 528.94 197.09 C 530.40 202.77 532.73 208.21 533.55 214.05 C 534.36 219.86 537.11 225.14 538.25 230.86 C 539.10 235.02 540.51 239.02 541.83 243.04 C 545.27 254.37 544.61 266.32 544.61 278.00 C 545.01 293.84 542.88 309.58 542.21 325.39 C 538.77 345.43 542.13 365.84 539.74 385.96 C 539.73 395.47 538.60 404.95 536.09 414.12 C 532.84 431.98 523.52 447.87 514.00 463.03 C 509.06 469.98 502.76 475.77 496.51 481.51 C 492.04 485.46 486.75 488.33 482.16 492.12 C 473.75 499.05 464.59 505.16 454.64 509.64 C 448.51 512.58 443.46 517.35 437.25 520.15 C 432.39 522.31 427.45 524.29 422.72 526.75 C 415.00 530.43 407.48 535.14 398.89 536.46 C 389.61 536.89 380.30 536.45 371.01 536.63 C 363.30 536.97 355.69 535.18 347.98 535.63 C 342.88 535.99 337.96 534.58 332.98 533.80 C 324.15 533.01 316.04 528.75 307.14 528.39 C 295.10 527.37 283.65 523.31 271.76 521.56 C 271.31 529.05 272.41 536.50 272.35 543.99 C 272.37 551.07 272.69 558.16 272.36 565.23 C 268.32 565.25 264.28 565.25 260.25 565.25 C 260.09 552.48 259.31 539.71 259.51 526.93 C 260.09 523.00 256.68 520.37 253.90 518.29 C 247.05 515.30 239.76 513.53 232.61 511.43 C 227.60 509.98 223.54 506.63 219.53 503.46 C 215.14 499.84 209.43 498.76 204.28 496.67 C 197.46 493.89 190.92 490.37 184.96 486.02 C 179.46 482.63 173.23 480.63 167.66 477.36 C 154.55 470.89 143.50 460.91 134.35 449.62 C 130.15 444.31 127.68 437.86 123.34 432.63 C 120.56 429.25 118.48 425.39 116.44 421.54 C 112.41 414.67 108.32 407.82 103.51 401.46 C 99.08 395.76 95.17 389.58 92.31 382.94 C 89.79 373.51 84.89 364.99 80.98 356.11 C 77.69 348.40 77.83 339.86 76.63 331.69 C 75.74 325.78 77.27 319.93 77.39 314.03 C 77.38 262.68 77.37 211.32 77.39 159.97 C 77.24 156.20 80.35 153.53 81.36 150.10 C 82.54 146.51 83.80 142.94 85.64 139.63 C 89.35 133.19 92.14 126.29 95.80 119.83 C 99.17 112.13 104.15 105.30 107.78 97.74 C 111.16 90.83 112.25 82.96 116.41 76.41 C 121.96 65.82 131.10 57.43 141.23 51.27 C 146.56 47.92 152.69 46.21 158.20 43.21 C 163.20 40.50 168.89 39.50 173.97 36.95 C 178.69 34.60 183.40 32.18 188.43 30.53 C 200.89 27.47 213.32 23.75 224.75 17.81 C 231.42 14.78 238.31 11.99 245.62 10.96 C 251.44 10.31 257.25 9.51 263.02 8.48 M 255.86 23.22 C 240.73 22.73 227.98 31.88 214.30 36.82 C 208.24 37.91 202.62 40.62 196.65 42.06 C 189.55 42.73 183.81 47.44 177.24 49.76 C 172.90 51.95 168.08 52.95 163.82 55.30 C 157.26 58.40 150.02 60.37 144.36 65.10 C 141.39 65.83 139.36 68.24 137.18 70.19 C 133.92 73.36 130.14 76.55 129.08 81.20 L 128.71 81.74 C 127.38 82.72 126.13 83.88 125.55 85.47 C 123.29 90.89 121.58 96.56 120.28 102.29 C 117.29 107.54 114.78 113.04 111.44 118.10 C 109.38 120.99 108.35 124.40 106.81 127.56 C 103.53 130.15 102.72 134.40 100.89 137.93 C 98.35 142.96 94.59 147.56 93.74 153.29 C 93.16 157.40 92.36 161.47 91.24 165.47 C 91.02 165.85 90.57 166.60 90.35 166.97 C 90.14 222.35 90.40 277.74 90.22 333.12 C 89.92 337.15 91.47 340.98 91.33 345.00 C 91.84 351.14 96.41 355.79 97.92 361.63 C 98.92 365.37 101.71 368.30 102.74 372.03 C 103.30 378.39 106.19 384.62 110.76 389.09 C 113.73 392.61 115.95 396.68 118.79 400.29 C 121.43 403.98 123.27 408.20 126.22 411.68 C 127.77 417.44 131.09 422.49 134.87 427.04 C 139.19 432.47 141.44 439.51 146.76 444.11 C 149.02 446.30 151.24 448.54 153.50 450.73 C 152.11 452.26 154.76 454.99 156.30 453.57 C 156.69 453.96 157.47 454.75 157.86 455.15 C 156.42 456.87 159.98 459.43 161.34 457.74 L 161.79 458.16 C 164.81 462.03 169.48 463.91 173.58 466.37 C 179.83 470.11 186.74 472.52 193.22 475.81 L 193.78 476.23 C 196.07 479.54 200.14 480.66 203.48 482.58 C 208.37 485.29 213.75 486.86 218.98 488.77 C 222.38 489.93 225.19 492.23 228.40 493.78 L 228.97 494.26 C 234.82 501.26 244.71 500.93 252.49 504.38 C 262.46 507.13 272.67 509.01 282.83 510.95 C 295.50 514.25 308.44 516.59 321.49 517.58 C 325.96 518.80 330.27 521.12 335.02 520.73 C 338.17 520.44 340.95 522.22 343.99 522.67 C 351.01 523.11 358.18 521.89 365.07 523.68 C 375.65 523.76 386.23 523.78 396.81 523.66 C 407.89 521.16 417.00 513.79 427.60 510.01 C 433.41 507.84 438.46 504.17 443.56 500.73 C 448.39 497.21 454.41 495.86 459.24 492.32 C 461.98 490.33 465.11 488.94 467.73 486.79 C 470.97 485.26 473.99 483.09 476.04 480.10 L 476.58 479.69 C 485.29 474.83 493.86 468.70 499.42 460.26 C 501.23 457.99 503.14 455.78 504.60 453.26 C 507.25 447.94 511.24 443.41 513.32 437.78 C 517.52 430.40 520.65 422.43 522.67 414.19 C 523.48 408.39 526.12 402.94 525.89 396.99 C 527.74 390.42 525.69 383.48 527.64 376.93 C 527.91 362.62 527.53 348.29 527.82 333.98 C 528.91 330.03 528.43 325.89 529.51 321.95 C 530.16 317.84 529.22 313.63 530.05 309.55 C 531.69 303.73 529.69 297.54 531.57 291.76 C 531.95 284.85 531.61 277.92 531.72 271.00 C 531.59 266.18 532.22 261.27 530.98 256.56 C 530.61 248.45 526.85 241.05 525.38 233.14 C 524.44 227.86 521.54 223.15 520.83 217.83 C 520.70 212.21 517.33 207.35 516.67 201.82 C 516.12 197.75 513.54 194.13 513.73 189.95 C 513.93 184.86 511.63 180.06 511.72 174.99 C 511.76 171.20 510.33 167.62 509.50 163.98 C 506.17 155.78 504.56 147.03 501.92 138.61 C 500.13 133.64 498.50 128.61 496.77 123.63 C 495.05 118.45 491.54 114.16 489.46 109.15 C 489.51 107.62 488.92 106.20 488.07 104.95 C 485.59 101.12 483.67 96.80 480.17 93.74 C 476.34 88.70 472.64 83.35 467.30 79.77 C 463.24 76.43 459.85 72.35 456.02 68.76 C 453.91 66.51 451.64 64.20 448.62 63.27 C 447.57 62.33 446.61 61.30 445.57 60.37 C 446.20 58.60 445.60 57.87 443.77 58.18 L 443.26 57.70 C 440.42 55.06 436.90 53.37 433.53 51.52 C 428.86 49.02 424.84 45.44 420.03 43.18 C 413.39 39.94 407.00 35.73 399.60 34.47 C 396.21 32.92 393.11 30.77 389.58 29.53 C 381.47 26.34 372.78 25.00 364.68 21.77 C 361.12 20.97 357.58 20.04 354.01 19.33 C 348.97 19.13 343.85 19.73 338.93 18.32 C 320.98 18.25 303.02 18.21 285.07 18.35 C 275.35 20.13 265.48 21.01 255.86 23.22 Z" />
<path fill="#ffffff" opacity="1.00" d=" M 255.86 23.22 C 265.48 21.01 275.35 20.13 285.07 18.35 C 303.02 18.21 320.98 18.25 338.93 18.32 C 343.85 19.73 348.97 19.13 354.01 19.33 C 357.58 20.04 361.12 20.97 364.68 21.77 C 372.78 25.00 381.47 26.34 389.58 29.53 C 393.11 30.77 396.21 32.92 399.60 34.47 C 405.63 37.32 412.17 39.03 417.74 42.84 C 424.05 45.08 428.74 50.06 434.68 52.99 C 437.59 54.47 440.53 55.91 443.26 57.70 L 443.77 58.18 C 444.15 59.09 444.75 59.82 445.57 60.37 C 446.61 61.30 447.57 62.33 448.62 63.27 C 450.89 65.35 453.60 66.87 456.02 68.76 C 459.85 72.35 463.24 76.43 467.30 79.77 C 472.64 83.35 476.34 88.70 480.17 93.74 C 483.73 98.58 486.52 103.92 489.46 109.15 C 491.54 114.16 495.05 118.45 496.77 123.63 C 498.50 128.61 500.13 133.64 501.92 138.61 C 504.56 147.03 506.17 155.78 509.50 163.98 C 510.33 167.62 511.76 171.20 511.72 174.99 C 511.63 180.06 513.93 184.86 513.73 189.95 C 513.54 194.13 516.12 197.75 516.67 201.82 C 517.33 207.35 520.70 212.21 520.83 217.83 C 521.54 223.15 524.44 227.86 525.38 233.14 C 526.85 241.05 530.61 248.45 530.98 256.56 C 532.22 261.27 531.59 266.18 531.72 271.00 C 531.61 277.92 531.95 284.85 531.57 291.76 C 529.69 297.54 531.69 303.73 530.05 309.55 C 529.22 313.63 530.16 317.84 529.51 321.95 C 528.43 325.89 528.91 330.03 527.82 333.98 C 527.53 348.29 527.91 362.62 527.64 376.93 C 525.69 383.48 527.74 390.42 525.89 396.99 C 526.12 402.94 523.48 408.39 522.67 414.19 C 520.65 422.43 517.52 430.40 513.32 437.78 C 511.24 443.41 507.25 447.94 504.60 453.26 C 503.14 455.78 501.23 457.99 499.42 460.26 C 498.24 461.78 497.04 463.31 495.48 464.45 C 491.16 467.54 488.12 472.16 483.49 474.84 C 481.05 476.25 478.76 477.90 476.58 479.69 L 476.04 480.10 C 473.09 482.11 470.60 484.69 467.73 486.79 C 465.11 488.94 461.98 490.33 459.24 492.32 C 454.41 495.86 448.39 497.21 443.56 500.73 C 438.46 504.17 433.41 507.84 427.60 510.01 C 417.00 513.79 407.89 521.16 396.81 523.66 C 386.23 523.78 375.65 523.76 365.07 523.68 C 358.18 521.89 351.01 523.11 343.99 522.67 C 340.95 522.22 338.17 520.44 335.02 520.73 C 330.27 521.12 325.96 518.80 321.49 517.58 C 314.96 515.41 307.97 515.98 301.34 514.29 C 293.21 513.38 285.54 510.30 277.45 509.22 C 269.59 508.14 262.03 505.64 254.22 504.34 C 246.00 500.55 236.03 500.58 228.97 494.26 L 228.40 493.78 C 224.64 490.20 219.83 488.07 214.93 486.53 C 207.40 484.21 200.34 480.55 193.78 476.23 L 193.22 475.81 C 183.14 469.29 171.06 466.03 161.79 458.16 L 161.34 457.74 C 160.37 456.64 159.07 455.93 157.86 455.15 C 157.47 454.75 156.69 453.96 156.30 453.57 C 155.45 452.53 154.51 451.59 153.50 450.73 C 151.24 448.54 149.02 446.30 146.76 444.11 C 141.33 437.64 138.22 429.56 132.74 423.09 C 129.66 419.82 128.53 415.40 126.22 411.68 C 123.27 408.20 121.43 403.98 118.79 400.29 C 115.95 396.68 113.73 392.61 110.76 389.09 C 107.14 383.91 104.29 378.17 102.74 372.03 C 101.71 368.30 98.92 365.37 97.92 361.63 C 96.41 355.79 91.84 351.14 91.33 345.00 C 91.47 340.98 89.92 337.15 90.22 333.12 C 90.40 277.74 90.14 222.35 90.35 166.97 C 90.57 166.60 91.02 165.85 91.24 165.47 C 94.11 161.34 93.66 156.04 94.64 151.31 C 95.81 148.19 97.48 145.28 99.22 142.44 C 102.23 137.72 103.74 132.25 106.81 127.56 C 108.35 124.40 109.38 120.99 111.44 118.10 C 114.78 113.04 117.29 107.54 120.28 102.29 C 123.86 95.78 123.83 87.66 128.71 81.74 L 129.08 81.20 C 132.46 74.43 138.19 69.32 144.36 65.10 C 150.02 60.37 157.26 58.40 163.82 55.30 C 168.08 52.95 172.90 51.95 177.24 49.76 C 183.81 47.44 189.55 42.73 196.65 42.06 C 202.62 40.62 208.24 37.91 214.30 36.82 C 227.98 31.88 240.73 22.73 255.86 23.22 M 390.24 101.05 C 388.00 103.16 385.77 105.30 383.78 107.65 C 379.95 111.85 375.65 118.13 378.96 123.83 C 379.27 124.14 379.87 124.77 380.18 125.08 C 382.98 126.65 386.12 126.45 388.97 125.12 C 391.76 119.03 395.95 113.52 401.85 110.15 C 405.45 111.85 409.91 112.19 412.63 115.38 C 415.60 118.53 419.73 120.21 422.75 123.32 C 427.00 126.00 431.72 128.59 436.90 128.39 C 440.91 129.31 445.03 129.53 449.14 129.21 C 452.36 128.49 454.86 125.44 455.05 122.17 C 454.62 119.85 453.13 117.88 451.19 116.59 C 447.85 114.87 443.92 116.38 440.45 115.03 C 437.10 114.92 433.91 114.15 431.06 112.32 C 430.30 111.64 429.52 111.00 428.72 110.40 C 426.34 108.38 423.52 106.92 421.38 104.63 C 417.48 100.70 411.89 99.42 406.86 97.60 C 404.04 96.34 400.92 96.75 397.93 96.71 C 394.72 96.41 392.18 98.79 390.24 101.05 M 196.87 157.89 C 193.83 161.14 190.09 163.69 187.30 167.18 L 186.92 167.76 C 185.71 169.08 184.86 170.78 183.31 171.75 C 178.26 171.79 173.20 171.65 168.15 171.74 C 160.27 173.60 152.07 172.36 144.04 172.74 C 137.96 173.99 131.27 173.43 125.96 177.24 C 122.76 179.71 121.80 184.38 123.27 188.05 C 124.47 191.66 129.42 193.60 132.64 191.41 C 134.39 190.56 135.32 188.68 137.07 187.79 C 139.12 186.98 141.52 187.70 143.45 186.56 C 150.93 185.87 158.45 186.59 165.93 186.16 C 171.83 184.52 178.00 185.54 184.03 185.30 C 188.78 185.69 193.07 182.45 195.64 178.71 C 198.63 174.68 202.62 171.56 206.27 168.17 C 208.84 165.37 213.44 166.90 215.91 163.94 C 218.85 161.39 218.20 156.93 215.86 154.22 C 209.74 150.59 201.83 153.52 196.87 157.89 M 434.54 163.05 C 430.20 165.06 424.88 167.33 423.81 172.56 C 423.39 177.88 423.29 184.31 428.03 187.85 C 430.92 190.96 435.30 190.20 439.10 190.32 C 442.68 192.29 445.93 194.98 449.89 196.21 C 454.16 196.47 458.65 196.67 462.44 194.33 L 463.07 193.90 C 464.44 192.40 465.61 190.69 466.29 188.75 C 466.64 186.50 465.11 184.59 464.13 182.71 C 461.91 180.10 458.36 179.51 455.10 179.54 C 451.08 177.10 453.29 171.99 451.05 168.61 C 449.58 165.84 446.34 164.95 443.65 163.83 C 440.80 162.64 437.52 162.25 434.54 163.05 M 175.24 192.52 C 170.61 194.37 165.13 194.72 161.48 198.47 C 157.52 202.06 158.49 207.92 158.66 212.69 C 160.75 217.92 157.71 224.63 161.96 228.99 C 165.08 230.11 168.24 231.14 171.30 232.42 C 179.24 233.33 186.50 228.62 191.92 223.28 C 192.47 225.35 192.98 227.44 193.73 229.46 C 195.65 232.69 200.11 234.85 203.59 232.78 C 206.23 231.74 207.74 228.76 207.50 226.01 C 207.40 218.76 207.59 211.49 207.41 204.24 C 206.90 202.45 206.75 200.11 204.97 199.09 C 201.65 197.11 197.94 195.36 193.99 195.48 C 191.03 195.52 189.75 191.73 186.78 191.57 C 182.93 191.58 178.88 190.93 175.24 192.52 M 450.17 255.08 C 443.96 255.82 438.09 258.05 432.11 259.75 C 427.89 261.07 423.37 259.74 419.15 261.03 C 413.25 262.71 407.14 263.51 401.19 265.01 C 397.88 266.02 394.65 267.37 391.19 267.79 C 385.07 268.68 379.17 270.81 373.01 271.38 C 360.36 271.44 347.70 271.36 335.06 271.40 C 333.23 271.36 331.38 271.67 329.86 272.75 C 324.70 275.99 319.70 279.56 314.09 281.99 C 309.13 283.86 303.95 285.06 298.95 286.84 C 291.49 289.79 283.30 289.83 275.69 292.28 C 269.43 293.23 263.39 295.58 257.00 295.50 C 248.30 296.41 239.86 299.11 231.13 299.73 C 217.03 303.23 202.46 303.69 188.00 303.40 C 182.30 303.65 176.35 302.59 170.89 304.69 C 164.18 307.22 156.96 306.12 149.98 306.64 C 147.24 307.20 145.07 310.14 145.48 312.98 C 146.28 319.02 150.53 323.78 152.26 329.47 C 152.65 340.32 152.18 351.19 152.46 362.04 C 152.32 365.23 154.88 367.84 154.59 371.03 C 154.75 372.53 154.18 374.35 155.24 375.62 C 156.43 377.62 159.00 377.94 160.56 379.49 C 162.85 383.14 165.13 386.81 167.63 390.34 C 171.23 394.43 175.84 397.47 179.50 401.50 C 185.22 408.44 191.42 415.09 198.81 420.28 C 201.80 422.38 204.21 425.49 207.90 426.42 C 211.04 427.59 214.41 427.54 217.71 427.82 C 221.97 428.52 226.18 429.55 230.34 430.74 C 233.88 431.89 237.84 431.30 241.24 432.99 C 244.43 434.55 247.24 437.28 250.95 437.47 C 254.99 437.73 259.08 437.31 263.04 438.34 C 270.00 438.95 277.02 438.44 284.00 438.61 C 289.17 438.79 294.50 437.94 299.50 439.67 C 308.52 441.75 317.68 443.38 326.26 446.99 C 332.73 448.26 339.44 447.31 346.00 447.61 C 372.33 447.61 398.66 447.60 424.99 447.61 C 432.56 448.06 439.18 443.34 444.68 438.69 C 448.78 434.21 454.99 433.13 460.03 430.11 C 463.95 427.75 468.47 426.09 471.40 422.40 C 476.11 416.43 480.00 409.82 482.89 402.79 C 485.38 398.27 488.12 393.90 490.35 389.24 C 493.91 384.58 495.82 378.95 499.45 374.34 C 501.57 370.10 503.11 365.53 506.29 361.89 C 506.62 356.73 507.54 351.64 507.99 346.49 C 509.79 340.47 509.49 334.16 510.56 328.03 C 510.69 305.01 510.56 282.00 510.62 258.98 C 511.34 249.12 501.46 240.81 492.01 241.38 C 482.34 241.54 472.65 241.09 463.00 241.62 C 457.26 244.16 452.57 249.25 450.17 255.08 Z" />
<path fill="#000000" opacity="1.00" d=" M 390.24 101.05 C 396.15 95.29 405.06 97.31 411.93 100.01 C 418.45 101.84 422.95 107.18 428.72 110.40 C 429.52 111.00 430.30 111.64 431.06 112.32 C 436.60 116.93 444.44 116.10 451.19 116.59 C 453.13 117.88 454.62 119.85 455.05 122.17 C 454.86 125.44 452.36 128.49 449.14 129.21 C 445.03 129.53 440.91 129.31 436.90 128.39 C 431.72 128.59 427.00 126.00 422.75 123.32 C 419.73 120.21 415.60 118.53 412.63 115.38 C 409.91 112.19 405.45 111.85 401.85 110.15 C 395.95 113.52 391.76 119.03 388.97 125.12 C 386.04 125.32 383.10 125.42 380.18 125.08 C 379.87 124.77 379.27 124.14 378.96 123.83 C 377.17 117.81 380.51 112.39 383.78 107.65 C 385.77 105.30 388.00 103.16 390.24 101.05 Z" />
<path fill="#000000" opacity="1.00" d=" M 187.30 167.18 C 193.19 162.75 197.67 156.00 205.10 154.00 C 208.32 153.21 212.25 152.63 215.05 154.85 C 217.74 156.87 217.81 161.19 215.60 163.58 C 212.65 165.63 208.63 165.44 205.81 167.76 C 202.01 170.99 198.37 174.51 195.64 178.71 C 193.07 182.45 188.78 185.69 184.03 185.30 C 178.00 185.54 171.83 184.52 165.93 186.16 C 158.45 186.59 150.93 185.87 143.45 186.56 C 141.60 186.59 139.75 186.54 137.91 186.75 C 134.35 187.67 132.26 192.43 128.14 191.39 C 123.31 190.21 122.48 184.20 124.22 180.25 C 125.16 177.85 127.70 176.70 129.97 175.88 C 142.64 171.94 156.04 174.49 168.97 172.58 C 173.98 172.05 179.10 173.00 184.06 172.00 C 185.25 170.77 186.03 169.21 186.92 167.76 L 187.30 167.18 Z" />
<path fill="#000000" opacity="1.00" d=" M 429.89 165.97 C 435.30 161.71 443.01 163.33 448.45 166.66 C 452.09 169.49 451.43 174.63 452.48 178.66 C 455.86 181.42 461.61 179.69 464.12 183.88 C 466.76 186.95 464.71 190.91 463.07 193.90 L 462.44 194.33 C 458.39 195.30 454.17 196.05 450.02 195.33 C 446.74 194.60 444.07 192.43 441.16 190.88 C 437.05 188.50 431.40 190.72 427.85 187.09 C 422.65 181.27 422.87 170.36 429.89 165.97 Z" />
<path fill="#000000" opacity="1.00" d=" M 175.24 192.52 C 178.88 190.93 182.93 191.58 186.78 191.57 C 189.75 191.73 191.03 195.52 193.99 195.48 C 197.94 195.36 201.65 197.11 204.97 199.09 C 206.75 200.11 206.90 202.45 207.41 204.24 C 207.59 211.49 207.40 218.76 207.50 226.01 C 207.74 228.76 206.23 231.74 203.59 232.78 C 200.11 234.85 195.65 232.69 193.73 229.46 C 192.98 227.44 192.47 225.35 191.92 223.28 C 186.50 228.62 179.24 233.33 171.30 232.42 C 168.24 231.14 165.08 230.11 161.96 228.99 C 157.71 224.63 160.75 217.92 158.66 212.69 C 158.49 207.92 157.52 202.06 161.48 198.47 C 165.13 194.72 170.61 194.37 175.24 192.52 Z" />
<path fill="#000000" opacity="1.00" d=" M 450.17 255.08 C 452.57 249.25 457.26 244.16 463.00 241.62 C 472.65 241.09 482.34 241.54 492.01 241.38 C 501.46 240.81 511.34 249.12 510.62 258.98 C 510.56 282.00 510.69 305.01 510.56 328.03 C 509.49 334.16 509.79 340.47 507.99 346.49 C 507.54 351.64 506.62 356.73 506.29 361.89 C 503.11 365.53 501.57 370.10 499.45 374.34 C 495.82 378.95 493.91 384.58 490.35 389.24 C 488.12 393.90 485.38 398.27 482.89 402.79 C 480.00 409.82 476.11 416.43 471.40 422.40 C 468.47 426.09 463.95 427.75 460.03 430.11 C 454.99 433.13 448.78 434.21 444.68 438.69 C 439.18 443.34 432.56 448.06 424.99 447.61 C 398.66 447.60 372.33 447.61 346.00 447.61 C 339.44 447.31 332.73 448.26 326.26 446.99 C 317.68 443.38 308.52 441.75 299.50 439.67 C 294.50 437.94 289.17 438.79 284.00 438.61 C 277.02 438.44 270.00 438.95 263.04 438.34 C 259.08 437.31 254.99 437.73 250.95 437.47 C 247.24 437.28 244.43 434.55 241.24 432.99 C 237.84 431.30 233.88 431.89 230.34 430.74 C 226.18 429.55 221.97 428.52 217.71 427.82 C 214.41 427.54 211.04 427.59 207.90 426.42 C 204.21 425.49 201.80 422.38 198.81 420.28 C 191.42 415.09 185.22 408.44 179.50 401.50 C 175.84 397.47 171.23 394.43 167.63 390.34 C 165.13 386.81 162.85 383.14 160.56 379.49 C 159.00 377.94 156.43 377.62 155.24 375.62 C 154.18 374.35 154.75 372.53 154.59 371.03 C 154.88 367.84 152.32 365.23 152.46 362.04 C 152.18 351.19 152.65 340.32 152.26 329.47 C 150.53 323.78 146.28 319.02 145.48 312.98 C 145.07 310.14 147.24 307.20 149.98 306.64 C 156.96 306.12 164.18 307.22 170.89 304.69 C 176.35 302.59 182.30 303.65 188.00 303.40 C 202.46 303.69 217.03 303.23 231.13 299.73 C 239.86 299.11 248.30 296.41 257.00 295.50 C 263.39 295.58 269.43 293.23 275.69 292.28 C 283.30 289.83 291.49 289.79 298.95 286.84 C 303.95 285.06 309.13 283.86 314.09 281.99 C 319.70 279.56 324.70 275.99 329.86 272.75 C 331.38 271.67 333.23 271.36 335.06 271.40 C 347.70 271.36 360.36 271.44 373.01 271.38 C 379.17 270.81 385.07 268.68 391.19 267.79 C 394.65 267.37 397.88 266.02 401.19 265.01 C 407.14 263.51 413.25 262.71 419.15 261.03 C 423.37 259.74 427.89 261.07 432.11 259.75 C 438.09 258.05 443.96 255.82 450.17 255.08 M 461.55 260.44 C 459.72 264.23 456.02 267.07 451.79 267.47 C 445.28 268.04 439.44 271.30 433.03 272.29 C 429.37 272.98 425.55 272.11 421.95 273.17 C 417.66 274.45 413.20 275.00 408.87 276.14 C 403.48 276.78 398.67 279.62 393.24 280.07 C 386.42 280.90 379.95 283.96 372.99 283.62 C 361.35 283.61 349.70 283.59 338.05 283.61 C 336.07 283.49 334.37 284.66 332.78 285.67 C 327.31 289.71 321.26 293.15 314.66 294.95 C 310.65 296.13 306.64 297.34 302.70 298.77 C 296.69 301.17 290.15 301.65 283.88 303.08 C 277.67 304.84 271.25 305.70 265.01 307.37 C 256.19 307.59 247.60 309.80 238.96 311.38 C 231.55 311.72 224.50 314.56 217.05 314.66 C 203.98 316.67 190.68 314.92 177.54 315.82 C 173.08 318.85 167.54 318.60 162.82 320.97 C 165.73 328.67 164.27 336.97 164.61 345.00 C 164.87 350.95 163.97 357.00 165.26 362.87 C 173.15 358.99 181.87 357.01 189.45 352.48 C 194.21 349.97 199.68 349.72 204.85 348.59 C 209.60 347.63 214.10 345.60 218.97 345.24 C 223.42 344.75 227.45 342.25 231.99 342.41 C 256.65 342.40 281.32 342.36 305.98 342.43 C 315.53 343.23 324.80 345.87 334.07 348.16 C 340.45 348.75 346.99 348.55 353.22 346.93 C 358.50 345.45 363.30 341.97 369.01 342.38 C 377.28 341.58 384.72 346.56 392.96 346.41 C 397.11 346.13 400.79 348.72 404.94 348.41 C 415.96 348.38 426.98 348.40 438.00 348.39 C 443.81 348.20 449.31 350.39 454.99 351.30 C 462.98 351.83 471.10 350.58 479.01 352.23 C 484.08 352.36 489.02 353.73 494.12 353.42 C 494.59 351.97 495.30 350.55 495.33 349.00 C 495.40 342.95 497.81 337.20 497.53 331.10 C 498.82 325.15 498.30 319.05 498.39 313.00 C 498.38 295.31 498.40 277.62 498.39 259.93 C 498.91 256.38 495.25 253.74 492.05 253.64 C 484.35 253.56 476.65 253.61 468.95 253.62 C 464.96 253.32 463.12 257.51 461.55 260.44 M 219.98 357.65 C 213.59 359.08 207.32 361.09 200.80 361.95 C 195.09 362.73 190.55 366.57 185.21 368.39 C 180.82 370.00 176.40 371.57 172.12 373.47 C 173.15 377.27 176.03 380.27 178.38 383.33 C 178.45 383.40 178.59 383.54 178.66 383.61 C 181.65 386.54 185.02 389.05 187.92 392.07 C 194.40 399.57 201.12 407.00 209.36 412.62 C 212.89 416.21 218.23 414.98 222.66 416.06 C 228.49 417.03 234.05 419.32 239.98 419.68 C 244.19 420.05 247.96 422.02 251.37 424.40 C 251.47 424.45 251.65 424.54 251.75 424.59 C 256.29 426.30 261.39 424.67 266.06 426.16 C 276.93 426.86 287.89 425.92 298.76 426.63 C 307.05 429.00 315.73 429.89 323.81 432.98 C 327.14 433.98 330.40 435.59 333.97 435.41 C 363.99 435.38 394.02 435.40 424.04 435.40 C 428.58 435.57 432.46 432.59 435.82 429.87 C 442.93 421.77 454.99 421.12 462.48 413.52 C 465.48 409.15 468.62 404.76 470.56 399.79 C 472.89 393.99 476.93 389.09 479.21 383.26 C 483.33 377.74 485.91 371.33 489.93 365.73 C 485.33 365.57 480.82 364.54 476.23 364.40 C 469.58 362.98 462.74 363.82 456.00 363.62 C 449.19 363.85 442.87 360.36 436.06 360.60 C 424.36 360.60 412.67 360.62 400.97 360.60 C 397.49 360.75 394.46 358.46 390.99 358.62 C 384.79 358.53 378.85 356.53 372.96 354.81 C 367.22 353.55 362.31 357.52 357.03 358.98 C 348.53 361.05 339.64 360.89 330.97 360.29 C 322.10 357.91 313.16 355.54 304.00 354.64 C 280.99 354.56 257.99 354.64 234.98 354.60 C 229.79 354.47 225.13 357.30 219.98 357.65 Z" />
<path fill="#ffffff" opacity="1.00" d=" M 461.55 260.44 C 463.12 257.51 464.96 253.32 468.95 253.62 C 476.65 253.61 484.35 253.56 492.05 253.64 C 495.25 253.74 498.91 256.38 498.39 259.93 C 498.40 277.62 498.38 295.31 498.39 313.00 C 498.30 319.05 498.82 325.15 497.53 331.10 C 497.81 337.20 495.40 342.95 495.33 349.00 C 495.30 350.55 494.59 351.97 494.12 353.42 C 489.02 353.73 484.08 352.36 479.01 352.23 C 471.10 350.58 462.98 351.83 454.99 351.30 C 449.31 350.39 443.81 348.20 438.00 348.39 C 426.98 348.40 415.96 348.38 404.94 348.41 C 400.79 348.72 397.11 346.13 392.96 346.41 C 384.72 346.56 377.28 341.58 369.01 342.38 C 363.30 341.97 358.50 345.45 353.22 346.93 C 346.99 348.55 340.45 348.75 334.07 348.16 C 324.80 345.87 315.53 343.23 305.98 342.43 C 281.32 342.36 256.65 342.40 231.99 342.41 C 227.45 342.25 223.42 344.75 218.97 345.24 C 214.10 345.60 209.60 347.63 204.85 348.59 C 199.68 349.72 194.21 349.97 189.45 352.48 C 181.87 357.01 173.15 358.99 165.26 362.87 C 163.97 357.00 164.87 350.95 164.61 345.00 C 164.27 336.97 165.73 328.67 162.82 320.97 C 167.54 318.60 173.08 318.85 177.54 315.82 C 190.68 314.92 203.98 316.67 217.05 314.66 C 224.50 314.56 231.55 311.72 238.96 311.38 C 247.60 309.80 256.19 307.59 265.01 307.37 C 271.25 305.70 277.67 304.84 283.88 303.08 C 290.15 301.65 296.69 301.17 302.70 298.77 C 306.64 297.34 310.65 296.13 314.66 294.95 C 321.26 293.15 327.31 289.71 332.78 285.67 C 334.37 284.66 336.07 283.49 338.05 283.61 C 349.70 283.59 361.35 283.61 372.99 283.62 C 379.95 283.96 386.42 280.90 393.24 280.07 C 398.67 279.62 403.48 276.78 408.87 276.14 C 413.20 275.00 417.66 274.45 421.95 273.17 C 425.55 272.11 429.37 272.98 433.03 272.29 C 439.44 271.30 445.28 268.04 451.79 267.47 C 456.02 267.07 459.72 264.23 461.55 260.44 Z" />
<path fill="#ffffff" opacity="1.00" d=" M 219.98 357.65 C 225.13 357.30 229.79 354.47 234.98 354.60 C 257.99 354.64 280.99 354.56 304.00 354.64 C 313.16 355.54 322.10 357.91 330.97 360.29 C 339.64 360.89 348.53 361.05 357.03 358.98 C 362.31 357.52 367.22 353.55 372.96 354.81 C 378.85 356.53 384.79 358.53 390.99 358.62 C 394.46 358.46 397.49 360.75 400.97 360.60 C 412.67 360.62 424.36 360.60 436.06 360.60 C 442.87 360.36 449.19 363.85 456.00 363.62 C 462.74 363.82 469.58 362.98 476.23 364.40 C 480.82 364.54 485.33 365.57 489.93 365.73 C 485.91 371.33 483.33 377.74 479.21 383.26 C 476.93 389.09 472.89 393.99 470.56 399.79 C 468.62 404.76 465.48 409.15 462.48 413.52 C 454.99 421.12 442.93 421.77 435.82 429.87 C 432.46 432.59 428.58 435.57 424.04 435.40 C 394.02 435.40 363.99 435.38 333.97 435.41 C 330.40 435.59 327.14 433.98 323.81 432.98 C 315.73 429.89 307.05 429.00 298.76 426.63 C 287.89 425.92 276.93 426.86 266.06 426.16 C 261.39 424.67 256.29 426.30 251.75 424.59 C 251.65 424.54 251.47 424.45 251.37 424.40 C 247.96 422.02 244.19 420.05 239.98 419.68 C 234.05 419.32 228.49 417.03 222.66 416.06 C 218.23 414.98 212.89 416.21 209.36 412.62 C 201.12 407.00 194.40 399.57 187.92 392.07 C 185.02 389.05 181.65 386.54 178.66 383.61 C 178.59 383.54 178.45 383.40 178.38 383.33 C 176.03 380.27 173.15 377.27 172.12 373.47 C 176.40 371.57 180.82 370.00 185.21 368.39 C 190.55 366.57 195.09 362.73 200.80 361.95 C 207.32 361.09 213.59 359.08 219.98 357.65 Z" />
<path fill="#eb1022" opacity="1.00" d=" M 178.38 383.33 C 178.45 383.40 178.59 383.54 178.66 383.61 C 178.59 383.54 178.45 383.40 178.38 383.33 Z" />
<path fill="#eb1022" opacity="1.00" d=" M 251.37 424.40 C 251.47 424.45 251.65 424.54 251.75 424.59 C 251.65 424.54 251.47 424.45 251.37 424.40 Z" />
<path fill="#eb1022" opacity="1.00" d=" M 0.00 467.34 C 9.63 467.26 19.27 467.06 28.89 467.42 C 35.14 467.64 42.01 470.14 44.80 476.18 C 47.54 482.55 47.51 489.86 46.43 496.60 C 45.69 501.05 41.03 502.60 37.30 503.77 C 40.62 505.11 44.42 506.35 46.36 509.60 C 48.88 513.94 48.49 519.17 48.53 524.01 C 48.42 529.33 49.01 534.90 46.96 539.96 C 43.74 547.73 33.90 546.84 27.00 547.02 C 18.00 546.95 9.00 547.08 0.00 546.93 L 0.00 467.34 M 21.15 481.03 C 20.87 486.78 21.00 492.55 21.05 498.30 C 23.06 498.12 25.62 498.68 26.94 496.72 C 27.77 492.60 27.77 488.27 27.17 484.13 C 26.57 481.33 23.46 481.16 21.15 481.03 M 21.15 511.02 C 20.86 518.39 21.00 525.77 21.06 533.15 C 23.20 532.75 26.59 533.12 27.13 530.31 C 28.04 524.84 27.97 519.17 27.16 513.69 C 26.69 511.00 23.17 511.55 21.15 511.02 Z" />
<path fill="#eb1022" opacity="1.00" d=" M 62.03 467.26 C 72.02 467.25 82.00 467.22 91.99 467.27 C 96.19 493.81 99.99 520.42 104.00 546.98 C 96.87 546.95 89.73 547.17 82.60 546.85 C 82.30 542.15 82.00 537.45 81.44 532.78 C 79.03 532.74 76.62 532.75 74.21 532.81 C 73.80 537.52 73.51 542.24 73.02 546.94 C 65.84 547.07 58.66 546.98 51.49 547.00 C 54.79 520.39 58.34 493.81 62.03 467.26 M 77.52 486.88 C 76.66 497.42 74.97 507.87 74.03 518.40 C 76.33 518.54 78.64 518.53 80.94 518.35 C 79.58 507.88 79.24 497.29 77.52 486.88 Z" />
<path fill="#eb1022" opacity="1.00" d=" M 107.27 467.27 C 116.06 467.27 124.86 467.14 133.65 467.34 C 139.73 467.70 146.69 468.09 151.09 472.91 C 155.74 477.69 155.19 484.85 155.26 490.99 C 155.22 503.98 155.28 516.98 155.24 529.97 C 155.05 534.35 154.92 539.33 151.69 542.69 C 147.89 546.53 142.10 546.93 137.01 547.01 C 127.08 546.95 117.16 547.09 107.23 546.94 C 107.28 520.38 107.21 493.83 107.27 467.27 M 128.16 481.00 C 127.84 498.38 128.01 515.78 128.07 533.16 C 130.02 532.83 133.00 533.07 133.64 530.65 C 134.61 526.51 134.23 522.20 134.49 517.99 C 134.37 506.70 134.87 495.37 134.02 484.11 C 133.68 481.24 130.31 481.34 128.16 481.00 Z" />
<path fill="#eb1022" opacity="1.00" d=" M 116.33 563.28 C 124.91 562.41 134.07 562.90 141.72 567.29 C 149.19 571.49 154.08 579.69 154.53 588.22 C 155.45 600.79 154.81 613.41 155.00 626.00 C 154.85 635.31 155.56 644.74 153.77 653.93 C 151.54 664.01 142.56 671.58 132.59 673.41 C 123.08 675.10 112.65 674.79 104.04 669.97 C 96.26 665.63 91.33 656.96 91.13 648.10 C 90.32 631.75 90.96 615.36 90.74 599.00 C 90.99 591.24 90.63 582.83 95.00 576.03 C 99.47 568.56 107.87 564.29 116.33 563.28 M 121.45 581.36 C 119.77 582.27 118.99 584.11 118.95 585.96 C 118.24 594.95 118.57 603.99 118.50 613.00 C 118.57 625.68 118.26 638.37 118.89 651.04 C 119.04 652.64 119.20 654.44 120.45 655.62 C 122.14 656.24 124.60 656.41 125.78 654.77 C 126.80 653.07 126.76 651.00 126.94 649.11 C 127.52 631.75 127.15 614.37 127.25 597.01 C 126.98 592.50 127.40 587.89 126.36 583.47 C 125.78 581.31 123.35 580.83 121.45 581.36 Z" />
<path fill="#eb1022" opacity="1.00" d=" M 526.61 566.56 C 534.66 562.51 544.02 562.41 552.78 563.53 C 561.91 564.98 571.38 570.18 574.82 579.20 C 578.20 589.58 577.08 600.68 577.21 611.42 C 567.99 611.56 558.78 611.53 549.56 611.44 C 549.30 602.35 549.89 593.21 548.80 584.17 C 548.17 579.59 540.08 580.39 540.14 585.02 C 539.06 596.30 539.66 607.67 539.50 619.00 C 539.65 629.99 539.07 641.01 540.10 651.97 C 540.06 654.57 542.37 656.52 544.94 656.04 C 547.79 656.32 548.84 653.27 549.01 650.99 C 549.50 643.71 549.57 636.41 549.44 629.12 C 558.69 628.87 567.95 629.02 577.20 629.03 C 577.31 637.62 577.54 646.33 575.65 654.77 C 573.69 663.57 565.76 669.75 557.57 672.54 C 550.65 674.78 543.19 674.60 536.05 673.74 C 527.10 672.45 517.74 667.50 514.50 658.57 C 511.93 651.01 511.70 642.91 511.74 635.00 C 511.75 623.34 511.77 611.67 511.73 600.00 C 511.72 594.79 511.71 589.54 512.60 584.39 C 514.10 576.67 519.53 569.93 526.61 566.56 Z" />
<path fill="#eb1022" opacity="1.00" d=" M 23.69 565.22 C 33.81 565.27 43.93 565.25 54.04 565.24 C 61.27 565.31 69.01 565.73 75.31 569.68 C 80.50 572.88 82.63 579.16 83.01 584.97 C 83.52 592.63 83.14 600.32 83.26 607.99 C 83.15 614.02 82.27 621.15 76.80 624.79 C 69.32 629.99 59.84 628.87 51.23 629.06 C 51.23 643.36 51.31 657.67 51.20 671.97 C 41.99 672.04 32.78 671.99 23.57 671.99 C 23.41 642.66 23.55 613.33 23.50 584.00 C 23.60 577.74 23.27 571.47 23.69 565.22 M 51.26 583.79 C 51.21 592.62 51.31 601.46 51.20 610.30 C 53.30 610.51 55.66 610.85 57.52 609.59 C 59.29 608.37 59.50 606.01 59.72 604.07 C 60.07 598.54 60.31 592.91 59.34 587.44 C 58.63 583.78 54.23 583.61 51.26 583.79 Z" />
<path fill="#eb1022" opacity="1.00" d=" M 165.69 565.22 C 174.84 565.29 183.99 565.22 193.14 565.26 C 193.45 578.59 193.09 591.92 193.31 605.26 C 197.81 592.11 201.55 578.69 205.60 565.40 C 214.38 565.06 223.19 565.32 231.98 565.26 C 226.99 580.77 221.82 596.22 216.72 611.69 C 216.25 612.83 216.30 614.09 216.69 615.27 C 222.26 634.16 228.01 653.02 233.45 671.95 C 223.81 671.94 214.17 672.21 204.55 671.81 C 200.94 657.11 197.38 642.38 193.32 627.80 C 193.12 642.52 193.36 657.25 193.20 671.97 C 183.99 672.04 174.78 671.99 165.57 671.99 C 165.41 643.00 165.55 614.00 165.50 585.00 C 165.60 578.40 165.27 571.80 165.69 565.22 Z" />
<path fill="#eb1022" opacity="1.00" d=" M 237.65 565.25 C 245.18 565.23 252.72 565.26 260.25 565.25 C 264.28 565.25 268.32 565.25 272.36 565.23 C 276.14 565.22 279.93 565.24 283.72 565.29 C 283.79 572.31 283.75 579.33 283.75 586.35 C 280.23 586.52 276.71 586.52 273.19 586.49 C 270.57 586.45 267.96 586.45 265.34 586.45 C 265.17 593.20 265.20 599.95 265.31 606.70 C 267.98 606.74 270.65 606.74 273.32 606.74 C 276.35 606.73 279.38 606.74 282.41 606.81 C 282.57 613.53 282.56 620.25 282.42 626.98 C 279.67 627.00 276.93 627.01 274.18 627.00 C 271.21 626.98 268.24 627.01 265.28 627.11 C 265.23 634.96 265.19 642.82 265.31 650.68 C 268.45 650.76 271.59 650.80 274.74 650.77 C 278.29 650.73 281.85 650.73 285.41 650.81 C 285.57 657.86 285.55 664.91 285.42 671.97 C 282.01 672.00 278.60 672.02 275.20 672.02 C 270.92 671.99 266.65 671.98 262.38 671.99 C 254.11 671.98 245.85 672.04 237.58 671.98 C 237.50 636.40 237.35 600.82 237.65 565.25 Z" />
<path fill="#eb1022" opacity="1.00" d=" M 293.69 565.22 C 307.81 565.54 321.98 564.58 336.06 566.01 C 340.67 566.41 345.34 567.94 348.65 571.32 C 354.01 576.31 355.31 584.03 355.50 591.02 C 355.48 597.43 356.00 604.24 353.16 610.19 C 351.03 614.34 346.07 615.29 341.96 616.35 C 345.71 617.86 349.96 619.12 352.32 622.68 C 356.08 627.24 355.44 633.47 355.51 638.99 C 355.44 649.99 355.60 660.99 355.43 671.99 C 346.88 671.99 338.34 672.04 329.80 671.97 C 329.54 658.32 330.12 644.66 329.41 631.02 C 329.16 629.06 329.18 626.78 327.70 625.28 C 325.87 623.86 323.44 624.05 321.27 623.94 C 321.19 639.95 321.33 655.96 321.20 671.97 C 311.99 672.04 302.78 671.99 293.57 671.99 C 293.41 642.33 293.55 612.67 293.50 583.00 C 293.59 577.07 293.27 571.13 293.69 565.22 M 321.26 583.77 C 321.24 591.53 321.22 599.29 321.27 607.06 C 323.95 606.93 328.14 607.25 328.91 603.88 C 329.98 598.59 330.03 593.02 329.17 587.69 C 328.58 584.03 324.25 583.61 321.26 583.77 Z" />
<path fill="#eb1022" opacity="1.00" d=" M 390.70 565.22 C 406.23 565.27 421.76 565.27 437.30 565.21 C 437.72 572.27 437.46 579.36 437.44 586.44 C 431.06 586.58 424.68 586.47 418.31 586.48 C 418.19 593.23 418.24 599.98 418.27 606.73 C 424.02 606.88 429.79 606.48 435.54 606.98 C 435.49 613.61 435.47 620.25 435.55 626.88 C 429.78 627.15 424.00 626.88 418.23 627.06 C 418.23 642.03 418.31 657.00 418.20 671.97 C 408.99 672.03 399.78 671.99 390.57 671.99 C 390.41 642.66 390.55 613.33 390.50 584.00 C 390.60 577.74 390.26 571.47 390.70 565.22 Z" />
<path fill="#eb1022" opacity="1.00" d=" M 451.40 565.28 C 464.80 565.24 478.20 565.20 491.60 565.30 C 496.84 600.87 502.29 636.42 507.46 672.00 C 497.97 671.97 488.48 672.07 478.99 671.94 C 478.36 665.64 477.96 659.32 477.49 653.00 C 474.18 652.60 470.83 652.61 467.52 652.99 C 467.12 659.32 466.65 665.64 466.01 671.94 C 456.39 672.03 446.77 672.06 437.15 671.93 C 441.83 636.37 446.68 600.83 451.40 565.28 M 467.80 633.78 C 470.72 633.77 473.64 633.77 476.57 633.67 C 474.96 619.42 473.90 605.12 472.60 590.84 C 470.70 605.11 468.56 619.40 467.80 633.78 Z" />
<path fill="#eb1022" opacity="1.00" d=" M 587.69 565.22 C 603.04 565.30 618.38 565.20 633.73 565.27 C 633.79 572.28 633.71 579.30 633.78 586.31 C 627.63 586.73 621.46 586.41 615.31 586.48 C 615.19 593.22 615.24 599.98 615.27 606.73 C 621.02 606.89 626.80 606.47 632.54 606.99 C 632.49 613.62 632.47 620.25 632.55 626.88 C 626.78 627.15 621.00 626.88 615.23 627.06 C 615.27 634.95 615.21 642.84 615.27 650.73 C 622.02 650.91 628.79 650.45 635.54 650.99 C 635.49 657.95 635.47 664.92 635.55 671.88 C 619.56 672.15 603.56 671.93 587.57 671.99 C 587.41 642.33 587.55 612.67 587.50 583.00 C 587.59 577.07 587.27 571.13 587.69 565.22 Z" />
<path fill="#000000" opacity="1.00" d=" M 265.34 586.45 C 267.96 586.45 270.57 586.45 273.19 586.49 C 273.47 593.23 273.64 599.99 273.32 606.74 C 270.65 606.74 267.98 606.74 265.31 606.70 C 265.20 599.95 265.17 593.20 265.34 586.45 Z" />
<path fill="#000000" opacity="1.00" d=" M 265.28 627.11 C 268.24 627.01 271.21 626.98 274.18 627.00 C 274.56 634.92 274.25 642.85 274.74 650.77 C 271.59 650.80 268.45 650.76 265.31 650.68 C 265.19 642.82 265.23 634.96 265.28 627.11 Z" />
<path fill="#000000" opacity="1.00" d=" M 262.38 671.99 C 266.65 671.98 270.92 671.99 275.20 672.02 C 275.59 681.06 275.35 690.11 275.68 699.15 C 276.93 715.41 276.10 731.75 276.85 748.03 C 277.78 759.01 277.15 770.05 277.67 781.04 C 278.49 787.57 281.00 793.75 282.95 800.00 L 270.03 800.00 C 267.95 794.49 265.79 788.87 265.37 782.94 C 263.89 765.63 265.19 748.22 263.83 730.91 C 263.39 717.97 263.75 705.00 263.16 692.07 C 262.52 685.39 262.84 678.68 262.38 671.99 Z" />
</svg>
