<svg width="1840" height="1080" viewBox="0 0 1840 1080" fill="none" xmlns="http://www.w3.org/2000/svg">
<rect width="1840" height="1080" fill="#F2F2F2"/>
<rect x="80" y="80" width="1680" height="961" fill="white"/>
<rect x="609" y="222" width="622" height="364" fill="white"/>
<rect x="609.5" y="222.5" width="621" height="363" stroke="black" stroke-opacity="0.5"/>
<rect x="927" y="503" width="240" height="40" rx="6" fill="white"/>
<rect x="927.5" y="503.5" width="239" height="39" rx="5.5" stroke="black" stroke-opacity="0.5"/>
<path d="M971.665 515.5V526H970.435L964.135 518.17V526H962.635V515.5H963.865L970.165 523.33V515.5H971.665ZM977.778 526.09C976.988 526.09 976.278 525.915 975.648 525.565C975.018 525.215 974.523 524.735 974.163 524.125C973.813 523.505 973.638 522.805 973.638 522.025C973.638 521.245 973.813 520.55 974.163 519.94C974.523 519.32 975.018 518.84 975.648 518.5C976.278 518.15 976.988 517.975 977.778 517.975C978.568 517.975 979.273 518.15 979.893 518.5C980.523 518.84 981.013 519.32 981.363 519.94C981.723 520.55 981.903 521.245 981.903 522.025C981.903 522.805 981.723 523.505 981.363 524.125C981.013 524.735 980.523 525.215 979.893 525.565C979.273 525.915 978.568 526.09 977.778 526.09ZM977.778 524.83C978.288 524.83 978.743 524.715 979.143 524.485C979.553 524.245 979.873 523.915 980.103 523.495C980.333 523.065 980.448 522.575 980.448 522.025C980.448 521.475 980.333 520.99 980.103 520.57C979.873 520.14 979.553 519.81 979.143 519.58C978.743 519.35 978.288 519.235 977.778 519.235C977.268 519.235 976.808 519.35 976.398 519.58C975.998 519.81 975.678 520.14 975.438 520.57C975.208 520.99 975.093 521.475 975.093 522.025C975.093 522.575 975.208 523.065 975.438 523.495C975.678 523.915 975.998 524.245 976.398 524.485C976.808 524.715 977.268 524.83 977.778 524.83ZM990.368 517.975C991.468 517.975 992.308 518.245 992.888 518.785C993.478 519.325 993.773 520.13 993.773 521.2V526H992.408V524.95C992.168 525.32 991.823 525.605 991.373 525.805C990.933 525.995 990.408 526.09 989.798 526.09C988.908 526.09 988.193 525.875 987.653 525.445C987.123 525.015 986.858 524.45 986.858 523.75C986.858 523.05 987.113 522.49 987.623 522.07C988.133 521.64 988.943 521.425 990.053 521.425H992.333V521.14C992.333 520.52 992.153 520.045 991.793 519.715C991.433 519.385 990.903 519.22 990.203 519.22C989.733 519.22 989.273 519.3 988.823 519.46C988.373 519.61 987.993 519.815 987.683 520.075L987.083 518.995C987.493 518.665 987.983 518.415 988.553 518.245C989.123 518.065 989.728 517.975 990.368 517.975ZM990.038 524.98C990.588 524.98 991.063 524.86 991.463 524.62C991.863 524.37 992.153 524.02 992.333 523.57V522.46H990.113C988.893 522.46 988.283 522.87 988.283 523.69C988.283 524.09 988.438 524.405 988.748 524.635C989.058 524.865 989.488 524.98 990.038 524.98ZM999.722 526.09C998.912 526.09 998.187 525.915 997.547 525.565C996.917 525.215 996.422 524.735 996.062 524.125C995.702 523.505 995.522 522.805 995.522 522.025C995.522 521.245 995.702 520.55 996.062 519.94C996.422 519.32 996.917 518.84 997.547 518.5C998.187 518.15 998.912 517.975 999.722 517.975C1000.44 517.975 1001.08 518.12 1001.64 518.41C1002.21 518.7 1002.65 519.12 1002.96 519.67L1001.87 520.375C1001.62 519.995 1001.31 519.71 1000.94 519.52C1000.57 519.33 1000.16 519.235 999.707 519.235C999.187 519.235 998.717 519.35 998.297 519.58C997.887 519.81 997.562 520.14 997.322 520.57C997.092 520.99 996.977 521.475 996.977 522.025C996.977 522.585 997.092 523.08 997.322 523.51C997.562 523.93 997.887 524.255 998.297 524.485C998.717 524.715 999.187 524.83 999.707 524.83C1000.16 524.83 1000.57 524.735 1000.94 524.545C1001.31 524.355 1001.62 524.07 1001.87 523.69L1002.96 524.38C1002.65 524.93 1002.21 525.355 1001.64 525.655C1001.08 525.945 1000.44 526.09 999.722 526.09ZM1007.95 526.09C1007.14 526.09 1006.41 525.915 1005.77 525.565C1005.14 525.215 1004.65 524.735 1004.29 524.125C1003.93 523.505 1003.75 522.805 1003.75 522.025C1003.75 521.245 1003.93 520.55 1004.29 519.94C1004.65 519.32 1005.14 518.84 1005.77 518.5C1006.41 518.15 1007.14 517.975 1007.95 517.975C1008.67 517.975 1009.31 518.12 1009.87 518.41C1010.44 518.7 1010.88 519.12 1011.19 519.67L1010.09 520.375C1009.84 519.995 1009.53 519.71 1009.16 519.52C1008.79 519.33 1008.38 519.235 1007.93 519.235C1007.41 519.235 1006.94 519.35 1006.52 519.58C1006.11 519.81 1005.79 520.14 1005.55 520.57C1005.32 520.99 1005.2 521.475 1005.2 522.025C1005.2 522.585 1005.32 523.08 1005.55 523.51C1005.79 523.93 1006.11 524.255 1006.52 524.485C1006.94 524.715 1007.41 524.83 1007.93 524.83C1008.38 524.83 1008.79 524.735 1009.16 524.545C1009.53 524.355 1009.84 524.07 1010.09 523.69L1011.19 524.38C1010.88 524.93 1010.44 525.355 1009.87 525.655C1009.31 525.945 1008.67 526.09 1007.95 526.09ZM1016.12 526.09C1015.33 526.09 1014.62 525.915 1013.99 525.565C1013.36 525.215 1012.86 524.735 1012.5 524.125C1012.15 523.505 1011.98 522.805 1011.98 522.025C1011.98 521.245 1012.15 520.55 1012.5 519.94C1012.86 519.32 1013.36 518.84 1013.99 518.5C1014.62 518.15 1015.33 517.975 1016.12 517.975C1016.91 517.975 1017.61 518.15 1018.23 518.5C1018.86 518.84 1019.35 519.32 1019.7 519.94C1020.06 520.55 1020.24 521.245 1020.24 522.025C1020.24 522.805 1020.06 523.505 1019.7 524.125C1019.35 524.735 1018.86 525.215 1018.23 525.565C1017.61 525.915 1016.91 526.09 1016.12 526.09ZM1016.12 524.83C1016.63 524.83 1017.08 524.715 1017.48 524.485C1017.89 524.245 1018.21 523.915 1018.44 523.495C1018.67 523.065 1018.79 522.575 1018.79 522.025C1018.79 521.475 1018.67 520.99 1018.44 520.57C1018.21 520.14 1017.89 519.81 1017.48 519.58C1017.08 519.35 1016.63 519.235 1016.12 519.235C1015.61 519.235 1015.15 519.35 1014.74 519.58C1014.34 519.81 1014.02 520.14 1013.78 520.57C1013.55 520.99 1013.43 521.475 1013.43 522.025C1013.43 522.575 1013.55 523.065 1013.78 523.495C1014.02 523.915 1014.34 524.245 1014.74 524.485C1015.15 524.715 1015.61 524.83 1016.12 524.83ZM1029.42 518.05V526H1028.05V524.8C1027.76 525.21 1027.38 525.53 1026.9 525.76C1026.43 525.98 1025.91 526.09 1025.35 526.09C1024.29 526.09 1023.46 525.8 1022.85 525.22C1022.24 524.63 1021.93 523.765 1021.93 522.625V518.05H1023.37V522.46C1023.37 523.23 1023.56 523.815 1023.93 524.215C1024.3 524.605 1024.83 524.8 1025.52 524.8C1026.28 524.8 1026.88 524.57 1027.32 524.11C1027.76 523.65 1027.98 523 1027.98 522.16V518.05H1029.42ZM1036.18 517.975C1037.19 517.975 1037.99 518.27 1038.58 518.86C1039.18 519.44 1039.48 520.295 1039.48 521.425V526H1038.04V521.59C1038.04 520.82 1037.85 520.24 1037.48 519.85C1037.11 519.46 1036.58 519.265 1035.89 519.265C1035.11 519.265 1034.5 519.495 1034.05 519.955C1033.6 520.405 1033.37 521.055 1033.37 521.905V526H1031.93V518.05H1033.31V519.25C1033.6 518.84 1033.99 518.525 1034.48 518.305C1034.98 518.085 1035.55 517.975 1036.18 517.975ZM1046.39 525.535C1046.18 525.715 1045.92 525.855 1045.61 525.955C1045.3 526.045 1044.98 526.09 1044.65 526.09C1043.85 526.09 1043.23 525.875 1042.79 525.445C1042.35 525.015 1042.13 524.4 1042.13 523.6V519.235H1040.78V518.05H1042.13V516.31H1043.57V518.05H1045.85V519.235H1043.57V523.54C1043.57 523.97 1043.67 524.3 1043.88 524.53C1044.1 524.76 1044.41 524.875 1044.81 524.875C1045.25 524.875 1045.63 524.75 1045.94 524.5L1046.39 525.535ZM1058.74 518.05L1054.89 526.795C1054.55 527.605 1054.15 528.175 1053.69 528.505C1053.24 528.835 1052.69 529 1052.05 529C1051.66 529 1051.28 528.935 1050.91 528.805C1050.55 528.685 1050.25 528.505 1050.01 528.265L1050.63 527.185C1051.04 527.575 1051.51 527.77 1052.05 527.77C1052.4 527.77 1052.69 527.675 1052.92 527.485C1053.16 527.305 1053.38 526.99 1053.57 526.54L1053.82 525.985L1050.31 518.05H1051.81L1054.59 524.41L1057.33 518.05H1058.74ZM1066.83 522.07C1066.83 522.18 1066.82 522.325 1066.8 522.505H1060.35C1060.44 523.205 1060.74 523.77 1061.26 524.2C1061.79 524.62 1062.45 524.83 1063.23 524.83C1064.18 524.83 1064.94 524.51 1065.52 523.87L1066.32 524.8C1065.96 525.22 1065.51 525.54 1064.97 525.76C1064.44 525.98 1063.84 526.09 1063.18 526.09C1062.34 526.09 1061.6 525.92 1060.95 525.58C1060.3 525.23 1059.79 524.745 1059.43 524.125C1059.08 523.505 1058.91 522.805 1058.91 522.025C1058.91 521.255 1059.08 520.56 1059.42 519.94C1059.77 519.32 1060.24 518.84 1060.84 518.5C1061.45 518.15 1062.14 517.975 1062.9 517.975C1063.66 517.975 1064.33 518.15 1064.92 518.5C1065.52 518.84 1065.99 519.32 1066.32 519.94C1066.66 520.56 1066.83 521.27 1066.83 522.07ZM1062.9 519.19C1062.21 519.19 1061.63 519.4 1061.16 519.82C1060.7 520.24 1060.43 520.79 1060.35 521.47H1065.45C1065.37 520.8 1065.09 520.255 1064.62 519.835C1064.16 519.405 1063.59 519.19 1062.9 519.19ZM1073.07 525.535C1072.86 525.715 1072.6 525.855 1072.29 525.955C1071.98 526.045 1071.66 526.09 1071.33 526.09C1070.53 526.09 1069.91 525.875 1069.47 525.445C1069.03 525.015 1068.81 524.4 1068.81 523.6V519.235H1067.46V518.05H1068.81V516.31H1070.25V518.05H1072.53V519.235H1070.25V523.54C1070.25 523.97 1070.36 524.3 1070.57 524.53C1070.79 524.76 1071.1 524.875 1071.5 524.875C1071.94 524.875 1072.31 524.75 1072.62 524.5L1073.07 525.535ZM1076.39 522.685C1076.39 522.285 1076.46 521.935 1076.59 521.635C1076.73 521.325 1076.89 521.065 1077.08 520.855C1077.28 520.645 1077.54 520.395 1077.86 520.105C1078.26 519.755 1078.56 519.455 1078.75 519.205C1078.94 518.945 1079.03 518.635 1079.03 518.275C1079.03 517.785 1078.84 517.395 1078.46 517.105C1078.08 516.805 1077.56 516.655 1076.89 516.655C1075.72 516.655 1074.82 517.05 1074.2 517.84L1073.11 517.06C1073.53 516.52 1074.06 516.105 1074.71 515.815C1075.37 515.525 1076.13 515.38 1076.99 515.38C1078.08 515.38 1078.95 515.62 1079.59 516.1C1080.23 516.57 1080.55 517.22 1080.55 518.05C1080.55 518.46 1080.48 518.825 1080.34 519.145C1080.21 519.455 1080.05 519.715 1079.86 519.925C1079.67 520.135 1079.41 520.385 1079.09 520.675C1078.68 521.045 1078.38 521.37 1078.18 521.65C1077.99 521.93 1077.89 522.275 1077.89 522.685H1076.39ZM1077.16 526.09C1076.88 526.09 1076.64 526 1076.45 525.82C1076.27 525.63 1076.18 525.4 1076.18 525.13C1076.18 524.86 1076.27 524.635 1076.45 524.455C1076.64 524.265 1076.88 524.17 1077.16 524.17C1077.44 524.17 1077.67 524.265 1077.85 524.455C1078.03 524.635 1078.12 524.86 1078.12 525.13C1078.12 525.4 1078.02 525.63 1077.83 525.82C1077.65 526 1077.43 526.09 1077.16 526.09ZM1089.85 526.18C1089.02 526.18 1088.21 526.07 1087.43 525.85C1086.66 525.62 1086.04 525.325 1085.57 524.965L1086.4 523.135C1086.85 523.465 1087.38 523.73 1088 523.93C1088.62 524.13 1089.24 524.23 1089.86 524.23C1090.55 524.23 1091.06 524.13 1091.39 523.93C1091.72 523.72 1091.89 523.445 1091.89 523.105C1091.89 522.855 1091.79 522.65 1091.59 522.49C1091.4 522.32 1091.15 522.185 1090.84 522.085C1090.54 521.985 1090.13 521.875 1089.61 521.755C1088.81 521.565 1088.15 521.375 1087.64 521.185C1087.13 520.995 1086.69 520.69 1086.32 520.27C1085.96 519.85 1085.78 519.29 1085.78 518.59C1085.78 517.98 1085.95 517.43 1086.28 516.94C1086.61 516.44 1087.1 516.045 1087.76 515.755C1088.43 515.465 1089.25 515.32 1090.21 515.32C1090.88 515.32 1091.53 515.4 1092.17 515.56C1092.81 515.72 1093.37 515.95 1093.85 516.25L1093.1 518.095C1092.13 517.545 1091.16 517.27 1090.19 517.27C1089.51 517.27 1089.01 517.38 1088.68 517.6C1088.36 517.82 1088.2 518.11 1088.2 518.47C1088.2 518.83 1088.38 519.1 1088.75 519.28C1089.13 519.45 1089.71 519.62 1090.48 519.79C1091.28 519.98 1091.93 520.17 1092.44 520.36C1092.95 520.55 1093.39 520.85 1093.75 521.26C1094.12 521.67 1094.3 522.225 1094.3 522.925C1094.3 523.525 1094.13 524.075 1093.79 524.575C1093.46 525.065 1092.96 525.455 1092.29 525.745C1091.62 526.035 1090.81 526.18 1089.85 526.18ZM1095.57 517.93H1097.91V526H1095.57V517.93ZM1096.74 516.805C1096.31 516.805 1095.96 516.68 1095.69 516.43C1095.42 516.18 1095.29 515.87 1095.29 515.5C1095.29 515.13 1095.42 514.82 1095.69 514.57C1095.96 514.32 1096.31 514.195 1096.74 514.195C1097.17 514.195 1097.52 514.315 1097.79 514.555C1098.06 514.795 1098.2 515.095 1098.2 515.455C1098.2 515.845 1098.06 516.17 1097.79 516.43C1097.52 516.68 1097.17 516.805 1096.74 516.805ZM1108.18 517.93V524.65C1108.18 526.13 1107.8 527.23 1107.03 527.95C1106.26 528.67 1105.13 529.03 1103.65 529.03C1102.87 529.03 1102.13 528.935 1101.43 528.745C1100.73 528.555 1100.15 528.28 1099.69 527.92L1100.62 526.24C1100.96 526.52 1101.39 526.74 1101.91 526.9C1102.43 527.07 1102.95 527.155 1103.47 527.155C1104.28 527.155 1104.88 526.97 1105.26 526.6C1105.65 526.24 1105.84 525.69 1105.84 524.95V524.605C1105.23 525.275 1104.38 525.61 1103.29 525.61C1102.55 525.61 1101.87 525.45 1101.25 525.13C1100.64 524.8 1100.16 524.34 1099.8 523.75C1099.44 523.16 1099.26 522.48 1099.26 521.71C1099.26 520.94 1099.44 520.26 1099.8 519.67C1100.16 519.08 1100.64 518.625 1101.25 518.305C1101.87 517.975 1102.55 517.81 1103.29 517.81C1104.46 517.81 1105.35 518.195 1105.96 518.965V517.93H1108.18ZM1103.76 523.69C1104.38 523.69 1104.88 523.51 1105.27 523.15C1105.67 522.78 1105.87 522.3 1105.87 521.71C1105.87 521.12 1105.67 520.645 1105.27 520.285C1104.88 519.915 1104.38 519.73 1103.76 519.73C1103.14 519.73 1102.63 519.915 1102.23 520.285C1101.83 520.645 1101.63 521.12 1101.63 521.71C1101.63 522.3 1101.83 522.78 1102.23 523.15C1102.63 523.51 1103.14 523.69 1103.76 523.69ZM1115.04 517.81C1116.04 517.81 1116.85 518.11 1117.46 518.71C1118.08 519.31 1118.39 520.2 1118.39 521.38V526H1116.05V521.74C1116.05 521.1 1115.91 520.625 1115.63 520.315C1115.35 519.995 1114.94 519.835 1114.41 519.835C1113.82 519.835 1113.35 520.02 1113 520.39C1112.65 520.75 1112.48 521.29 1112.48 522.01V526H1110.14V517.93H1112.37V518.875C1112.68 518.535 1113.07 518.275 1113.53 518.095C1113.99 517.905 1114.49 517.81 1115.04 517.81ZM1132.43 517.93V526H1130.21V525.04C1129.9 525.39 1129.53 525.66 1129.1 525.85C1128.67 526.03 1128.21 526.12 1127.71 526.12C1126.65 526.12 1125.81 525.815 1125.19 525.205C1124.57 524.595 1124.26 523.69 1124.26 522.49V517.93H1126.6V522.145C1126.6 523.445 1127.14 524.095 1128.23 524.095C1128.79 524.095 1129.24 523.915 1129.58 523.555C1129.92 523.185 1130.09 522.64 1130.09 521.92V517.93H1132.43ZM1139.15 517.81C1139.9 517.81 1140.58 517.985 1141.19 518.335C1141.81 518.675 1142.29 519.16 1142.64 519.79C1142.99 520.41 1143.17 521.135 1143.17 521.965C1143.17 522.795 1142.99 523.525 1142.64 524.155C1142.29 524.775 1141.81 525.26 1141.19 525.61C1140.58 525.95 1139.9 526.12 1139.15 526.12C1138.12 526.12 1137.31 525.795 1136.72 525.145V528.91H1134.38V517.93H1136.61V518.86C1137.19 518.16 1138.04 517.81 1139.15 517.81ZM1138.74 524.2C1139.34 524.2 1139.83 524 1140.21 523.6C1140.6 523.19 1140.8 522.645 1140.8 521.965C1140.8 521.285 1140.6 520.745 1140.21 520.345C1139.83 519.935 1139.34 519.73 1138.74 519.73C1138.14 519.73 1137.65 519.935 1137.26 520.345C1136.88 520.745 1136.69 521.285 1136.69 521.965C1136.69 522.645 1136.88 523.19 1137.26 523.6C1137.65 524 1138.14 524.2 1138.74 524.2Z" fill="black"/>
<rect x="673" y="503" width="240" height="40" rx="6" fill="#DADADA"/>
<rect x="673.5" y="503.5" width="239" height="39" rx="5.5" stroke="black" stroke-opacity="0.5"/>
<path d="M734.992 516.805V520.465H740.257V521.755H734.992V526H733.492V515.5H740.902V516.805H734.992ZM745.735 526.09C744.945 526.09 744.235 525.915 743.605 525.565C742.975 525.215 742.48 524.735 742.12 524.125C741.77 523.505 741.595 522.805 741.595 522.025C741.595 521.245 741.77 520.55 742.12 519.94C742.48 519.32 742.975 518.84 743.605 518.5C744.235 518.15 744.945 517.975 745.735 517.975C746.525 517.975 747.23 518.15 747.85 518.5C748.48 518.84 748.97 519.32 749.32 519.94C749.68 520.55 749.86 521.245 749.86 522.025C749.86 522.805 749.68 523.505 749.32 524.125C748.97 524.735 748.48 525.215 747.85 525.565C747.23 525.915 746.525 526.09 745.735 526.09ZM745.735 524.83C746.245 524.83 746.7 524.715 747.1 524.485C747.51 524.245 747.83 523.915 748.06 523.495C748.29 523.065 748.405 522.575 748.405 522.025C748.405 521.475 748.29 520.99 748.06 520.57C747.83 520.14 747.51 519.81 747.1 519.58C746.7 519.35 746.245 519.235 745.735 519.235C745.225 519.235 744.765 519.35 744.355 519.58C743.955 519.81 743.635 520.14 743.395 520.57C743.165 520.99 743.05 521.475 743.05 522.025C743.05 522.575 743.165 523.065 743.395 523.495C743.635 523.915 743.955 524.245 744.355 524.485C744.765 524.715 745.225 524.83 745.735 524.83ZM753.006 519.385C753.256 518.925 753.626 518.575 754.116 518.335C754.606 518.095 755.201 517.975 755.901 517.975V519.37C755.821 519.36 755.711 519.355 755.571 519.355C754.791 519.355 754.176 519.59 753.726 520.06C753.286 520.52 753.066 521.18 753.066 522.04V526H751.626V518.05H753.006V519.385ZM764.983 518.05V524.92C764.983 526.31 764.638 527.335 763.948 527.995C763.258 528.665 762.228 529 760.858 529C760.108 529 759.393 528.895 758.713 528.685C758.033 528.485 757.483 528.195 757.063 527.815L757.753 526.705C758.123 527.025 758.578 527.275 759.118 527.455C759.668 527.645 760.233 527.74 760.813 527.74C761.743 527.74 762.428 527.52 762.868 527.08C763.318 526.64 763.543 525.97 763.543 525.07V524.44C763.203 524.85 762.783 525.16 762.283 525.37C761.793 525.57 761.258 525.67 760.678 525.67C759.918 525.67 759.228 525.51 758.608 525.19C757.998 524.86 757.518 524.405 757.168 523.825C756.818 523.235 756.643 522.565 756.643 521.815C756.643 521.065 756.818 520.4 757.168 519.82C757.518 519.23 757.998 518.775 758.608 518.455C759.228 518.135 759.918 517.975 760.678 517.975C761.278 517.975 761.833 518.085 762.343 518.305C762.863 518.525 763.288 518.85 763.618 519.28V518.05H764.983ZM760.843 524.41C761.363 524.41 761.828 524.3 762.238 524.08C762.658 523.86 762.983 523.555 763.213 523.165C763.453 522.765 763.573 522.315 763.573 521.815C763.573 521.045 763.318 520.425 762.808 519.955C762.298 519.475 761.643 519.235 760.843 519.235C760.033 519.235 759.373 519.475 758.863 519.955C758.353 520.425 758.098 521.045 758.098 521.815C758.098 522.315 758.213 522.765 758.443 523.165C758.683 523.555 759.008 523.86 759.418 524.08C759.838 524.3 760.313 524.41 760.843 524.41ZM770.914 526.09C770.124 526.09 769.414 525.915 768.784 525.565C768.154 525.215 767.659 524.735 767.299 524.125C766.949 523.505 766.774 522.805 766.774 522.025C766.774 521.245 766.949 520.55 767.299 519.94C767.659 519.32 768.154 518.84 768.784 518.5C769.414 518.15 770.124 517.975 770.914 517.975C771.704 517.975 772.409 518.15 773.029 518.5C773.659 518.84 774.149 519.32 774.499 519.94C774.859 520.55 775.039 521.245 775.039 522.025C775.039 522.805 774.859 523.505 774.499 524.125C774.149 524.735 773.659 525.215 773.029 525.565C772.409 525.915 771.704 526.09 770.914 526.09ZM770.914 524.83C771.424 524.83 771.879 524.715 772.279 524.485C772.689 524.245 773.009 523.915 773.239 523.495C773.469 523.065 773.584 522.575 773.584 522.025C773.584 521.475 773.469 520.99 773.239 520.57C773.009 520.14 772.689 519.81 772.279 519.58C771.879 519.35 771.424 519.235 770.914 519.235C770.404 519.235 769.944 519.35 769.534 519.58C769.134 519.81 768.814 520.14 768.574 520.57C768.344 520.99 768.229 521.475 768.229 522.025C768.229 522.575 768.344 523.065 768.574 523.495C768.814 523.915 769.134 524.245 769.534 524.485C769.944 524.715 770.404 524.83 770.914 524.83ZM781.276 525.535C781.066 525.715 780.806 525.855 780.496 525.955C780.186 526.045 779.866 526.09 779.536 526.09C778.736 526.09 778.116 525.875 777.676 525.445C777.236 525.015 777.016 524.4 777.016 523.6V519.235H775.666V518.05H777.016V516.31H778.456V518.05H780.736V519.235H778.456V523.54C778.456 523.97 778.561 524.3 778.771 524.53C778.991 524.76 779.301 524.875 779.701 524.875C780.141 524.875 780.516 524.75 780.826 524.5L781.276 525.535ZM790.81 517.975C791.58 517.975 792.27 518.145 792.88 518.485C793.49 518.825 793.965 519.3 794.305 519.91C794.655 520.52 794.83 521.225 794.83 522.025C794.83 522.825 794.655 523.535 794.305 524.155C793.965 524.765 793.49 525.24 792.88 525.58C792.27 525.92 791.58 526.09 790.81 526.09C790.24 526.09 789.715 525.98 789.235 525.76C788.765 525.54 788.365 525.22 788.035 524.8V528.91H786.595V518.05H787.975V519.31C788.295 518.87 788.7 518.54 789.19 518.32C789.68 518.09 790.22 517.975 790.81 517.975ZM790.69 524.83C791.2 524.83 791.655 524.715 792.055 524.485C792.465 524.245 792.785 523.915 793.015 523.495C793.255 523.065 793.375 522.575 793.375 522.025C793.375 521.475 793.255 520.99 793.015 520.57C792.785 520.14 792.465 519.81 792.055 519.58C791.655 519.35 791.2 519.235 790.69 519.235C790.19 519.235 789.735 519.355 789.325 519.595C788.925 519.825 788.605 520.15 788.365 520.57C788.135 520.99 788.02 521.475 788.02 522.025C788.02 522.575 788.135 523.065 788.365 523.495C788.595 523.915 788.915 524.245 789.325 524.485C789.735 524.715 790.19 524.83 790.69 524.83ZM799.417 517.975C800.517 517.975 801.357 518.245 801.937 518.785C802.527 519.325 802.822 520.13 802.822 521.2V526H801.457V524.95C801.217 525.32 800.872 525.605 800.422 525.805C799.982 525.995 799.457 526.09 798.847 526.09C797.957 526.09 797.242 525.875 796.702 525.445C796.172 525.015 795.907 524.45 795.907 523.75C795.907 523.05 796.162 522.49 796.672 522.07C797.182 521.64 797.992 521.425 799.102 521.425H801.382V521.14C801.382 520.52 801.202 520.045 800.842 519.715C800.482 519.385 799.952 519.22 799.252 519.22C798.782 519.22 798.322 519.3 797.872 519.46C797.422 519.61 797.042 519.815 796.732 520.075L796.132 518.995C796.542 518.665 797.032 518.415 797.602 518.245C798.172 518.065 798.777 517.975 799.417 517.975ZM799.087 524.98C799.637 524.98 800.112 524.86 800.512 524.62C800.912 524.37 801.202 524.02 801.382 523.57V522.46H799.162C797.942 522.46 797.332 522.87 797.332 523.69C797.332 524.09 797.487 524.405 797.797 524.635C798.107 524.865 798.537 524.98 799.087 524.98ZM807.541 526.09C806.891 526.09 806.266 526.005 805.666 525.835C805.066 525.655 804.596 525.43 804.256 525.16L804.856 524.02C805.206 524.27 805.631 524.47 806.131 524.62C806.631 524.77 807.136 524.845 807.646 524.845C808.906 524.845 809.536 524.485 809.536 523.765C809.536 523.525 809.451 523.335 809.281 523.195C809.111 523.055 808.896 522.955 808.636 522.895C808.386 522.825 808.026 522.75 807.556 522.67C806.916 522.57 806.391 522.455 805.981 522.325C805.581 522.195 805.236 521.975 804.946 521.665C804.656 521.355 804.511 520.92 804.511 520.36C804.511 519.64 804.811 519.065 805.411 518.635C806.011 518.195 806.816 517.975 807.826 517.975C808.356 517.975 808.886 518.04 809.416 518.17C809.946 518.3 810.381 518.475 810.721 518.695L810.106 519.835C809.456 519.415 808.691 519.205 807.811 519.205C807.201 519.205 806.736 519.305 806.416 519.505C806.096 519.705 805.936 519.97 805.936 520.3C805.936 520.56 806.026 520.765 806.206 520.915C806.386 521.065 806.606 521.175 806.866 521.245C807.136 521.315 807.511 521.395 807.991 521.485C808.631 521.595 809.146 521.715 809.536 521.845C809.936 521.965 810.276 522.175 810.556 522.475C810.836 522.775 810.976 523.195 810.976 523.735C810.976 524.455 810.666 525.03 810.046 525.46C809.436 525.88 808.601 526.09 807.541 526.09ZM814.831 526.09C814.181 526.09 813.556 526.005 812.956 525.835C812.356 525.655 811.886 525.43 811.546 525.16L812.146 524.02C812.496 524.27 812.921 524.47 813.421 524.62C813.921 524.77 814.426 524.845 814.936 524.845C816.196 524.845 816.826 524.485 816.826 523.765C816.826 523.525 816.741 523.335 816.571 523.195C816.401 523.055 816.186 522.955 815.926 522.895C815.676 522.825 815.316 522.75 814.846 522.67C814.206 522.57 813.681 522.455 813.271 522.325C812.871 522.195 812.526 521.975 812.236 521.665C811.946 521.355 811.801 520.92 811.801 520.36C811.801 519.64 812.101 519.065 812.701 518.635C813.301 518.195 814.106 517.975 815.116 517.975C815.646 517.975 816.176 518.04 816.706 518.17C817.236 518.3 817.671 518.475 818.011 518.695L817.396 519.835C816.746 519.415 815.981 519.205 815.101 519.205C814.491 519.205 814.026 519.305 813.706 519.505C813.386 519.705 813.226 519.97 813.226 520.3C813.226 520.56 813.316 520.765 813.496 520.915C813.676 521.065 813.896 521.175 814.156 521.245C814.426 521.315 814.801 521.395 815.281 521.485C815.921 521.595 816.436 521.715 816.826 521.845C817.226 521.965 817.566 522.175 817.846 522.475C818.126 522.775 818.266 523.195 818.266 523.735C818.266 524.455 817.956 525.03 817.336 525.46C816.726 525.88 815.891 526.09 814.831 526.09ZM831.724 518.05L828.754 526H827.374L825.079 519.97L822.754 526H821.374L818.419 518.05H819.784L822.094 524.38L824.494 518.05H825.709L828.064 524.41L830.434 518.05H831.724ZM836.146 526.09C835.356 526.09 834.646 525.915 834.016 525.565C833.386 525.215 832.891 524.735 832.531 524.125C832.181 523.505 832.006 522.805 832.006 522.025C832.006 521.245 832.181 520.55 832.531 519.94C832.891 519.32 833.386 518.84 834.016 518.5C834.646 518.15 835.356 517.975 836.146 517.975C836.936 517.975 837.641 518.15 838.261 518.5C838.891 518.84 839.381 519.32 839.731 519.94C840.091 520.55 840.271 521.245 840.271 522.025C840.271 522.805 840.091 523.505 839.731 524.125C839.381 524.735 838.891 525.215 838.261 525.565C837.641 525.915 836.936 526.09 836.146 526.09ZM836.146 524.83C836.656 524.83 837.111 524.715 837.511 524.485C837.921 524.245 838.241 523.915 838.471 523.495C838.701 523.065 838.816 522.575 838.816 522.025C838.816 521.475 838.701 520.99 838.471 520.57C838.241 520.14 837.921 519.81 837.511 519.58C837.111 519.35 836.656 519.235 836.146 519.235C835.636 519.235 835.176 519.35 834.766 519.58C834.366 519.81 834.046 520.14 833.806 520.57C833.576 520.99 833.461 521.475 833.461 522.025C833.461 522.575 833.576 523.065 833.806 523.495C834.046 523.915 834.366 524.245 834.766 524.485C835.176 524.715 835.636 524.83 836.146 524.83ZM843.417 519.385C843.667 518.925 844.037 518.575 844.527 518.335C845.017 518.095 845.612 517.975 846.312 517.975V519.37C846.232 519.36 846.122 519.355 845.982 519.355C845.202 519.355 844.587 519.59 844.137 520.06C843.697 520.52 843.477 521.18 843.477 522.04V526H842.037V518.05H843.417V519.385ZM855.289 514.87V526H853.909V524.74C853.589 525.18 853.184 525.515 852.694 525.745C852.204 525.975 851.664 526.09 851.074 526.09C850.304 526.09 849.614 525.92 849.004 525.58C848.394 525.24 847.914 524.765 847.564 524.155C847.224 523.535 847.054 522.825 847.054 522.025C847.054 521.225 847.224 520.52 847.564 519.91C847.914 519.3 848.394 518.825 849.004 518.485C849.614 518.145 850.304 517.975 851.074 517.975C851.644 517.975 852.169 518.085 852.649 518.305C853.129 518.515 853.529 518.83 853.849 519.25V514.87H855.289ZM851.194 524.83C851.694 524.83 852.149 524.715 852.559 524.485C852.969 524.245 853.289 523.915 853.519 523.495C853.749 523.065 853.864 522.575 853.864 522.025C853.864 521.475 853.749 520.99 853.519 520.57C853.289 520.14 852.969 519.81 852.559 519.58C852.149 519.35 851.694 519.235 851.194 519.235C850.684 519.235 850.224 519.35 849.814 519.58C849.414 519.81 849.094 520.14 848.854 520.57C848.624 520.99 848.509 521.475 848.509 522.025C848.509 522.575 848.624 523.065 848.854 523.495C849.094 523.915 849.414 524.245 849.814 524.485C850.224 524.715 850.684 524.83 851.194 524.83ZM859.843 522.685C859.843 522.285 859.908 521.935 860.038 521.635C860.178 521.325 860.343 521.065 860.533 520.855C860.733 520.645 860.993 520.395 861.313 520.105C861.713 519.755 862.008 519.455 862.198 519.205C862.388 518.945 862.483 518.635 862.483 518.275C862.483 517.785 862.293 517.395 861.913 517.105C861.533 516.805 861.008 516.655 860.338 516.655C859.168 516.655 858.273 517.05 857.653 517.84L856.558 517.06C856.978 516.52 857.513 516.105 858.163 515.815C858.823 515.525 859.583 515.38 860.443 515.38C861.533 515.38 862.398 515.62 863.038 516.1C863.678 516.57 863.998 517.22 863.998 518.05C863.998 518.46 863.928 518.825 863.788 519.145C863.658 519.455 863.498 519.715 863.308 519.925C863.118 520.135 862.863 520.385 862.543 520.675C862.133 521.045 861.828 521.37 861.628 521.65C861.438 521.93 861.343 522.275 861.343 522.685H859.843ZM860.608 526.09C860.328 526.09 860.093 526 859.903 525.82C859.723 525.63 859.633 525.4 859.633 525.13C859.633 524.86 859.723 524.635 859.903 524.455C860.093 524.265 860.328 524.17 860.608 524.17C860.888 524.17 861.118 524.265 861.298 524.455C861.478 524.635 861.568 524.86 861.568 525.13C861.568 525.4 861.473 525.63 861.283 525.82C861.103 526 860.878 526.09 860.608 526.09Z" fill="black"/>
<path d="M749.517 289.288C748.189 289.288 746.901 289.112 745.653 288.76C744.421 288.392 743.429 287.92 742.677 287.344L743.997 284.416C744.717 284.944 745.573 285.368 746.565 285.688C747.557 286.008 748.549 286.168 749.541 286.168C750.645 286.168 751.461 286.008 751.989 285.688C752.517 285.352 752.781 284.912 752.781 284.368C752.781 283.968 752.621 283.64 752.301 283.384C751.997 283.112 751.597 282.896 751.101 282.736C750.621 282.576 749.965 282.4 749.133 282.208C747.853 281.904 746.805 281.6 745.989 281.296C745.173 280.992 744.469 280.504 743.877 279.832C743.301 279.16 743.013 278.264 743.013 277.144C743.013 276.168 743.277 275.288 743.805 274.504C744.333 273.704 745.125 273.072 746.181 272.608C747.253 272.144 748.557 271.912 750.093 271.912C751.165 271.912 752.213 272.04 753.237 272.296C754.261 272.552 755.157 272.92 755.925 273.4L754.725 276.352C753.173 275.472 751.621 275.032 750.069 275.032C748.981 275.032 748.173 275.208 747.645 275.56C747.133 275.912 746.877 276.376 746.877 276.952C746.877 277.528 747.173 277.96 747.765 278.248C748.373 278.52 749.293 278.792 750.525 279.064C751.805 279.368 752.853 279.672 753.669 279.976C754.485 280.28 755.181 280.76 755.757 281.416C756.349 282.072 756.645 282.96 756.645 284.08C756.645 285.04 756.373 285.92 755.829 286.72C755.301 287.504 754.501 288.128 753.429 288.592C752.357 289.056 751.053 289.288 749.517 289.288ZM758.678 276.088H762.422V289H758.678V276.088ZM760.55 274.288C759.862 274.288 759.302 274.088 758.87 273.688C758.438 273.288 758.222 272.792 758.222 272.2C758.222 271.608 758.438 271.112 758.87 270.712C759.302 270.312 759.862 270.112 760.55 270.112C761.238 270.112 761.798 270.304 762.23 270.688C762.662 271.072 762.878 271.552 762.878 272.128C762.878 272.752 762.662 273.272 762.23 273.688C761.798 274.088 761.238 274.288 760.55 274.288ZM778.856 276.088V286.84C778.856 289.208 778.24 290.968 777.008 292.12C775.776 293.272 773.976 293.848 771.608 293.848C770.36 293.848 769.176 293.696 768.056 293.392C766.936 293.088 766.008 292.648 765.272 292.072L766.76 289.384C767.304 289.832 767.992 290.184 768.824 290.44C769.656 290.712 770.488 290.848 771.32 290.848C772.616 290.848 773.568 290.552 774.176 289.96C774.8 289.384 775.112 288.504 775.112 287.32V286.768C774.136 287.84 772.776 288.376 771.032 288.376C769.848 288.376 768.76 288.12 767.768 287.608C766.792 287.08 766.016 286.344 765.44 285.4C764.864 284.456 764.576 283.368 764.576 282.136C764.576 280.904 764.864 279.816 765.44 278.872C766.016 277.928 766.792 277.2 767.768 276.688C768.76 276.16 769.848 275.896 771.032 275.896C772.904 275.896 774.328 276.512 775.304 277.744V276.088H778.856ZM771.776 285.304C772.768 285.304 773.576 285.016 774.2 284.44C774.84 283.848 775.16 283.08 775.16 282.136C775.16 281.192 774.84 280.432 774.2 279.856C773.576 279.264 772.768 278.968 771.776 278.968C770.784 278.968 769.968 279.264 769.328 279.856C768.688 280.432 768.368 281.192 768.368 282.136C768.368 283.08 768.688 283.848 769.328 284.44C769.968 285.016 770.784 285.304 771.776 285.304ZM789.829 275.896C791.429 275.896 792.717 276.376 793.693 277.336C794.685 278.296 795.181 279.72 795.181 281.608V289H791.437V282.184C791.437 281.16 791.213 280.4 790.765 279.904C790.317 279.392 789.669 279.136 788.821 279.136C787.877 279.136 787.125 279.432 786.565 280.024C786.005 280.6 785.725 281.464 785.725 282.616V289H781.981V276.088H785.557V277.6C786.053 277.056 786.669 276.64 787.405 276.352C788.141 276.048 788.949 275.896 789.829 275.896ZM804.652 276.088H808.396V289H804.652V276.088ZM806.524 274.288C805.836 274.288 805.276 274.088 804.844 273.688C804.412 273.288 804.196 272.792 804.196 272.2C804.196 271.608 804.412 271.112 804.844 270.712C805.276 270.312 805.836 270.112 806.524 270.112C807.212 270.112 807.772 270.304 808.204 270.688C808.636 271.072 808.852 271.552 808.852 272.128C808.852 272.752 808.636 273.272 808.204 273.688C807.772 274.088 807.212 274.288 806.524 274.288ZM819.358 275.896C820.958 275.896 822.246 276.376 823.222 277.336C824.214 278.296 824.71 279.72 824.71 281.608V289H820.966V282.184C820.966 281.16 820.742 280.4 820.294 279.904C819.846 279.392 819.198 279.136 818.35 279.136C817.406 279.136 816.654 279.432 816.094 280.024C815.534 280.6 815.254 281.464 815.254 282.616V289H811.51V276.088H815.086V277.6C815.582 277.056 816.198 276.64 816.934 276.352C817.67 276.048 818.478 275.896 819.358 275.896ZM854.917 276.088L850.237 289H846.637L843.733 280.984L840.733 289H837.133L832.477 276.088H836.005L839.053 284.824L842.221 276.088H845.389L848.461 284.824L851.605 276.088H854.917ZM856.298 276.088H860.042V289H856.298V276.088ZM858.17 274.288C857.482 274.288 856.922 274.088 856.49 273.688C856.058 273.288 855.842 272.792 855.842 272.2C855.842 271.608 856.058 271.112 856.49 270.712C856.922 270.312 857.482 270.112 858.17 270.112C858.858 270.112 859.418 270.304 859.85 270.688C860.282 271.072 860.498 271.552 860.498 272.128C860.498 272.752 860.282 273.272 859.85 273.688C859.418 274.088 858.858 274.288 858.17 274.288ZM871.484 288.376C871.116 288.648 870.66 288.856 870.116 289C869.588 289.128 869.028 289.192 868.436 289.192C866.9 289.192 865.708 288.8 864.86 288.016C864.028 287.232 863.612 286.08 863.612 284.56V279.256H861.62V276.376H863.612V273.232H867.356V276.376H870.572V279.256H867.356V284.512C867.356 285.056 867.492 285.48 867.764 285.784C868.052 286.072 868.452 286.216 868.964 286.216C869.556 286.216 870.06 286.056 870.476 285.736L871.484 288.376ZM881.074 275.896C882.674 275.896 883.962 276.376 884.938 277.336C885.93 278.296 886.426 279.72 886.426 281.608V289H882.682V282.184C882.682 281.16 882.458 280.4 882.01 279.904C881.562 279.392 880.914 279.136 880.066 279.136C879.122 279.136 878.37 279.432 877.81 280.024C877.25 280.6 876.97 281.464 876.97 282.616V289H873.226V271.192H876.97V277.432C877.466 276.936 878.066 276.56 878.77 276.304C879.474 276.032 880.242 275.896 881.074 275.896ZM908.545 282.592C908.545 282.64 908.521 282.976 908.473 283.6H898.705C898.881 284.4 899.297 285.032 899.953 285.496C900.609 285.96 901.425 286.192 902.401 286.192C903.073 286.192 903.665 286.096 904.177 285.904C904.705 285.696 905.193 285.376 905.641 284.944L907.633 287.104C906.417 288.496 904.641 289.192 902.305 289.192C900.849 289.192 899.561 288.912 898.441 288.352C897.321 287.776 896.457 286.984 895.849 285.976C895.241 284.968 894.937 283.824 894.937 282.544C894.937 281.28 895.233 280.144 895.825 279.136C896.433 278.112 897.257 277.32 898.297 276.76C899.353 276.184 900.529 275.896 901.825 275.896C903.089 275.896 904.233 276.168 905.257 276.712C906.281 277.256 907.081 278.04 907.657 279.064C908.249 280.072 908.545 281.248 908.545 282.592ZM901.849 278.728C901.001 278.728 900.289 278.968 899.713 279.448C899.137 279.928 898.785 280.584 898.657 281.416H905.017C904.889 280.6 904.537 279.952 903.961 279.472C903.385 278.976 902.681 278.728 901.849 278.728ZM918.534 289L915.702 285.04L912.774 289H908.694L913.662 282.496L908.862 276.088H913.062L915.798 279.856L918.606 276.088H922.59L917.79 282.4L922.782 289H918.534ZM924.239 276.088H927.983V289H924.239V276.088ZM926.111 274.288C925.423 274.288 924.863 274.088 924.431 273.688C923.999 273.288 923.783 272.792 923.783 272.2C923.783 271.608 923.999 271.112 924.431 270.712C924.863 270.312 925.423 270.112 926.111 270.112C926.799 270.112 927.359 270.304 927.791 270.688C928.223 271.072 928.439 271.552 928.439 272.128C928.439 272.752 928.223 273.272 927.791 273.688C927.359 274.088 926.799 274.288 926.111 274.288ZM935.442 289.192C934.37 289.192 933.322 289.064 932.298 288.808C931.274 288.536 930.458 288.2 929.85 287.8L931.098 285.112C931.674 285.48 932.37 285.784 933.186 286.024C934.002 286.248 934.802 286.36 935.586 286.36C937.17 286.36 937.962 285.968 937.962 285.184C937.962 284.816 937.746 284.552 937.314 284.392C936.882 284.232 936.218 284.096 935.322 283.984C934.266 283.824 933.394 283.64 932.706 283.432C932.018 283.224 931.418 282.856 930.906 282.328C930.41 281.8 930.162 281.048 930.162 280.072C930.162 279.256 930.394 278.536 930.858 277.912C931.338 277.272 932.026 276.776 932.922 276.424C933.834 276.072 934.906 275.896 936.138 275.896C937.05 275.896 937.954 276 938.85 276.208C939.762 276.4 940.514 276.672 941.106 277.024L939.858 279.688C938.722 279.048 937.482 278.728 936.138 278.728C935.338 278.728 934.738 278.84 934.338 279.064C933.938 279.288 933.738 279.576 933.738 279.928C933.738 280.328 933.954 280.608 934.386 280.768C934.818 280.928 935.506 281.08 936.45 281.224C937.506 281.4 938.37 281.592 939.042 281.8C939.714 281.992 940.298 282.352 940.794 282.88C941.29 283.408 941.538 284.144 941.538 285.088C941.538 285.888 941.298 286.6 940.818 287.224C940.338 287.848 939.634 288.336 938.706 288.688C937.794 289.024 936.706 289.192 935.442 289.192ZM951.816 288.376C951.448 288.648 950.992 288.856 950.448 289C949.92 289.128 949.36 289.192 948.768 289.192C947.232 289.192 946.04 288.8 945.192 288.016C944.36 287.232 943.944 286.08 943.944 284.56V279.256H941.952V276.376H943.944V273.232H947.688V276.376H950.904V279.256H947.688V284.512C947.688 285.056 947.824 285.48 948.096 285.784C948.384 286.072 948.784 286.216 949.296 286.216C949.888 286.216 950.392 286.056 950.808 285.736L951.816 288.376ZM953.558 276.088H957.302V289H953.558V276.088ZM955.43 274.288C954.742 274.288 954.182 274.088 953.75 273.688C953.318 273.288 953.102 272.792 953.102 272.2C953.102 271.608 953.318 271.112 953.75 270.712C954.182 270.312 954.742 270.112 955.43 270.112C956.118 270.112 956.678 270.304 957.11 270.688C957.542 271.072 957.758 271.552 957.758 272.128C957.758 272.752 957.542 273.272 957.11 273.688C956.678 274.088 956.118 274.288 955.43 274.288ZM968.264 275.896C969.864 275.896 971.152 276.376 972.128 277.336C973.12 278.296 973.616 279.72 973.616 281.608V289H969.872V282.184C969.872 281.16 969.648 280.4 969.2 279.904C968.752 279.392 968.104 279.136 967.256 279.136C966.312 279.136 965.56 279.432 965 280.024C964.44 280.6 964.16 281.464 964.16 282.616V289H960.416V276.088H963.992V277.6C964.488 277.056 965.104 276.64 965.84 276.352C966.576 276.048 967.384 275.896 968.264 275.896ZM990.111 276.088V286.84C990.111 289.208 989.495 290.968 988.263 292.12C987.031 293.272 985.231 293.848 982.863 293.848C981.615 293.848 980.431 293.696 979.311 293.392C978.191 293.088 977.263 292.648 976.527 292.072L978.015 289.384C978.559 289.832 979.247 290.184 980.079 290.44C980.911 290.712 981.743 290.848 982.575 290.848C983.871 290.848 984.823 290.552 985.431 289.96C986.055 289.384 986.367 288.504 986.367 287.32V286.768C985.391 287.84 984.031 288.376 982.287 288.376C981.103 288.376 980.015 288.12 979.023 287.608C978.047 287.08 977.271 286.344 976.695 285.4C976.119 284.456 975.831 283.368 975.831 282.136C975.831 280.904 976.119 279.816 976.695 278.872C977.271 277.928 978.047 277.2 979.023 276.688C980.015 276.16 981.103 275.896 982.287 275.896C984.159 275.896 985.583 276.512 986.559 277.744V276.088H990.111ZM983.031 285.304C984.023 285.304 984.831 285.016 985.455 284.44C986.095 283.848 986.415 283.08 986.415 282.136C986.415 281.192 986.095 280.432 985.455 279.856C984.831 279.264 984.023 278.968 983.031 278.968C982.039 278.968 981.223 279.264 980.583 279.856C979.943 280.432 979.623 281.192 979.623 282.136C979.623 283.08 979.943 283.848 980.583 284.44C981.223 285.016 982.039 285.304 983.031 285.304ZM1004.88 275.896C1006.88 275.896 1008.42 276.376 1009.49 277.336C1010.56 278.28 1011.1 279.712 1011.1 281.632V289H1007.59V287.392C1006.89 288.592 1005.58 289.192 1003.66 289.192C1002.66 289.192 1001.8 289.024 1001.06 288.688C1000.34 288.352 999.792 287.888 999.408 287.296C999.024 286.704 998.832 286.032 998.832 285.28C998.832 284.08 999.28 283.136 1000.18 282.448C1001.09 281.76 1002.49 281.416 1004.38 281.416H1007.35C1007.35 280.6 1007.1 279.976 1006.61 279.544C1006.11 279.096 1005.37 278.872 1004.38 278.872C1003.69 278.872 1003.01 278.984 1002.34 279.208C1001.68 279.416 1001.12 279.704 1000.66 280.072L999.312 277.456C1000.02 276.96 1000.86 276.576 1001.83 276.304C1002.82 276.032 1003.84 275.896 1004.88 275.896ZM1004.59 286.672C1005.23 286.672 1005.8 286.528 1006.3 286.24C1006.79 285.936 1007.14 285.496 1007.35 284.92V283.6H1004.78C1003.25 283.6 1002.48 284.104 1002.48 285.112C1002.48 285.592 1002.66 285.976 1003.03 286.264C1003.42 286.536 1003.94 286.672 1004.59 286.672ZM1020.51 289.192C1019.13 289.192 1017.89 288.912 1016.79 288.352C1015.7 287.776 1014.84 286.984 1014.22 285.976C1013.61 284.968 1013.31 283.824 1013.31 282.544C1013.31 281.264 1013.61 280.12 1014.22 279.112C1014.84 278.104 1015.7 277.32 1016.79 276.76C1017.89 276.184 1019.13 275.896 1020.51 275.896C1021.87 275.896 1023.05 276.184 1024.06 276.76C1025.08 277.32 1025.83 278.128 1026.29 279.184L1023.39 280.744C1022.71 279.56 1021.75 278.968 1020.48 278.968C1019.51 278.968 1018.7 279.288 1018.06 279.928C1017.42 280.568 1017.1 281.44 1017.1 282.544C1017.1 283.648 1017.42 284.52 1018.06 285.16C1018.7 285.8 1019.51 286.12 1020.48 286.12C1021.76 286.12 1022.73 285.528 1023.39 284.344L1026.29 285.928C1025.83 286.952 1025.08 287.752 1024.06 288.328C1023.05 288.904 1021.87 289.192 1020.51 289.192ZM1034.16 289.192C1032.78 289.192 1031.54 288.912 1030.44 288.352C1029.35 287.776 1028.5 286.984 1027.87 285.976C1027.26 284.968 1026.96 283.824 1026.96 282.544C1026.96 281.264 1027.26 280.12 1027.87 279.112C1028.5 278.104 1029.35 277.32 1030.44 276.76C1031.54 276.184 1032.78 275.896 1034.16 275.896C1035.52 275.896 1036.7 276.184 1037.71 276.76C1038.74 277.32 1039.48 278.128 1039.94 279.184L1037.04 280.744C1036.37 279.56 1035.4 278.968 1034.14 278.968C1033.16 278.968 1032.35 279.288 1031.71 279.928C1031.07 280.568 1030.75 281.44 1030.75 282.544C1030.75 283.648 1031.07 284.52 1031.71 285.16C1032.35 285.8 1033.16 286.12 1034.14 286.12C1035.42 286.12 1036.38 285.528 1037.04 284.344L1039.94 285.928C1039.48 286.952 1038.74 287.752 1037.71 288.328C1036.7 288.904 1035.52 289.192 1034.16 289.192ZM1047.72 289.192C1046.36 289.192 1045.14 288.912 1044.05 288.352C1042.98 287.776 1042.14 286.984 1041.53 285.976C1040.92 284.968 1040.62 283.824 1040.62 282.544C1040.62 281.264 1040.92 280.12 1041.53 279.112C1042.14 278.104 1042.98 277.32 1044.05 276.76C1045.14 276.184 1046.36 275.896 1047.72 275.896C1049.08 275.896 1050.3 276.184 1051.37 276.76C1052.44 277.32 1053.28 278.104 1053.89 279.112C1054.5 280.12 1054.8 281.264 1054.8 282.544C1054.8 283.824 1054.5 284.968 1053.89 285.976C1053.28 286.984 1052.44 287.776 1051.37 288.352C1050.3 288.912 1049.08 289.192 1047.72 289.192ZM1047.72 286.12C1048.68 286.12 1049.46 285.8 1050.07 285.16C1050.7 284.504 1051.01 283.632 1051.01 282.544C1051.01 281.456 1050.7 280.592 1050.07 279.952C1049.46 279.296 1048.68 278.968 1047.72 278.968C1046.76 278.968 1045.97 279.296 1045.34 279.952C1044.72 280.592 1044.41 281.456 1044.41 282.544C1044.41 283.632 1044.72 284.504 1045.34 285.16C1045.97 285.8 1046.76 286.12 1047.72 286.12ZM1069.95 276.088V289H1066.4V287.464C1065.9 288.024 1065.31 288.456 1064.62 288.76C1063.94 289.048 1063.19 289.192 1062.39 289.192C1060.7 289.192 1059.35 288.704 1058.36 287.728C1057.37 286.752 1056.87 285.304 1056.87 283.384V276.088H1060.62V282.832C1060.62 284.912 1061.49 285.952 1063.23 285.952C1064.13 285.952 1064.85 285.664 1065.39 285.088C1065.94 284.496 1066.21 283.624 1066.21 282.472V276.088H1069.95ZM1080.91 275.896C1082.51 275.896 1083.8 276.376 1084.77 277.336C1085.76 278.296 1086.26 279.72 1086.26 281.608V289H1082.52V282.184C1082.52 281.16 1082.29 280.4 1081.84 279.904C1081.4 279.392 1080.75 279.136 1079.9 279.136C1078.96 279.136 1078.2 279.432 1077.64 280.024C1077.08 280.6 1076.8 281.464 1076.8 282.616V289H1073.06V276.088H1076.64V277.6C1077.13 277.056 1077.75 276.64 1078.48 276.352C1079.22 276.048 1080.03 275.896 1080.91 275.896ZM1097.62 288.376C1097.25 288.648 1096.8 288.856 1096.25 289C1095.73 289.128 1095.17 289.192 1094.57 289.192C1093.04 289.192 1091.85 288.8 1091 288.016C1090.17 287.232 1089.75 286.08 1089.75 284.56V279.256H1087.76V276.376H1089.75V273.232H1093.49V276.376H1096.71V279.256H1093.49V284.512C1093.49 285.056 1093.63 285.48 1093.9 285.784C1094.19 286.072 1094.59 286.216 1095.1 286.216C1095.69 286.216 1096.2 286.056 1096.61 285.736L1097.62 288.376Z" fill="black"/>
<rect x="673" y="450" width="494" height="40" rx="6" fill="#4F4F4F"/>
<path d="M899.06 475.12C898.27 475.12 897.505 475 896.765 474.76C896.035 474.51 895.46 474.19 895.04 473.8L895.595 472.63C895.995 472.99 896.505 473.285 897.125 473.515C897.755 473.735 898.4 473.845 899.06 473.845C899.93 473.845 900.58 473.7 901.01 473.41C901.44 473.11 901.655 472.715 901.655 472.225C901.655 471.865 901.535 471.575 901.295 471.355C901.065 471.125 900.775 470.95 900.425 470.83C900.085 470.71 899.6 470.575 898.97 470.425C898.18 470.235 897.54 470.045 897.05 469.855C896.57 469.665 896.155 469.375 895.805 468.985C895.465 468.585 895.295 468.05 895.295 467.38C895.295 466.82 895.44 466.315 895.73 465.865C896.03 465.415 896.48 465.055 897.08 464.785C897.68 464.515 898.425 464.38 899.315 464.38C899.935 464.38 900.545 464.46 901.145 464.62C901.745 464.78 902.26 465.01 902.69 465.31L902.195 466.51C901.755 466.23 901.285 466.02 900.785 465.88C900.285 465.73 899.795 465.655 899.315 465.655C898.465 465.655 897.825 465.81 897.395 466.12C896.975 466.43 896.765 466.83 896.765 467.32C896.765 467.68 896.885 467.975 897.125 468.205C897.365 468.425 897.66 468.6 898.01 468.73C898.37 468.85 898.855 468.98 899.465 469.12C900.255 469.31 900.89 469.5 901.37 469.69C901.85 469.88 902.26 470.17 902.6 470.56C902.95 470.95 903.125 471.475 903.125 472.135C903.125 472.685 902.975 473.19 902.675 473.65C902.375 474.1 901.92 474.46 901.31 474.73C900.7 474.99 899.95 475.12 899.06 475.12ZM904.881 467.05H906.321V475H904.881V467.05ZM905.601 465.52C905.321 465.52 905.086 465.43 904.896 465.25C904.716 465.07 904.626 464.85 904.626 464.59C904.626 464.33 904.716 464.11 904.896 463.93C905.086 463.74 905.321 463.645 905.601 463.645C905.881 463.645 906.111 463.735 906.291 463.915C906.481 464.085 906.576 464.3 906.576 464.56C906.576 464.83 906.481 465.06 906.291 465.25C906.111 465.43 905.881 465.52 905.601 465.52ZM916.451 467.05V473.92C916.451 475.31 916.106 476.335 915.416 476.995C914.726 477.665 913.696 478 912.326 478C911.576 478 910.861 477.895 910.181 477.685C909.501 477.485 908.951 477.195 908.531 476.815L909.221 475.705C909.591 476.025 910.046 476.275 910.586 476.455C911.136 476.645 911.701 476.74 912.281 476.74C913.211 476.74 913.896 476.52 914.336 476.08C914.786 475.64 915.011 474.97 915.011 474.07V473.44C914.671 473.85 914.251 474.16 913.751 474.37C913.261 474.57 912.726 474.67 912.146 474.67C911.386 474.67 910.696 474.51 910.076 474.19C909.466 473.86 908.986 473.405 908.636 472.825C908.286 472.235 908.111 471.565 908.111 470.815C908.111 470.065 908.286 469.4 908.636 468.82C908.986 468.23 909.466 467.775 910.076 467.455C910.696 467.135 911.386 466.975 912.146 466.975C912.746 466.975 913.301 467.085 913.811 467.305C914.331 467.525 914.756 467.85 915.086 468.28V467.05H916.451ZM912.311 473.41C912.831 473.41 913.296 473.3 913.706 473.08C914.126 472.86 914.451 472.555 914.681 472.165C914.921 471.765 915.041 471.315 915.041 470.815C915.041 470.045 914.786 469.425 914.276 468.955C913.766 468.475 913.111 468.235 912.311 468.235C911.501 468.235 910.841 468.475 910.331 468.955C909.821 469.425 909.566 470.045 909.566 470.815C909.566 471.315 909.681 471.765 909.911 472.165C910.151 472.555 910.476 472.86 910.886 473.08C911.306 473.3 911.781 473.41 912.311 473.41ZM923.222 466.975C924.232 466.975 925.032 467.27 925.622 467.86C926.222 468.44 926.522 469.295 926.522 470.425V475H925.082V470.59C925.082 469.82 924.897 469.24 924.527 468.85C924.157 468.46 923.627 468.265 922.937 468.265C922.157 468.265 921.542 468.495 921.092 468.955C920.642 469.405 920.417 470.055 920.417 470.905V475H918.977V467.05H920.357V468.25C920.647 467.84 921.037 467.525 921.527 467.305C922.027 467.085 922.592 466.975 923.222 466.975ZM932.766 467.05H934.206V475H932.766V467.05ZM933.486 465.52C933.206 465.52 932.971 465.43 932.781 465.25C932.601 465.07 932.511 464.85 932.511 464.59C932.511 464.33 932.601 464.11 932.781 463.93C932.971 463.74 933.206 463.645 933.486 463.645C933.766 463.645 933.996 463.735 934.176 463.915C934.366 464.085 934.461 464.3 934.461 464.56C934.461 464.83 934.366 465.06 934.176 465.25C933.996 465.43 933.766 465.52 933.486 465.52ZM940.975 466.975C941.985 466.975 942.785 467.27 943.375 467.86C943.975 468.44 944.275 469.295 944.275 470.425V475H942.835V470.59C942.835 469.82 942.65 469.24 942.28 468.85C941.91 468.46 941.38 468.265 940.69 468.265C939.91 468.265 939.295 468.495 938.845 468.955C938.395 469.405 938.17 470.055 938.17 470.905V475H936.73V467.05H938.11V468.25C938.4 467.84 938.79 467.525 939.28 467.305C939.78 467.085 940.345 466.975 940.975 466.975Z" fill="white"/>
<rect x="673" y="322" width="494" height="40" fill="white"/>
<rect x="673.5" y="322.5" width="493" height="39" stroke="black" stroke-opacity="0.5"/>
<path d="M696.135 346.04V347H688.71V336.5H695.91V337.46H689.82V341.195H695.25V342.14H689.82V346.04H696.135ZM708.134 339.05C709.124 339.05 709.899 339.335 710.459 339.905C711.029 340.475 711.314 341.315 711.314 342.425V347H710.249V342.53C710.249 341.71 710.049 341.085 709.649 340.655C709.259 340.225 708.704 340.01 707.984 340.01C707.164 340.01 706.519 340.265 706.049 340.775C705.579 341.275 705.344 341.97 705.344 342.86V347H704.279V342.53C704.279 341.71 704.079 341.085 703.679 340.655C703.289 340.225 702.729 340.01 701.999 340.01C701.189 340.01 700.544 340.265 700.064 340.775C699.594 341.275 699.359 341.97 699.359 342.86V347H698.294V339.11H699.314V340.55C699.594 340.07 699.984 339.7 700.484 339.44C700.984 339.18 701.559 339.05 702.209 339.05C702.869 339.05 703.439 339.19 703.919 339.47C704.409 339.75 704.774 340.165 705.014 340.715C705.304 340.195 705.719 339.79 706.259 339.5C706.809 339.2 707.434 339.05 708.134 339.05ZM716.737 339.05C717.767 339.05 718.557 339.31 719.107 339.83C719.657 340.34 719.932 341.1 719.932 342.11V347H718.912V345.77C718.672 346.18 718.317 346.5 717.847 346.73C717.387 346.96 716.837 347.075 716.197 347.075C715.317 347.075 714.617 346.865 714.097 346.445C713.577 346.025 713.317 345.47 713.317 344.78C713.317 344.11 713.557 343.57 714.037 343.16C714.527 342.75 715.302 342.545 716.362 342.545H718.867V342.065C718.867 341.385 718.677 340.87 718.297 340.52C717.917 340.16 717.362 339.98 716.632 339.98C716.132 339.98 715.652 340.065 715.192 340.235C714.732 340.395 714.337 340.62 714.007 340.91L713.527 340.115C713.927 339.775 714.407 339.515 714.967 339.335C715.527 339.145 716.117 339.05 716.737 339.05ZM716.362 346.235C716.962 346.235 717.477 346.1 717.907 345.83C718.337 345.55 718.657 345.15 718.867 344.63V343.34H716.392C715.042 343.34 714.367 343.81 714.367 344.75C714.367 345.21 714.542 345.575 714.892 345.845C715.242 346.105 715.732 346.235 716.362 346.235ZM722.6 339.11H723.665V347H722.6V339.11ZM723.14 337.385C722.92 337.385 722.735 337.31 722.585 337.16C722.435 337.01 722.36 336.83 722.36 336.62C722.36 336.42 722.435 336.245 722.585 336.095C722.735 335.945 722.92 335.87 723.14 335.87C723.36 335.87 723.545 335.945 723.695 336.095C723.845 336.235 723.92 336.405 723.92 336.605C723.92 336.825 723.845 337.01 723.695 337.16C723.545 337.31 723.36 337.385 723.14 337.385ZM726.403 335.87H727.468V347H726.403V335.87ZM736.667 339.05C737.697 339.05 738.487 339.31 739.037 339.83C739.587 340.34 739.862 341.1 739.862 342.11V347H738.842V345.77C738.602 346.18 738.247 346.5 737.777 346.73C737.317 346.96 736.767 347.075 736.127 347.075C735.247 347.075 734.547 346.865 734.027 346.445C733.507 346.025 733.247 345.47 733.247 344.78C733.247 344.11 733.487 343.57 733.967 343.16C734.457 342.75 735.232 342.545 736.292 342.545H738.797V342.065C738.797 341.385 738.607 340.87 738.227 340.52C737.847 340.16 737.292 339.98 736.562 339.98C736.062 339.98 735.582 340.065 735.122 340.235C734.662 340.395 734.267 340.62 733.937 340.91L733.457 340.115C733.857 339.775 734.337 339.515 734.897 339.335C735.457 339.145 736.047 339.05 736.667 339.05ZM736.292 346.235C736.892 346.235 737.407 346.1 737.837 345.83C738.267 345.55 738.587 345.15 738.797 344.63V343.34H736.322C734.972 343.34 734.297 343.81 734.297 344.75C734.297 345.21 734.472 345.575 734.822 345.845C735.172 346.105 735.662 346.235 736.292 346.235ZM749.759 335.87V347H748.739V345.44C748.419 345.97 747.994 346.375 747.464 346.655C746.944 346.935 746.354 347.075 745.694 347.075C744.954 347.075 744.284 346.905 743.684 346.565C743.084 346.225 742.614 345.75 742.274 345.14C741.934 344.53 741.764 343.835 741.764 343.055C741.764 342.275 741.934 341.58 742.274 340.97C742.614 340.36 743.084 339.89 743.684 339.56C744.284 339.22 744.954 339.05 745.694 339.05C746.334 339.05 746.909 339.185 747.419 339.455C747.939 339.715 748.364 340.1 748.694 340.61V335.87H749.759ZM745.784 346.13C746.334 346.13 746.829 346.005 747.269 345.755C747.719 345.495 748.069 345.13 748.319 344.66C748.579 344.19 748.709 343.655 748.709 343.055C748.709 342.455 748.579 341.92 748.319 341.45C748.069 340.98 747.719 340.62 747.269 340.37C746.829 340.11 746.334 339.98 745.784 339.98C745.224 339.98 744.719 340.11 744.269 340.37C743.829 340.62 743.479 340.98 743.219 341.45C742.969 341.92 742.844 342.455 742.844 343.055C742.844 343.655 742.969 344.19 743.219 344.66C743.479 345.13 743.829 345.495 744.269 345.755C744.719 346.005 745.224 346.13 745.784 346.13ZM759.7 335.87V347H758.68V345.44C758.36 345.97 757.935 346.375 757.405 346.655C756.885 346.935 756.295 347.075 755.635 347.075C754.895 347.075 754.225 346.905 753.625 346.565C753.025 346.225 752.555 345.75 752.215 345.14C751.875 344.53 751.705 343.835 751.705 343.055C751.705 342.275 751.875 341.58 752.215 340.97C752.555 340.36 753.025 339.89 753.625 339.56C754.225 339.22 754.895 339.05 755.635 339.05C756.275 339.05 756.85 339.185 757.36 339.455C757.88 339.715 758.305 340.1 758.635 340.61V335.87H759.7ZM755.725 346.13C756.275 346.13 756.77 346.005 757.21 345.755C757.66 345.495 758.01 345.13 758.26 344.66C758.52 344.19 758.65 343.655 758.65 343.055C758.65 342.455 758.52 341.92 758.26 341.45C758.01 340.98 757.66 340.62 757.21 340.37C756.77 340.11 756.275 339.98 755.725 339.98C755.165 339.98 754.66 340.11 754.21 340.37C753.77 340.62 753.42 340.98 753.16 341.45C752.91 341.92 752.785 342.455 752.785 343.055C752.785 343.655 752.91 344.19 753.16 344.66C753.42 345.13 753.77 345.495 754.21 345.755C754.66 346.005 755.165 346.13 755.725 346.13ZM763.461 340.655C763.711 340.125 764.081 339.725 764.571 339.455C765.071 339.185 765.686 339.05 766.416 339.05V340.085L766.161 340.07C765.331 340.07 764.681 340.325 764.211 340.835C763.741 341.345 763.506 342.06 763.506 342.98V347H762.441V339.11H763.461V340.655ZM774.917 343.385H768.317C768.377 344.205 768.692 344.87 769.262 345.38C769.832 345.88 770.552 346.13 771.422 346.13C771.912 346.13 772.362 346.045 772.772 345.875C773.182 345.695 773.537 345.435 773.837 345.095L774.437 345.785C774.087 346.205 773.647 346.525 773.117 346.745C772.597 346.965 772.022 347.075 771.392 347.075C770.582 347.075 769.862 346.905 769.232 346.565C768.612 346.215 768.127 345.735 767.777 345.125C767.427 344.515 767.252 343.825 767.252 343.055C767.252 342.285 767.417 341.595 767.747 340.985C768.087 340.375 768.547 339.9 769.127 339.56C769.717 339.22 770.377 339.05 771.107 339.05C771.837 339.05 772.492 339.22 773.072 339.56C773.652 339.9 774.107 340.375 774.437 340.985C774.767 341.585 774.932 342.275 774.932 343.055L774.917 343.385ZM771.107 339.965C770.347 339.965 769.707 340.21 769.187 340.7C768.677 341.18 768.387 341.81 768.317 342.59H773.912C773.842 341.81 773.547 341.18 773.027 340.7C772.517 340.21 771.877 339.965 771.107 339.965ZM778.989 347.075C778.349 347.075 777.734 346.985 777.144 346.805C776.564 346.615 776.109 346.38 775.779 346.1L776.259 345.26C776.589 345.52 777.004 345.735 777.504 345.905C778.004 346.065 778.524 346.145 779.064 346.145C779.784 346.145 780.314 346.035 780.654 345.815C781.004 345.585 781.179 345.265 781.179 344.855C781.179 344.565 781.084 344.34 780.894 344.18C780.704 344.01 780.464 343.885 780.174 343.805C779.884 343.715 779.499 343.63 779.019 343.55C778.379 343.43 777.864 343.31 777.474 343.19C777.084 343.06 776.749 342.845 776.469 342.545C776.199 342.245 776.064 341.83 776.064 341.3C776.064 340.64 776.339 340.1 776.889 339.68C777.439 339.26 778.204 339.05 779.184 339.05C779.694 339.05 780.204 339.12 780.714 339.26C781.224 339.39 781.644 339.565 781.974 339.785L781.509 340.64C780.859 340.19 780.084 339.965 779.184 339.965C778.504 339.965 777.989 340.085 777.639 340.325C777.299 340.565 777.129 340.88 777.129 341.27C777.129 341.57 777.224 341.81 777.414 341.99C777.614 342.17 777.859 342.305 778.149 342.395C778.439 342.475 778.839 342.56 779.349 342.65C779.979 342.77 780.484 342.89 780.864 343.01C781.244 343.13 781.569 343.335 781.839 343.625C782.109 343.915 782.244 344.315 782.244 344.825C782.244 345.515 781.954 346.065 781.374 346.475C780.804 346.875 780.009 347.075 778.989 347.075ZM786.103 347.075C785.463 347.075 784.848 346.985 784.258 346.805C783.678 346.615 783.223 346.38 782.893 346.1L783.373 345.26C783.703 345.52 784.118 345.735 784.618 345.905C785.118 346.065 785.638 346.145 786.178 346.145C786.898 346.145 787.428 346.035 787.768 345.815C788.118 345.585 788.293 345.265 788.293 344.855C788.293 344.565 788.198 344.34 788.008 344.18C787.818 344.01 787.578 343.885 787.288 343.805C786.998 343.715 786.613 343.63 786.133 343.55C785.493 343.43 784.978 343.31 784.588 343.19C784.198 343.06 783.863 342.845 783.583 342.545C783.313 342.245 783.178 341.83 783.178 341.3C783.178 340.64 783.453 340.1 784.003 339.68C784.553 339.26 785.318 339.05 786.298 339.05C786.808 339.05 787.318 339.12 787.828 339.26C788.338 339.39 788.758 339.565 789.088 339.785L788.623 340.64C787.973 340.19 787.198 339.965 786.298 339.965C785.618 339.965 785.103 340.085 784.753 340.325C784.413 340.565 784.243 340.88 784.243 341.27C784.243 341.57 784.338 341.81 784.528 341.99C784.728 342.17 784.973 342.305 785.263 342.395C785.553 342.475 785.953 342.56 786.463 342.65C787.093 342.77 787.598 342.89 787.978 343.01C788.358 343.13 788.683 343.335 788.953 343.625C789.223 343.915 789.358 344.315 789.358 344.825C789.358 345.515 789.068 346.065 788.488 346.475C787.918 346.875 787.123 347.075 786.103 347.075Z" fill="black" fill-opacity="0.8"/>
<rect x="673" y="386" width="494" height="40" fill="white"/>
<rect x="673.5" y="386.5" width="493" height="39" stroke="black" stroke-opacity="0.5"/>
<path d="M692.64 400.5C693.98 400.5 695.03 400.82 695.79 401.46C696.55 402.1 696.93 402.98 696.93 404.1C696.93 405.22 696.55 406.1 695.79 406.74C695.03 407.37 693.98 407.685 692.64 407.685H689.82V411H688.71V400.5H692.64ZM692.61 406.71C693.65 406.71 694.445 406.485 694.995 406.035C695.545 405.575 695.82 404.93 695.82 404.1C695.82 403.25 695.545 402.6 694.995 402.15C694.445 401.69 693.65 401.46 692.61 401.46H689.82V406.71H692.61ZM701.567 403.05C702.597 403.05 703.387 403.31 703.937 403.83C704.487 404.34 704.762 405.1 704.762 406.11V411H703.742V409.77C703.502 410.18 703.147 410.5 702.677 410.73C702.217 410.96 701.667 411.075 701.027 411.075C700.147 411.075 699.447 410.865 698.927 410.445C698.407 410.025 698.147 409.47 698.147 408.78C698.147 408.11 698.387 407.57 698.867 407.16C699.357 406.75 700.132 406.545 701.192 406.545H703.697V406.065C703.697 405.385 703.507 404.87 703.127 404.52C702.747 404.16 702.192 403.98 701.462 403.98C700.962 403.98 700.482 404.065 700.022 404.235C699.562 404.395 699.167 404.62 698.837 404.91L698.357 404.115C698.757 403.775 699.237 403.515 699.797 403.335C700.357 403.145 700.947 403.05 701.567 403.05ZM701.192 410.235C701.792 410.235 702.307 410.1 702.737 409.83C703.167 409.55 703.487 409.15 703.697 408.63V407.34H701.222C699.872 407.34 699.197 407.81 699.197 408.75C699.197 409.21 699.372 409.575 699.722 409.845C700.072 410.105 700.562 410.235 701.192 410.235ZM709.545 411.075C708.905 411.075 708.29 410.985 707.7 410.805C707.12 410.615 706.665 410.38 706.335 410.1L706.815 409.26C707.145 409.52 707.56 409.735 708.06 409.905C708.56 410.065 709.08 410.145 709.62 410.145C710.34 410.145 710.87 410.035 711.21 409.815C711.56 409.585 711.735 409.265 711.735 408.855C711.735 408.565 711.64 408.34 711.45 408.18C711.26 408.01 711.02 407.885 710.73 407.805C710.44 407.715 710.055 407.63 709.575 407.55C708.935 407.43 708.42 407.31 708.03 407.19C707.64 407.06 707.305 406.845 707.025 406.545C706.755 406.245 706.62 405.83 706.62 405.3C706.62 404.64 706.895 404.1 707.445 403.68C707.995 403.26 708.76 403.05 709.74 403.05C710.25 403.05 710.76 403.12 711.27 403.26C711.78 403.39 712.2 403.565 712.53 403.785L712.065 404.64C711.415 404.19 710.64 403.965 709.74 403.965C709.06 403.965 708.545 404.085 708.195 404.325C707.855 404.565 707.685 404.88 707.685 405.27C707.685 405.57 707.78 405.81 707.97 405.99C708.17 406.17 708.415 406.305 708.705 406.395C708.995 406.475 709.395 406.56 709.905 406.65C710.535 406.77 711.04 406.89 711.42 407.01C711.8 407.13 712.125 407.335 712.395 407.625C712.665 407.915 712.8 408.315 712.8 408.825C712.8 409.515 712.51 410.065 711.93 410.475C711.36 410.875 710.565 411.075 709.545 411.075ZM716.658 411.075C716.018 411.075 715.403 410.985 714.813 410.805C714.233 410.615 713.778 410.38 713.448 410.1L713.928 409.26C714.258 409.52 714.673 409.735 715.173 409.905C715.673 410.065 716.193 410.145 716.733 410.145C717.453 410.145 717.983 410.035 718.323 409.815C718.673 409.585 718.848 409.265 718.848 408.855C718.848 408.565 718.753 408.34 718.563 408.18C718.373 408.01 718.133 407.885 717.843 407.805C717.553 407.715 717.168 407.63 716.688 407.55C716.048 407.43 715.533 407.31 715.143 407.19C714.753 407.06 714.418 406.845 714.138 406.545C713.868 406.245 713.733 405.83 713.733 405.3C713.733 404.64 714.008 404.1 714.558 403.68C715.108 403.26 715.873 403.05 716.853 403.05C717.363 403.05 717.873 403.12 718.383 403.26C718.893 403.39 719.313 403.565 719.643 403.785L719.178 404.64C718.528 404.19 717.753 403.965 716.853 403.965C716.173 403.965 715.658 404.085 715.308 404.325C714.968 404.565 714.798 404.88 714.798 405.27C714.798 405.57 714.893 405.81 715.083 405.99C715.283 406.17 715.528 406.305 715.818 406.395C716.108 406.475 716.508 406.56 717.018 406.65C717.648 406.77 718.153 406.89 718.533 407.01C718.913 407.13 719.238 407.335 719.508 407.625C719.778 407.915 719.913 408.315 719.913 408.825C719.913 409.515 719.623 410.065 719.043 410.475C718.473 410.875 717.678 411.075 716.658 411.075ZM733.091 403.11L730.106 411H729.101L726.611 404.535L724.121 411H723.116L720.146 403.11H721.166L723.641 409.815L726.176 403.11H727.091L729.611 409.815L732.116 403.11H733.091ZM737.475 411.075C736.715 411.075 736.03 410.905 735.42 410.565C734.81 410.215 734.33 409.735 733.98 409.125C733.63 408.515 733.455 407.825 733.455 407.055C733.455 406.285 733.63 405.595 733.98 404.985C734.33 404.375 734.81 403.9 735.42 403.56C736.03 403.22 736.715 403.05 737.475 403.05C738.235 403.05 738.92 403.22 739.53 403.56C740.14 403.9 740.615 404.375 740.955 404.985C741.305 405.595 741.48 406.285 741.48 407.055C741.48 407.825 741.305 408.515 740.955 409.125C740.615 409.735 740.14 410.215 739.53 410.565C738.92 410.905 738.235 411.075 737.475 411.075ZM737.475 410.13C738.035 410.13 738.535 410.005 738.975 409.755C739.425 409.495 739.775 409.13 740.025 408.66C740.275 408.19 740.4 407.655 740.4 407.055C740.4 406.455 740.275 405.92 740.025 405.45C739.775 404.98 739.425 404.62 738.975 404.37C738.535 404.11 738.035 403.98 737.475 403.98C736.915 403.98 736.41 404.11 735.96 404.37C735.52 404.62 735.17 404.98 734.91 405.45C734.66 405.92 734.535 406.455 734.535 407.055C734.535 407.655 734.66 408.19 734.91 408.66C735.17 409.13 735.52 409.495 735.96 409.755C736.41 410.005 736.915 410.13 737.475 410.13ZM744.449 404.655C744.699 404.125 745.069 403.725 745.559 403.455C746.059 403.185 746.674 403.05 747.404 403.05V404.085L747.149 404.07C746.319 404.07 745.669 404.325 745.199 404.835C744.729 405.345 744.494 406.06 744.494 406.98V411H743.429V403.11H744.449V404.655ZM756.234 399.87V411H755.214V409.44C754.894 409.97 754.469 410.375 753.939 410.655C753.419 410.935 752.829 411.075 752.169 411.075C751.429 411.075 750.759 410.905 750.159 410.565C749.559 410.225 749.089 409.75 748.749 409.14C748.409 408.53 748.239 407.835 748.239 407.055C748.239 406.275 748.409 405.58 748.749 404.97C749.089 404.36 749.559 403.89 750.159 403.56C750.759 403.22 751.429 403.05 752.169 403.05C752.809 403.05 753.384 403.185 753.894 403.455C754.414 403.715 754.839 404.1 755.169 404.61V399.87H756.234ZM752.259 410.13C752.809 410.13 753.304 410.005 753.744 409.755C754.194 409.495 754.544 409.13 754.794 408.66C755.054 408.19 755.184 407.655 755.184 407.055C755.184 406.455 755.054 405.92 754.794 405.45C754.544 404.98 754.194 404.62 753.744 404.37C753.304 404.11 752.809 403.98 752.259 403.98C751.699 403.98 751.194 404.11 750.744 404.37C750.304 404.62 749.954 404.98 749.694 405.45C749.444 405.92 749.319 406.455 749.319 407.055C749.319 407.655 749.444 408.19 749.694 408.66C749.954 409.13 750.304 409.495 750.744 409.755C751.194 410.005 751.699 410.13 752.259 410.13Z" fill="black" fill-opacity="0.8"/>
<rect x="80" y="80" width="1680" height="66" fill="#4F4F4F"/>
<path d="M265.88 110.32V114.76H273.656V117.88H265.88V124H261.992V107.2H274.688V110.32H265.88ZM289.016 117.592C289.016 117.64 288.992 117.976 288.944 118.6H279.176C279.352 119.4 279.768 120.032 280.424 120.496C281.08 120.96 281.896 121.192 282.872 121.192C283.544 121.192 284.136 121.096 284.648 120.904C285.176 120.696 285.664 120.376 286.112 119.944L288.104 122.104C286.888 123.496 285.112 124.192 282.776 124.192C281.32 124.192 280.032 123.912 278.912 123.352C277.792 122.776 276.928 121.984 276.32 120.976C275.712 119.968 275.408 118.824 275.408 117.544C275.408 116.28 275.704 115.144 276.296 114.136C276.904 113.112 277.728 112.32 278.768 111.76C279.824 111.184 281 110.896 282.296 110.896C283.56 110.896 284.704 111.168 285.728 111.712C286.752 112.256 287.552 113.04 288.128 114.064C288.72 115.072 289.016 116.248 289.016 117.592ZM282.32 113.728C281.472 113.728 280.76 113.968 280.184 114.448C279.608 114.928 279.256 115.584 279.128 116.416H285.488C285.36 115.6 285.008 114.952 284.432 114.472C283.856 113.976 283.152 113.728 282.32 113.728ZM296.005 110.896C298.005 110.896 299.541 111.376 300.613 112.336C301.685 113.28 302.221 114.712 302.221 116.632V124H298.717V122.392C298.013 123.592 296.701 124.192 294.781 124.192C293.789 124.192 292.925 124.024 292.189 123.688C291.469 123.352 290.917 122.888 290.533 122.296C290.149 121.704 289.957 121.032 289.957 120.28C289.957 119.08 290.405 118.136 291.301 117.448C292.213 116.76 293.613 116.416 295.501 116.416H298.477C298.477 115.6 298.229 114.976 297.733 114.544C297.237 114.096 296.493 113.872 295.501 113.872C294.813 113.872 294.133 113.984 293.461 114.208C292.805 114.416 292.245 114.704 291.781 115.072L290.437 112.456C291.141 111.96 291.981 111.576 292.957 111.304C293.949 111.032 294.965 110.896 296.005 110.896ZM295.717 121.672C296.357 121.672 296.925 121.528 297.421 121.24C297.917 120.936 298.269 120.496 298.477 119.92V118.6H295.909C294.373 118.6 293.605 119.104 293.605 120.112C293.605 120.592 293.789 120.976 294.157 121.264C294.541 121.536 295.061 121.672 295.717 121.672ZM313.578 123.376C313.21 123.648 312.754 123.856 312.21 124C311.682 124.128 311.122 124.192 310.53 124.192C308.994 124.192 307.802 123.8 306.954 123.016C306.122 122.232 305.706 121.08 305.706 119.56V114.256H303.714V111.376H305.706V108.232H309.45V111.376H312.666V114.256H309.45V119.512C309.45 120.056 309.586 120.48 309.858 120.784C310.146 121.072 310.546 121.216 311.058 121.216C311.65 121.216 312.154 121.056 312.57 120.736L313.578 123.376ZM328.327 111.088V124H324.775V122.464C324.279 123.024 323.687 123.456 322.999 123.76C322.311 124.048 321.567 124.192 320.767 124.192C319.071 124.192 317.727 123.704 316.735 122.728C315.743 121.752 315.247 120.304 315.247 118.384V111.088H318.991V117.832C318.991 119.912 319.863 120.952 321.607 120.952C322.503 120.952 323.223 120.664 323.767 120.088C324.311 119.496 324.583 118.624 324.583 117.472V111.088H328.327ZM335.012 112.792C335.46 112.168 336.06 111.696 336.812 111.376C337.58 111.056 338.46 110.896 339.452 110.896V114.352C339.036 114.32 338.756 114.304 338.612 114.304C337.54 114.304 336.7 114.608 336.092 115.216C335.484 115.808 335.18 116.704 335.18 117.904V124H331.436V111.088H335.012V112.792ZM353.849 117.592C353.849 117.64 353.825 117.976 353.777 118.6H344.009C344.185 119.4 344.601 120.032 345.257 120.496C345.913 120.96 346.729 121.192 347.705 121.192C348.377 121.192 348.969 121.096 349.481 120.904C350.009 120.696 350.497 120.376 350.945 119.944L352.937 122.104C351.721 123.496 349.945 124.192 347.609 124.192C346.153 124.192 344.865 123.912 343.745 123.352C342.625 122.776 341.761 121.984 341.153 120.976C340.545 119.968 340.241 118.824 340.241 117.544C340.241 116.28 340.537 115.144 341.129 114.136C341.737 113.112 342.561 112.32 343.601 111.76C344.657 111.184 345.833 110.896 347.129 110.896C348.393 110.896 349.537 111.168 350.561 111.712C351.585 112.256 352.385 113.04 352.961 114.064C353.553 115.072 353.849 116.248 353.849 117.592ZM347.153 113.728C346.305 113.728 345.593 113.968 345.017 114.448C344.441 114.928 344.089 115.584 343.961 116.416H350.321C350.193 115.6 349.841 114.952 349.265 114.472C348.689 113.976 347.985 113.728 347.153 113.728ZM360.325 124.192C359.253 124.192 358.205 124.064 357.181 123.808C356.157 123.536 355.341 123.2 354.733 122.8L355.981 120.112C356.557 120.48 357.253 120.784 358.069 121.024C358.885 121.248 359.685 121.36 360.469 121.36C362.053 121.36 362.845 120.968 362.845 120.184C362.845 119.816 362.629 119.552 362.197 119.392C361.765 119.232 361.101 119.096 360.205 118.984C359.149 118.824 358.277 118.64 357.589 118.432C356.901 118.224 356.301 117.856 355.789 117.328C355.293 116.8 355.045 116.048 355.045 115.072C355.045 114.256 355.277 113.536 355.741 112.912C356.221 112.272 356.909 111.776 357.805 111.424C358.717 111.072 359.789 110.896 361.021 110.896C361.933 110.896 362.837 111 363.733 111.208C364.645 111.4 365.397 111.672 365.989 112.024L364.741 114.688C363.605 114.048 362.365 113.728 361.021 113.728C360.221 113.728 359.621 113.84 359.221 114.064C358.821 114.288 358.621 114.576 358.621 114.928C358.621 115.328 358.837 115.608 359.269 115.768C359.701 115.928 360.389 116.08 361.333 116.224C362.389 116.4 363.253 116.592 363.925 116.8C364.597 116.992 365.181 117.352 365.677 117.88C366.173 118.408 366.421 119.144 366.421 120.088C366.421 120.888 366.181 121.6 365.701 122.224C365.221 122.848 364.517 123.336 363.589 123.688C362.677 124.024 361.589 124.192 360.325 124.192Z" fill="white"/>
<path d="M437.056 120.4H429.256L427.768 124H423.784L431.272 107.2H435.112L442.624 124H438.544L437.056 120.4ZM435.832 117.448L433.168 111.016L430.504 117.448H435.832ZM451.375 110.896C452.575 110.896 453.663 111.176 454.639 111.736C455.631 112.28 456.407 113.056 456.967 114.064C457.527 115.056 457.807 116.216 457.807 117.544C457.807 118.872 457.527 120.04 456.967 121.048C456.407 122.04 455.631 122.816 454.639 123.376C453.663 123.92 452.575 124.192 451.375 124.192C449.599 124.192 448.247 123.632 447.319 122.512V124H443.743V106.192H447.487V112.456C448.431 111.416 449.727 110.896 451.375 110.896ZM450.727 121.12C451.687 121.12 452.471 120.8 453.079 120.16C453.703 119.504 454.015 118.632 454.015 117.544C454.015 116.456 453.703 115.592 453.079 114.952C452.471 114.296 451.687 113.968 450.727 113.968C449.767 113.968 448.975 114.296 448.351 114.952C447.743 115.592 447.439 116.456 447.439 117.544C447.439 118.632 447.743 119.504 448.351 120.16C448.975 120.8 449.767 121.12 450.727 121.12ZM466.097 124.192C464.737 124.192 463.513 123.912 462.425 123.352C461.353 122.776 460.513 121.984 459.905 120.976C459.297 119.968 458.993 118.824 458.993 117.544C458.993 116.264 459.297 115.12 459.905 114.112C460.513 113.104 461.353 112.32 462.425 111.76C463.513 111.184 464.737 110.896 466.097 110.896C467.457 110.896 468.673 111.184 469.745 111.76C470.817 112.32 471.657 113.104 472.265 114.112C472.873 115.12 473.177 116.264 473.177 117.544C473.177 118.824 472.873 119.968 472.265 120.976C471.657 121.984 470.817 122.776 469.745 123.352C468.673 123.912 467.457 124.192 466.097 124.192ZM466.097 121.12C467.057 121.12 467.841 120.8 468.449 120.16C469.073 119.504 469.385 118.632 469.385 117.544C469.385 116.456 469.073 115.592 468.449 114.952C467.841 114.296 467.057 113.968 466.097 113.968C465.137 113.968 464.345 114.296 463.721 114.952C463.097 115.592 462.785 116.456 462.785 117.544C462.785 118.632 463.097 119.504 463.721 120.16C464.345 120.8 465.137 121.12 466.097 121.12ZM488.328 111.088V124H484.776V122.464C484.28 123.024 483.688 123.456 483 123.76C482.312 124.048 481.568 124.192 480.768 124.192C479.072 124.192 477.728 123.704 476.736 122.728C475.744 121.752 475.248 120.304 475.248 118.384V111.088H478.992V117.832C478.992 119.912 479.864 120.952 481.608 120.952C482.504 120.952 483.224 120.664 483.768 120.088C484.312 119.496 484.584 118.624 484.584 117.472V111.088H488.328ZM499.764 123.376C499.396 123.648 498.94 123.856 498.396 124C497.868 124.128 497.308 124.192 496.716 124.192C495.18 124.192 493.988 123.8 493.14 123.016C492.308 122.232 491.892 121.08 491.892 119.56V114.256H489.9V111.376H491.892V108.232H495.636V111.376H498.852V114.256H495.636V119.512C495.636 120.056 495.772 120.48 496.044 120.784C496.332 121.072 496.732 121.216 497.244 121.216C497.836 121.216 498.34 121.056 498.756 120.736L499.764 123.376Z" fill="white"/>
<path d="M138.092 128.656C137.751 128.656 137.476 128.552 137.267 128.343C137.078 128.153 136.983 127.888 136.983 127.547V114.121C137.002 112.642 137.353 111.314 138.035 110.139C138.737 108.944 139.676 108.005 140.851 107.323C142.046 106.64 143.383 106.299 144.862 106.299C146.379 106.299 147.735 106.649 148.929 107.351C150.124 108.034 151.063 108.972 151.745 110.167C152.447 111.362 152.798 112.718 152.798 114.235C152.798 115.733 152.457 117.079 151.774 118.274C151.11 119.468 150.2 120.417 149.043 121.118C147.886 121.801 146.578 122.142 145.118 122.142C143.847 122.142 142.691 121.877 141.648 121.346C140.624 120.796 139.799 120.075 139.173 119.184V127.547C139.173 127.888 139.069 128.153 138.86 128.343C138.67 128.552 138.414 128.656 138.092 128.656ZM144.862 120.151C145.962 120.151 146.948 119.895 147.82 119.383C148.692 118.871 149.375 118.169 149.868 117.278C150.38 116.368 150.636 115.353 150.636 114.235C150.636 113.097 150.38 112.082 149.868 111.191C149.375 110.3 148.692 109.598 147.82 109.086C146.948 108.555 145.962 108.29 144.862 108.29C143.781 108.29 142.804 108.555 141.932 109.086C141.06 109.598 140.377 110.3 139.884 111.191C139.391 112.082 139.145 113.097 139.145 114.235C139.145 115.353 139.391 116.368 139.884 117.278C140.377 118.169 141.06 118.871 141.932 119.383C142.804 119.895 143.781 120.151 144.862 120.151ZM170.008 122C169.685 122 169.42 121.896 169.211 121.687C169.003 121.479 168.898 121.223 168.898 120.919V113.524C168.898 112.348 168.671 111.381 168.216 110.622C167.78 109.864 167.173 109.295 166.395 108.916C165.637 108.536 164.774 108.347 163.807 108.347C162.878 108.347 162.034 108.527 161.275 108.887C160.536 109.247 159.948 109.74 159.512 110.366C159.076 110.992 158.857 111.703 158.857 112.5H157.293C157.331 111.305 157.653 110.243 158.26 109.314C158.867 108.366 159.673 107.626 160.678 107.095C161.683 106.545 162.802 106.27 164.034 106.27C165.381 106.27 166.585 106.555 167.647 107.124C168.709 107.673 169.543 108.489 170.15 109.57C170.776 110.651 171.089 111.969 171.089 113.524V120.919C171.089 121.223 170.984 121.479 170.776 121.687C170.567 121.896 170.311 122 170.008 122ZM157.777 122C157.435 122 157.16 121.905 156.952 121.716C156.762 121.507 156.667 121.241 156.667 120.919V107.55C156.667 107.209 156.762 106.943 156.952 106.754C157.16 106.545 157.435 106.441 157.777 106.441C158.099 106.441 158.355 106.545 158.545 106.754C158.753 106.943 158.857 107.209 158.857 107.55V120.919C158.857 121.241 158.753 121.507 158.545 121.716C158.355 121.905 158.099 122 157.777 122ZM157.777 115.657C157.435 115.657 157.16 115.553 156.952 115.344C156.762 115.135 156.667 114.87 156.667 114.548V100.894C156.667 100.553 156.762 100.287 156.952 100.098C157.16 99.8892 157.435 99.7849 157.777 99.7849C158.099 99.7849 158.355 99.8892 158.545 100.098C158.753 100.287 158.857 100.553 158.857 100.894V114.548C158.857 114.87 158.753 115.135 158.545 115.344C158.355 115.553 158.099 115.657 157.777 115.657ZM182.573 122.142C181.056 122.142 179.7 121.801 178.506 121.118C177.311 120.436 176.372 119.497 175.69 118.302C175.007 117.108 174.666 115.752 174.666 114.235C174.666 112.699 175.007 111.333 175.69 110.139C176.372 108.944 177.311 108.005 178.506 107.323C179.7 106.64 181.056 106.299 182.573 106.299C184.09 106.299 185.437 106.64 186.612 107.323C187.807 108.005 188.746 108.944 189.428 110.139C190.111 111.333 190.462 112.699 190.481 114.235C190.481 115.752 190.13 117.108 189.428 118.302C188.746 119.497 187.807 120.436 186.612 121.118C185.437 121.801 184.09 122.142 182.573 122.142ZM182.573 120.151C183.673 120.151 184.659 119.895 185.531 119.383C186.404 118.871 187.086 118.169 187.579 117.278C188.072 116.387 188.319 115.372 188.319 114.235C188.319 113.097 188.072 112.082 187.579 111.191C187.086 110.281 186.404 109.57 185.531 109.058C184.659 108.546 183.673 108.29 182.573 108.29C181.473 108.29 180.487 108.546 179.615 109.058C178.743 109.57 178.051 110.281 177.539 111.191C177.046 112.082 176.799 113.097 176.799 114.235C176.799 115.372 177.046 116.387 177.539 117.278C178.051 118.169 178.743 118.871 179.615 119.383C180.487 119.895 181.473 120.151 182.573 120.151ZM200.401 122C199.396 122 198.495 121.763 197.699 121.289C196.921 120.815 196.305 120.17 195.85 119.355C195.395 118.52 195.167 117.572 195.167 116.51V102.601C195.167 102.279 195.262 102.013 195.452 101.804C195.66 101.596 195.926 101.492 196.248 101.492C196.57 101.492 196.836 101.596 197.045 101.804C197.253 102.013 197.357 102.279 197.357 102.601V116.51C197.357 117.477 197.642 118.274 198.211 118.9C198.78 119.506 199.51 119.81 200.401 119.81H201.169C201.472 119.81 201.719 119.914 201.909 120.123C202.098 120.331 202.193 120.597 202.193 120.919C202.193 121.241 202.079 121.507 201.852 121.716C201.624 121.905 201.34 122 200.998 122H200.401ZM193.318 108.916C193.034 108.916 192.797 108.83 192.607 108.66C192.418 108.47 192.323 108.242 192.323 107.977C192.323 107.692 192.418 107.465 192.607 107.294C192.797 107.105 193.034 107.01 193.318 107.01H200.572C200.856 107.01 201.093 107.105 201.283 107.294C201.472 107.465 201.567 107.692 201.567 107.977C201.567 108.242 201.472 108.47 201.283 108.66C201.093 108.83 200.856 108.916 200.572 108.916H193.318ZM212.414 122.142C210.897 122.142 209.541 121.801 208.347 121.118C207.152 120.436 206.213 119.497 205.531 118.302C204.848 117.108 204.507 115.752 204.507 114.235C204.507 112.699 204.848 111.333 205.531 110.139C206.213 108.944 207.152 108.005 208.347 107.323C209.541 106.64 210.897 106.299 212.414 106.299C213.931 106.299 215.278 106.64 216.453 107.323C217.648 108.005 218.587 108.944 219.269 110.139C219.952 111.333 220.303 112.699 220.322 114.235C220.322 115.752 219.971 117.108 219.269 118.302C218.587 119.497 217.648 120.436 216.453 121.118C215.278 121.801 213.931 122.142 212.414 122.142ZM212.414 120.151C213.514 120.151 214.5 119.895 215.373 119.383C216.245 118.871 216.928 118.169 217.421 117.278C217.914 116.387 218.16 115.372 218.16 114.235C218.16 113.097 217.914 112.082 217.421 111.191C216.928 110.281 216.245 109.57 215.373 109.058C214.5 108.546 213.514 108.29 212.414 108.29C211.314 108.29 210.328 108.546 209.456 109.058C208.584 109.57 207.892 110.281 207.38 111.191C206.887 112.082 206.64 113.097 206.64 114.235C206.64 115.372 206.887 116.387 207.38 117.278C207.892 118.169 208.584 118.871 209.456 119.383C210.328 119.895 211.314 120.151 212.414 120.151Z" fill="black"/>
<path fill-rule="evenodd" clip-rule="evenodd" d="M115.846 99.963H100L106.672 106.635H122.519L115.846 99.963ZM106.672 106.635V122.481L100 115.809V99.963L106.672 106.635Z" fill="#CCCCCC"/>
<path fill-rule="evenodd" clip-rule="evenodd" d="M106.672 122.481H122.519L115.846 115.809H100L106.672 122.481ZM115.846 115.809V99.963L122.519 106.635V122.481L115.846 115.809Z" fill="black"/>
</svg>
